<svg xmlns="http://www.w3.org/2000/svg" xmlns:xlink="http://www.w3.org/1999/xlink" version="1.1" x="0px" y="0px" viewBox="0 0 32 40" enable-background="new 0 0 32 32" xml:space="preserve"><g display="none"><g display="inline"><g><path fill="#000000" d="M23.259,4C23.761,5.743,25,10.595,25,16s-1.239,10.257-1.741,12H8.741C8.239,26.257,7,21.405,7,16     S8.239,5.743,8.741,4H23.259 M23.259,3H8.741C8.296,3,7.904,3.295,7.78,3.723C7.245,5.582,6,10.5,6,16s1.245,10.418,1.78,12.277     C7.904,28.705,8.296,29,8.741,29h14.518c0.446,0,0.838-0.295,0.961-0.723C24.755,26.418,26,21.5,26,16S24.755,5.582,24.22,3.723     C24.096,3.295,23.704,3,23.259,3L23.259,3z"/></g><path fill="#000000" d="M18.258,4 M13.742,28C13.24,26.257,12,21.405,12,16s1.24-10.257,1.742-12L13,3c0,0-2,6-2,13s2,13,2,13    L13.742,28z M18.258,4C18.76,5.743,20,10.595,20,16s-1.24,10.257-1.742,12L19,29c0,0,2-6,2-13S19,3,19,3"/><g><path fill="#000000" d="M16,15c0.552,0,1,0.448,1,1s-0.448,1-1,1s-1-0.448-1-1S15.448,15,16,15 M16,14c-1.103,0-2,0.897-2,2     s0.897,2,2,2s2-0.897,2-2S17.103,14,16,14L16,14z"/></g><g><path fill="#000000" d="M7.5,9.5c-0.552,0-1-0.448-1-1s0.448-1,1-1h17c0.552,0,1,0.448,1,1s-0.448,1-1,1H7.5z"/><path fill="#000000" d="M24.5,8C24.771,8,25,8.229,25,8.5S24.771,9,24.5,9h-17C7.229,9,7,8.771,7,8.5S7.229,8,7.5,8H24.5 M24.5,7     h-17C6.675,7,6,7.675,6,8.5S6.675,10,7.5,10h17c0.825,0,1.5-0.675,1.5-1.5S25.325,7,24.5,7L24.5,7z"/></g><g><path fill="#000000" d="M7.5,24.5c-0.552,0-1-0.448-1-1s0.448-1,1-1h17c0.552,0,1,0.448,1,1s-0.448,1-1,1H7.5z"/><path fill="#000000" d="M24.5,23c0.271,0,0.5,0.229,0.5,0.5S24.771,24,24.5,24h-17C7.229,24,7,23.771,7,23.5S7.229,23,7.5,23     H24.5 M24.5,22h-17C6.675,22,6,22.675,6,23.5S6.675,25,7.5,25h17c0.825,0,1.5-0.675,1.5-1.5S25.325,22,24.5,22L24.5,22z"/></g><g><path fill="#000000" d="M17,3 M17,3h-2l-0.707,0.707l1,1L16,5.414l0.707-0.707l1-1L17,3"/><polyline fill="#000000" points="17,3 16,4 15,3 17,3    "/></g><g><path fill="#000000" d="M21,29 M21,29h2l0.707-0.707l-1-1L22,26.586l-0.707,0.707l-1,1L21,29"/><polyline fill="#000000" points="21,29 22,28 23,29 21,29    "/></g></g></g><g><g><path d="M16,15c0.552,0,1,0.448,1,1s-0.448,1-1,1s-1-0.448-1-1S15.448,15,16,15 M16,14c-1.103,0-2,0.897-2,2s0.897,2,2,2    s2-0.897,2-2S17.103,14,16,14L16,14z"/><path d="M25.486,9.62C25.798,9.344,26,8.946,26,8.5c0-0.634-0.4-1.176-0.959-1.395c-0.305-1.479-0.615-2.667-0.821-3.382    C24.096,3.295,23.705,3,23.259,3H17l-1,1l-1-1H8.741C8.296,3,7.904,3.295,7.78,3.723C7.574,4.438,7.264,5.626,6.959,7.105    C6.4,7.324,6,7.866,6,8.5c0,0.446,0.202,0.844,0.514,1.12C6.222,11.531,6,13.705,6,16s0.222,4.469,0.514,6.38    C6.202,22.656,6,23.054,6,23.5c0,0.634,0.4,1.176,0.959,1.395c0.305,1.479,0.615,2.667,0.821,3.382    C7.904,28.705,8.296,29,8.741,29H21l1-1l1,1h0.259c0.446,0,0.838-0.295,0.961-0.723c0.206-0.715,0.516-1.903,0.821-3.382    C25.6,24.676,26,24.134,26,23.5c0-0.446-0.202-0.844-0.514-1.12C25.778,20.469,26,18.295,26,16S25.778,11.531,25.486,9.62z     M23.259,4c0.181,0.628,0.458,1.682,0.738,3h-3.975c-0.263-1.266-0.529-2.308-0.723-3H23.259z M13.742,4h0.844l0.707,0.707    L16,5.414l0.707-0.707L17.414,4h0.844c0.181,0.628,0.458,1.682,0.738,3h-5.993C13.284,5.682,13.561,4.628,13.742,4z M8.741,4h3.96    c-0.194,0.692-0.459,1.734-0.723,3H8.003C8.283,5.682,8.56,4.628,8.741,4z M11.453,22H7.5c-0.011,0-0.022,0.003-0.034,0.003    C7.199,20.192,7,18.146,7,16s0.199-4.192,0.466-6.003C7.478,9.997,7.489,10,7.5,10h3.953C11.192,11.813,11,13.853,11,16    S11.192,20.187,11.453,22z M8.741,28c-0.181-0.628-0.458-1.682-0.738-3h3.975c0.263,1.266,0.529,2.308,0.723,3H8.741z M18.258,28    h-4.517c-0.181-0.628-0.458-1.682-0.738-3h5.993C18.716,26.318,18.439,27.372,18.258,28z M23.293,27.878l-0.586-0.586L22,26.586    l-0.707,0.707L20.586,28h-1.287c0.194-0.692,0.459-1.734,0.723-3h3.975C23.732,26.245,23.473,27.241,23.293,27.878z M24.5,24h-17    C7.229,24,7,23.771,7,23.5C7,23.229,7.229,23,7.5,23h17c0.271,0,0.5,0.229,0.5,0.5C25,23.771,24.771,24,24.5,24z M12,16    c0-2.145,0.199-4.189,0.466-6h7.068C19.801,11.811,20,13.855,20,16c0,2.145-0.199,4.189-0.466,6h-7.068    C12.199,20.189,12,18.145,12,16z M24.534,22.003C24.522,22.003,24.511,22,24.5,22h-3.953C20.808,20.187,21,18.147,21,16    s-0.192-4.187-0.453-6H24.5c0.011,0,0.022-0.003,0.034-0.003C24.801,11.808,25,13.854,25,16S24.801,20.192,24.534,22.003z M24.5,9    h-17C7.229,9,7,8.771,7,8.5C7,8.229,7.229,8,7.5,8h17C24.771,8,25,8.229,25,8.5C25,8.771,24.771,9,24.5,9z"/></g></g></svg>