<svg xmlns="http://www.w3.org/2000/svg" xmlns:xlink="http://www.w3.org/1999/xlink" version="1.1" x="0px" y="0px" viewBox="0 0 100 125" enable-background="new 0 0 100 100" xml:space="preserve"><g><path d="M51.215,16.147l0.716-0.064c0.233,0.427,0.761,1.161,1.622,1.161c0.097,0,0.197-0.01,0.302-0.03   c1.293-0.258,1.682-1.51,1.697-1.563l0.168-0.561l-8.347,0.244l0.18,0.54c0.017,0.051,0.427,1.243,1.67,1.243   C50.132,17.116,50.92,16.437,51.215,16.147z M54.402,15.974c-0.163,0.179-0.395,0.346-0.714,0.409   c-0.328,0.066-0.595-0.131-0.786-0.365L54.402,15.974z M49.841,16.108c-0.371,0.18-0.812,0.195-1.068,0.031L49.841,16.108z"/><path d="M51.387,20.245c0.284,0.4,0.69,0.84,1.167,0.972c0.319,0.089,0.641,0.037,0.924-0.153c0.194-0.129,0.247-0.392,0.117-0.587   c-0.129-0.194-0.392-0.246-0.586-0.117c-0.078,0.052-0.145,0.067-0.229,0.042c-0.37-0.102-0.842-0.79-1.06-1.246l-0.534-1.123   l-0.261,1.215c-0.25,1.16-1.942,1.359-1.958,1.36c-0.232,0.026-0.4,0.234-0.375,0.466c0.023,0.217,0.207,0.378,0.42,0.378   c0.015,0,0.03-0.001,0.044-0.002C49.133,21.442,50.635,21.271,51.387,20.245z"/><path d="M81.467,48.411c-0.222-0.742-1.288-1.676-2.659-2.819c-0.396-0.33-0.889-0.741-0.961-0.843   c-0.031-0.076-0.023-0.352-0.018-0.554c0.018-0.601,0.041-1.424-0.434-2.138l-1.362-2.042c0.168-0.496,0.48-1.714-0.12-2.613   c-0.526-0.792-1.724-0.403-2.778-0.061c-0.283,0.091-0.685,0.221-0.903,0.254c-0.412-1.383-3.267-7.123-6.001-9.781   c-3.578-3.48-7.559-4.397-8.26-4.536l-2.639-2.052c0.576-0.974,0.939-1.995,1.072-2.526c0.161-0.643,0.43-2.797,0.563-3.917   c0.468,0.271,0.897,0.411,1.295,0.411c0.925,0,1.461-0.688,1.891-1.333c0.729-1.094,0.354-2.56-1.005-3.92   c-0.272-0.273-0.563-0.546-0.851-0.816c-0.864-0.812-1.757-1.651-1.891-2.255c-0.185-0.83-0.747-2.235-1.684-2.235   c-0.369,0-0.714,0.296-1.291,0.82c-0.309,0.28-0.884,0.802-1.059,0.812c-0.155-0.078-0.402-0.345-0.62-0.58   c-0.475-0.513-1.012-1.093-1.667-1.093c-0.129,0-0.256,0.023-0.377,0.069c-0.599,0.224-1.016,1.096-1.646,2.5   c-0.383,0.852-0.778,1.732-1.164,2.161c-0.348,0.387-0.692,0.895-1.056,1.432c-0.596,0.88-1.271,1.877-1.819,2.042   c-0.827,0.248-1.187,0.711-1.344,1.057c-0.313,0.689-0.062,1.348,0.022,1.534c0.59,1.299,1.385,1.571,1.949,1.571   c0.43,0,0.867-0.163,1.302-0.467c0.017,0.965,0.067,2.43,0.219,2.962c0.09,0.315,0.476,1.009,1.017,1.763   c-0.035,0.024-0.069,0.048-0.097,0.083L44.891,24.1c-0.501,0.02-1.785,0.18-3.599,1.217c-2.3,1.314-6.576,5.712-7.842,7.296   c-1.2,1.499-2.5,2.401-3.114,2.489l-0.695,0.1c-0.217-0.017-1.505-0.121-2.442-0.308c-0.742-0.147-1.964-0.103-2.726-0.056   c0.295-0.423,0.514-0.914,0.416-1.501c-0.215-1.294-2.045-1.32-2.959-1.249c-0.017-2.73-0.103-16.474-0.103-17.616l0.004-0.687   c0.039-4.673-0.109-5.303-0.431-5.557l-0.215-0.141l-0.201,0.05c-0.687,0.172-1.124,0.979-1.9,5.308   c-0.739,4.116-1.062,9.938-1.17,11.899c-0.36,6.494-0.591,7.854-0.696,8.084c-0.064,0.128-0.55,0.24-0.841,0.307   c-0.595,0.137-1.27,0.292-1.58,0.835c-0.119,0.207-0.142,0.442-0.067,0.681c0.256,0.82,1.752,1.568,2.049,1.709   c0.212,0.101,0.464,0.01,0.564-0.2c0.101-0.211,0.011-0.463-0.2-0.564c-0.807-0.385-1.605-0.987-1.612-1.207   c0.126-0.222,0.609-0.333,1.035-0.431c0.573-0.132,1.166-0.269,1.408-0.753c0.177-0.353,0.408-1.629,0.787-8.464   c0.105-1.9,0.425-7.683,1.155-11.749c0.45-2.506,0.775-3.67,0.991-4.202c0.104,1.137,0.084,3.493,0.077,4.386l-0.004,0.694   c0,1.269,0.105,18.091,0.105,18.091l0.003,0.49l0.484-0.074c0.732-0.111,2.375-0.142,2.481,0.497   c0.084,0.505-0.322,0.973-0.716,1.425c-0.396,0.455-0.806,0.926-0.648,1.478c0.167,0.583-0.297,2.875-0.523,3.558   c-0.165,0.495-0.995,1.321-1.761,1.406c-0.186,0.021-0.398,0.053-0.624,0.087c-0.712,0.107-1.902,0.289-2.178-0.043   c-0.168-0.201-0.315-0.335-0.447-0.454c-0.263-0.237-0.394-0.355-0.52-1.044c-0.075-0.414-0.188-0.789-0.284-1.104   c-0.036-0.12-0.077-0.256-0.107-0.37c0.3,0.061,0.801,0.186,1.226,0.292c1.578,0.394,2.828,0.689,3.45,0.622   c0.232-0.026,0.399-0.235,0.374-0.467c-0.025-0.232-0.232-0.399-0.467-0.374c-0.512,0.05-2.101-0.34-3.152-0.602   c-0.928-0.232-1.424-0.353-1.667-0.353c-0.301,0-0.459,0.153-0.526,0.244c-0.227,0.306-0.106,0.703,0.061,1.253   c0.087,0.289,0.192,0.631,0.261,1.01c0.165,0.907,0.407,1.179,0.785,1.521c0.107,0.097,0.228,0.205,0.364,0.368   c0.315,0.378,0.847,0.493,1.436,0.493c0.497,0,1.035-0.082,1.52-0.155c0.214-0.032,0.415-0.063,0.59-0.083   c1.15-0.127,2.193-1.209,2.457-1.949c0.58,0.61,1.913,1.86,3.129,1.86c0.083,0,0.167-0.006,0.25-0.019   c0.989-0.152,2.464-1.063,3.351-1.664l0.006,0.062l0.363,0.02c0.158,0.009,3.9,0.208,5.849-0.332   c1.981-0.551,4.055-2.69,4.875-3.745c0.34-0.437,0.595-0.91,0.776-1.312c0.5,1,1.318,2.583,1.823,3.305l0.885,1.263l0.25-0.028   c0,0,4.648-0.528,6.868-0.739c2.188-0.209,5.454-0.42,5.487-0.422l0.275-0.018l0.095-0.26c0.227-0.623,0.956-2.38,1.596-3.019   c0.554-0.555,1.052-1.535,1.36-2.226c0.984,1.588,3.404,5.39,5.014,7.084c2.038,2.144,3.342,2.81,3.396,2.837l0.254,0.127   l0.214-0.188c0,0,0.391-0.341,0.783-0.702c-0.024,0.116-0.056,0.242-0.093,0.373c-0.346,1.209,0.023,2.091,1.102,2.451   c0.87,0.289,2.325,0.773,2.486,1.656c0.027,0.152,0.059,0.355,0.095,0.594c0.392,2.552,0.895,5.042,2.33,5.042   c0.917,0,1.218-0.427,1.349-0.805c0.178,0.179,0.417,0.46,0.608,0.685c0.711,0.835,1.388,1.629,2.031,1.629   c0.102,0,0.203-0.02,0.304-0.063c0.878-0.375,0.983-1.563,0.995-1.899C81.202,51.358,81.793,49.492,81.467,48.411z M44.651,16.112   c-0.458,0-0.854-0.362-1.178-1.075c-0.092-0.204-0.154-0.544-0.022-0.834c0.123-0.27,0.397-0.47,0.816-0.596   c0.837-0.25,1.569-1.332,2.277-2.377c0.347-0.513,0.675-0.997,0.984-1.341c0.475-0.527,0.898-1.469,1.307-2.38   c0.348-0.774,0.873-1.943,1.252-2.07c0.286,0,0.725,0.475,1.046,0.822c0.293,0.316,0.569,0.615,0.863,0.763   c0.564,0.279,1.292-0.295,2.006-0.942c0.248-0.225,0.622-0.565,0.722-0.6c0.174,0,0.644,0.612,0.857,1.571   c0.19,0.859,1.136,1.748,2.137,2.689c0.281,0.265,0.565,0.531,0.832,0.798c1.052,1.053,1.388,2.119,0.898,2.853   c-0.723,1.083-1.316,1.274-2.563,0.321c-1.758-1.345-4.693-4.172-4.723-4.201L51.797,9.16l-0.28,0.421   c-0.007,0.009-0.633,0.943-1.654,2.066c-0.864,0.951-2.662,2.691-3.772,3.651c-0.196,0.17-0.369,0.314-0.512,0.425   C45.252,15.978,44.932,16.112,44.651,16.112z M53.843,12.234l-3.304-0.075c0.631-0.699,1.109-1.316,1.391-1.699   C52.338,10.849,53.053,11.521,53.843,12.234z M46.792,15.808c0.885-0.776,2.077-1.915,2.978-2.835   c0.026,0.006,0.05,0.017,0.078,0.018l4.654,0.105c0.004,0,0.007,0,0.01,0c0.083,0,0.156-0.03,0.222-0.071   c0.504,0.44,1,0.857,1.447,1.208c-0.096,0.813-0.425,3.568-0.597,4.26c-0.198,0.79-0.815,2.323-1.704,3.311   c-1.045,1.163-2.097,1.593-3.305,1.349c-1.378-0.275-3.411-3.304-3.589-3.932C46.85,18.745,46.797,16.989,46.792,15.808z    M47.704,21.889c0.806,0.986,1.807,1.915,2.705,2.094c0.274,0.055,0.543,0.083,0.808,0.083c1.188,0,2.271-0.56,3.292-1.695   c0.125-0.139,0.242-0.286,0.355-0.438l2.295,1.785l-5.554,5.735l-0.056-3.248c-0.004-0.233-0.201-0.423-0.43-0.416   c-0.234,0.004-0.42,0.196-0.416,0.43l0.052,2.996l-5.085-4.741L47.704,21.889z M26.206,41.238   c-0.837,0.121-2.217-1.077-2.894-1.867c-0.03-0.035-0.068-0.06-0.106-0.083c0.229-1.011,0.482-2.497,0.297-3.143   c-0.02-0.071,0.111-0.252,0.252-0.427c0.04,0.008,0.079,0.017,0.121,0.012c0.022-0.001,2.171-0.202,3.156-0.006   c0.768,0.153,1.725,0.25,2.234,0.295l0.326,3.426C28.733,40.054,27.109,41.099,26.206,41.238z M44.07,37.923   c-0.713-1.018-2.173-4.036-2.188-4.066l-0.49-1.014l-0.299,1.086c-0.003,0.011-0.307,1.098-0.984,1.967   c-0.884,1.137-2.794,2.993-4.433,3.449c-1.431,0.398-4.037,0.356-5.097,0.322c0.04-0.125,0.027-0.266-0.058-0.379   c-0.028-0.038-0.065-0.065-0.102-0.091l-0.305-3.207l0.341-0.049c0.956-0.137,2.425-1.262,3.655-2.799   c1.2-1.501,5.424-5.846,7.601-7.09c1.694-0.969,2.856-1.091,3.223-1.105l5.842,5.446l0.133,7.708   c-1.992,0.197-5.312,0.569-6.244,0.674L44.07,37.923z M80.239,51.565l-0.023,0.14c0,0.209-0.082,1.025-0.449,1.189   c-0.274-0.018-1.029-0.903-1.392-1.329c-0.589-0.69-0.911-1.054-1.249-1.122c-0.276-0.055-0.639,0.001-0.771,0.596   c-0.052,0.232-0.078,0.35-0.581,0.35c-0.551,0-1.053-1.456-1.493-4.325c-0.038-0.248-0.07-0.459-0.1-0.617   c-0.25-1.376-2.004-1.959-3.139-2.336c-0.236-0.079-0.789-0.263-0.467-1.387c0.437-1.535,0.042-1.768-0.088-1.844   c-0.106-0.062-0.391-0.175-0.726,0.16c-0.278,0.278-0.743,0.697-1.021,0.943c-0.447-0.282-1.494-1.02-2.922-2.522   c-1.955-2.058-5.306-7.593-5.339-7.649l-0.455-0.753l-0.305,0.825c-0.196,0.535-0.849,2.063-1.487,2.704   c-0.736,0.735-1.439,2.418-1.693,3.068c-0.768,0.051-3.006,0.205-4.786,0.365l-0.127-7.371l6.307-6.515   c0.899,0.203,4.508,1.173,7.707,4.285c2.822,2.745,5.703,8.816,5.8,9.489c0.026,0.184,0.125,0.337,0.277,0.432   c0.367,0.229,0.917,0.052,1.677-0.195c0.534-0.173,1.644-0.531,1.815-0.274c0.414,0.62,0.113,1.677-0.037,2.032l-0.09,0.211   l1.607,2.411c0.326,0.489,0.308,1.13,0.293,1.645c-0.012,0.393-0.021,0.704,0.104,0.953c0.105,0.213,0.391,0.461,1.178,1.118   c0.832,0.694,2.224,1.855,2.391,2.413C80.885,49.411,80.433,51.013,80.239,51.565z"/><path d="M45.144,42.442c0.583,0,1.327-0.105,1.924-0.19l0.516-0.07c0.869-0.108,1.581-0.132,2.405-0.159   c0.773-0.026,1.648-0.055,2.866-0.156c0.611-0.051,1.205-0.058,1.755-0.058l0.539,0.001c1.146,0,1.928-0.035,2.326-0.507   c0.195-0.229,0.264-0.525,0.204-0.879c-0.208-1.247-1.866-1.247-2.575-1.247c-0.564,0-1.202,0.04-1.869,0.082   c-0.418,0.026-0.849,0.054-1.278,0.071c-2.58,0.107-3.665,0.219-5.121,0.427c-1.409,0.201-3.007,0.43-3.007,1.9   C43.828,42.015,44.057,42.442,45.144,42.442z M46.956,40.594c1.455-0.209,2.477-0.313,5.036-0.419   c0.437-0.018,0.872-0.045,1.297-0.072c0.647-0.041,1.267-0.08,1.815-0.08c1.479,0,1.702,0.308,1.741,0.54   c0.009,0.055,0.019,0.152-0.016,0.193c-0.176,0.208-1.155,0.208-1.681,0.208l-0.539-0.001c-0.568,0-1.184,0.007-1.825,0.061   c-1.196,0.1-2.061,0.129-2.824,0.154c-0.845,0.028-1.576,0.052-2.482,0.166l-0.529,0.073c-0.846,0.119-2.048,0.197-2.268,0.139   C44.753,41,45.438,40.811,46.956,40.594z"/><path d="M63.164,81.835c-0.118-0.055-0.228-0.104-0.317-0.148c-0.64-0.322-3.01-2.26-3.271-3.225   c-0.274-1.008,0.601-5.921,1.153-7.469c0.539-1.509,1.175-6.85,1.397-9.199c0.188-1.962-0.096-4.397-0.758-6.514   c-0.391-1.249-1.096-2.468-1.479-3.083c0.441-0.111,0.742-0.186,0.752-0.188l0.31-0.075l0.014-0.318   c0.004-0.107,0.101-2.66-0.674-4.321c-0.738-1.584-2.323-5.174-2.324-5.175l-0.144-0.326l-0.346,0.086   c-0.008,0.002-0.806,0.199-1.482,0.199c-0.314,0-1.132,0.051-2.168,0.116c-1.448,0.09-3.25,0.202-4.18,0.202   c-1.597,0-5.396,0.511-5.557,0.532l-0.142,0.019l-0.101,0.102c-0.022,0.023-0.562,0.567-1.004,1.228   c-0.414,0.621-2.472,4.803-2.917,6.808c-0.442,1.989,0.294,4.447,0.326,4.551l0.138,0.451l0.35-0.149   c-0.373,0.967-1.085,2.809-1.747,4.499c-0.604,1.543-1.616,4.288-1.616,5.337l-0.006,0.285c-0.021,0.656-0.042,1.675,0.581,2.654   c-0.192,0.551-0.54,1.925,0.093,3.463c0.132,0.32,0.294,0.698,0.471,1.11c0.769,1.788,1.929,4.49,1.929,5.71   c0,1.411-0.841,2.567-1.655,3.686l-0.062,0.084c-0.283,0.39-0.844,0.817-1.387,1.231c-1.044,0.797-2.125,1.621-1.853,2.62   c0.205,0.749,0.687,1.23,1.225,1.508c-0.131,0.787-0.422,2.963,0.22,3.817c0.376,0.501,0.815,0.651,1.168,0.772   c0.347,0.118,0.538,0.184,0.688,0.521c0.013,0.029,1.345,3.001,2.502,3.001c0.484,0,0.703-0.271,0.808-0.529   c0.187,0.2,0.461,0.387,0.862,0.31c0.441-0.088,0.604-0.419,0.672-0.69c0.197,0.179,0.471,0.352,0.829,0.263   c0.344-0.086,0.501-0.339,0.585-0.567c0.205,0.208,0.54,0.449,0.922,0.191c0.566-0.378,0.603-1.602,0.493-2.041l-0.064-0.242   c-0.48-1.774-0.466-2.258-0.43-2.362c0.38-0.508,1.025-1.737,1.242-3.041c0.212-1.276-0.164-2.185-0.388-2.727l-0.059-0.144   c-0.068-0.171-0.234-0.564-2.33-0.777c1.155-0.322,2.202-1.048,2.455-2.145c0.236-1.022-0.364-2.179-0.945-3.296   c-0.313-0.604-0.609-1.173-0.752-1.676c-0.151-0.528-0.341-0.944-0.508-1.311c-0.323-0.708-0.557-1.219-0.432-2.223   c0.081-0.645,0.175-1.076,0.259-1.458c0.131-0.6,0.235-1.073,0.166-1.908c-0.063-0.764-0.392-1.561-0.656-2.201   c-0.128-0.312-0.304-0.738-0.308-0.834c0.117-0.427,2.306-5.22,2.915-6.232c0.264-0.44,0.639-1.028,1.024-1.633   c0.542-0.851,1.102-1.729,1.416-2.294c0.4-0.72,0.733-1.646,0.89-2.111c0.196-0.018,0.382-0.033,0.537-0.047v0.15l0.433-0.093   c0,0.031-0.004,0.061,0.003,0.092c0.031,0.127,0.76,3.131,1.513,4.638l0.152,0.305c1.78,3.575,2.824,5.393,3.505,6.07   c-0.324,0.676-1.038,2.361-0.95,4.036c0.045,0.857,0.032,2.168,0.019,3.435c-0.026,2.578-0.014,3.318,0.131,3.605   c0.102,0.229,0.215,1.503,0.267,2.621c-0.646,0.735-2.125,2.622-1.265,3.604c0.771,0.881,1.594,0.175,1.946-0.125   c0.04-0.034,0.088-0.075,0.13-0.108c0.119,0.082,0.3,0.215,0.466,0.336c0.177,0.13,0.389,0.284,0.614,0.445   c-1.34,0.04-3.289,0.121-3.761,1.35c-0.274,0.713-1.591,4.329-0.558,5.508c0.344,0.395,1.26,1.443,1.17,1.979l-0.055,0.3   c-0.171,0.909-0.365,1.939,0.283,2.265c0.256,0.127,0.474,0.091,0.647-0.004c0.017,0.284,0.122,0.576,0.497,0.67   c0.404,0.1,0.658-0.108,0.818-0.297c0.107,0.195,0.259,0.411,0.524,0.5c0.073,0.024,0.144,0.036,0.21,0.036   c0.235,0,0.431-0.149,0.584-0.447c0.196,0.233,0.465,0.517,0.831,0.417c0.313-0.089,0.402-0.38,0.444-0.628   c0.226,0.2,0.523,0.435,0.868,0.295c0.503-0.204,0.529-0.789,0.553-1.306c0.014-0.306,0.031-0.686,0.148-0.832   c0.143-0.179,0.361-0.407,0.606-0.664c0.475-0.498,1.065-1.118,1.432-1.703c0.559-0.895,0.885-1.445,1.108-2.343   c0.176-0.702,0.151-1.2,0.131-1.64c-0.007-0.125-0.013-0.245-0.013-0.366c0-0.472-0.248-1.085-0.385-1.387   c0.762-0.347,1.273-0.921,1.428-1.459C65.247,82.786,63.994,82.214,63.164,81.835z M46.038,85.124   c0.214,0.518,0.508,1.227,0.335,2.265c-0.19,1.146-0.766,2.247-1.084,2.672c-0.296,0.395-0.221,1.203,0.291,3.091l0.06,0.227   c0.063,0.254,0.014,0.714-0.064,0.969c-0.008-0.01-0.017-0.02-0.023-0.028c-0.161-0.193-0.402-0.48-0.766-0.396   c-0.354,0.087-0.438,0.433-0.488,0.64c-0.018,0.072-0.047,0.193-0.006,0.208c-0.047-0.017-0.156-0.131-0.215-0.191   c-0.165-0.173-0.442-0.461-0.817-0.325c-0.345,0.127-0.392,0.484-0.419,0.697c-0.01,0.074-0.028,0.213-0.055,0.239   c-0.047-0.016-0.149-0.155-0.198-0.223c-0.131-0.181-0.379-0.514-0.772-0.408c-0.358,0.097-0.421,0.451-0.455,0.643   c-0.012,0.065-0.031,0.175-0.062,0.19c-0.302-0.055-1.18-1.243-1.737-2.499c-0.3-0.675-0.792-0.844-1.188-0.979   c-0.305-0.104-0.546-0.187-0.765-0.479C37.282,91,37.357,89.5,37.526,88.396c0.126,0.02,0.249,0.03,0.366,0.03   c0.099,0,0.194-0.007,0.283-0.02c0.524-0.075,1.082-0.68,1.948-1.661c0.515-0.584,1.098-1.245,1.478-1.455   c0.392-0.218,0.589-0.472,0.721-0.691c0.004,0,0.008,0.003,0.013,0.003c1.505,0.042,3.296,0.226,3.667,0.437L46.038,85.124z    M48.324,56.26c-0.301,0.542-0.854,1.41-1.389,2.249c-0.39,0.611-0.77,1.207-1.036,1.652c-0.614,1.021-2.88,5.942-3.01,6.462   c-0.082,0.325,0.088,0.737,0.346,1.362c0.242,0.586,0.542,1.316,0.595,1.949c0.06,0.708-0.023,1.085-0.149,1.656   c-0.083,0.38-0.187,0.852-0.272,1.535c-0.154,1.242,0.164,1.939,0.501,2.679c0.163,0.356,0.331,0.725,0.465,1.191   c0.167,0.584,0.496,1.219,0.815,1.833c0.51,0.981,1.037,1.997,0.872,2.716c-0.269,1.16-1.9,1.683-2.973,1.683   c-0.915,0-1.178,0.355-1.407,0.784c-0.107,0.202-0.2,0.377-0.49,0.538c-0.506,0.28-1.087,0.938-1.702,1.635   c-0.44,0.499-1.178,1.335-1.433,1.384c-0.561,0.081-1.499-0.239-1.753-1.174c-0.123-0.449,0.805-1.156,1.55-1.725   c0.591-0.45,1.202-0.917,1.559-1.406l0.061-0.084c0.852-1.171,1.817-2.497,1.817-4.184c0-1.394-1.155-4.081-1.998-6.044   c-0.176-0.408-0.336-0.781-0.467-1.099c-0.39-0.947-0.32-1.831-0.199-2.402c0.041,0.013,0.083,0.024,0.125,0.024   c0.108,0,0.216-0.041,0.299-0.124c0.166-0.165,0.166-0.433,0-0.598c-0.083-0.083-0.15-0.168-0.217-0.253   c-0.026-0.079-0.078-0.146-0.146-0.199c-0.511-0.772-0.493-1.591-0.473-2.217l0.007-0.312c0-0.506,0.409-2.093,1.558-5.028   c0.928-2.372,1.955-5.04,2.006-5.175c0.601-0.178,1.442-0.381,2.404-0.482c1.135-0.119,3.238-0.309,4.839-0.449   C48.86,55.107,48.608,55.749,48.324,56.26z M50.513,53.66c-0.215,0.019-0.493,0.043-0.794,0.068   c-0.076-0.013-0.15-0.006-0.218,0.02c-1.638,0.143-4.121,0.364-5.399,0.498c-1.406,0.148-2.554,0.494-3.156,0.704   c-0.182-0.762-0.485-2.374-0.195-3.682c0.417-1.878,2.411-5.946,2.794-6.521c0.29-0.434,0.638-0.822,0.803-0.999   c0.723-0.095,3.929-0.505,5.298-0.505c0.956,0,2.772-0.113,4.232-0.204c0.987-0.061,1.818-0.113,2.115-0.113   c0.486,0,1.005-0.083,1.338-0.148c0.403,0.912,1.583,3.571,2.19,4.875c0.54,1.157,0.6,2.904,0.601,3.613   c-0.821,0.203-2.984,0.753-3.865,1.104c-0.797,0.319-3.683,0.972-4.893,1.238c0.026-0.348,0.078-0.859,0.18-1.521   c0.214-1.385,0.318-4.978,0.322-5.129c0.007-0.234-0.177-0.429-0.411-0.435c-0.224,0.003-0.428,0.177-0.435,0.411   c-0.001,0.037-0.107,3.692-0.312,5.025C50.591,52.721,50.537,53.294,50.513,53.66z M63.08,86.612c0,0.134,0.006,0.269,0.013,0.407   c0.02,0.399,0.039,0.812-0.105,1.394c-0.193,0.776-0.479,1.254-1.006,2.1c-0.32,0.512-0.878,1.098-1.326,1.567   C60.39,92.358,60.154,92.606,60,92.8c-0.289,0.36-0.312,0.871-0.333,1.322c-0.005,0.119-0.013,0.289-0.019,0.411   c-0.016-0.014-0.029-0.026-0.042-0.038c-0.238-0.214-0.531-0.483-0.904-0.347c-0.243,0.091-0.339,0.302-0.387,0.513   c-0.191-0.211-0.441-0.417-0.766-0.306c-0.203,0.068-0.31,0.235-0.382,0.394c-0.112-0.218-0.283-0.521-0.645-0.521   c-0.207,0-0.353,0.108-0.457,0.227c0.034-0.294,0.038-0.689-0.347-0.833c-0.405-0.151-0.657,0.203-0.781,0.372   c-0.003,0.004-0.005,0.008-0.008,0.012c-0.008-0.338,0.104-0.932,0.152-1.189l0.058-0.315c0.13-0.772-0.452-1.629-1.367-2.677   c-0.469-0.534-0.007-2.782,0.71-4.646c0.28-0.729,2.174-0.784,3.084-0.811c0.554-0.017,0.811-0.031,0.986-0.102   c0.813,0.513,1.717,0.993,2.53,1.174c0.331,0.073,0.647,0.106,0.947,0.106c0.244,0,0.473-0.028,0.692-0.068   C62.87,85.779,63.08,86.315,63.08,86.612z M61.268,84.612c-1.308-0.291-3.011-1.543-3.926-2.216   c-0.49-0.36-0.652-0.477-0.793-0.522c-0.33-0.11-0.596,0.113-0.852,0.332c-0.52,0.44-0.601,0.396-0.762,0.213   c-0.28-0.321,0.493-1.643,1.372-2.61l0.116-0.128l-0.007-0.174c-0.033-0.791-0.135-2.679-0.352-3.107   c-0.084-0.275-0.066-1.923-0.053-3.246c0.013-1.28,0.026-2.604-0.02-3.488c-0.073-1.405,0.528-2.896,0.834-3.554   c0.779,0.31,1.517,0.396,1.553,0.4c0.017,0.001,0.032,0.002,0.048,0.002c0.212,0,0.396-0.159,0.419-0.376   c0.026-0.232-0.141-0.441-0.373-0.468c-0.009-0.001-0.892-0.104-1.656-0.487c-0.305-0.151-1.153-1.309-3.467-5.957l-0.152-0.306   c-0.711-1.42-1.44-4.428-1.448-4.458c-0.006-0.024-0.021-0.044-0.03-0.066c1.31-0.29,4.027-0.909,4.852-1.24   c0.52-0.207,1.558-0.498,2.456-0.735c0.283,0.436,1.116,1.777,1.533,3.112c0.63,2.015,0.9,4.325,0.724,6.182   c-0.211,2.224-0.845,7.574-1.353,8.994c-0.503,1.407-1.537,6.638-1.173,7.976c0.371,1.371,3.064,3.436,3.71,3.76   c0.099,0.049,0.216,0.103,0.345,0.161c0.942,0.431,1.395,0.743,1.341,0.93C64.02,84.01,62.995,84.995,61.268,84.612z"/><path d="M20.241,33.3v-8.04c0-0.234-0.189-0.423-0.423-0.423s-0.423,0.189-0.423,0.423v8.04c0,0.234,0.189,0.423,0.423,0.423   S20.241,33.534,20.241,33.3z"/><path d="M40.271,88.859l-0.189-0.069l-0.173,0.104c-0.441,0.264-0.894,0.914-0.888,1.545c0.004,0.423,0.209,0.772,0.578,0.983   c0.281,0.16,0.582,0.245,0.868,0.245c0,0,0,0,0,0c0.341,0,0.653-0.119,0.879-0.337c0.236-0.228,0.367-0.551,0.367-0.91   C41.713,89.412,40.418,88.913,40.271,88.859z M40.76,90.72c-0.069,0.066-0.17,0.102-0.292,0.102c-0.14,0-0.295-0.047-0.448-0.134   c-0.107-0.062-0.151-0.136-0.152-0.257c-0.002-0.228,0.15-0.508,0.323-0.685c0.306,0.153,0.677,0.422,0.677,0.674   C40.867,90.551,40.831,90.652,40.76,90.72z"/><path d="M43.188,89.83c0.165,0.1,0.354,0.149,0.564,0.149c0.611,0,1.216-0.44,1.284-0.49l0.169-0.127v-1.163   c0-0.44-0.471-0.759-1.398-0.944l-0.172-0.034l-0.146,0.097c-0.496,0.33-0.82,0.957-0.806,1.56   C42.693,89.296,42.876,89.644,43.188,89.83z M43.829,88.129c0.214,0.056,0.424,0.132,0.529,0.19v0.603   c-0.175,0.102-0.419,0.212-0.606,0.212c-0.054,0-0.097-0.01-0.128-0.028c-0.081-0.049-0.093-0.189-0.094-0.248   C43.524,88.638,43.627,88.334,43.829,88.129z"/><path d="M42.82,90.404l-0.513-0.403l-0.159,0.634c-0.003,0.012-0.273,1.161,0.181,1.742c0.156,0.201,0.382,0.311,0.634,0.312h0   c0.12,0,0.248-0.025,0.378-0.074c0.402-0.151,0.502-0.438,0.527-0.597C43.968,91.383,43.168,90.678,42.82,90.404z"/><path d="M57.451,88.65c0.096-0.284,0.272-1.42-0.238-1.837c-0.161-0.132-0.371-0.202-0.607-0.202c-0.787,0-1.882,0.8-1.882,1.588   c0,0.407,0,1.254,0.85,1.468c0.07,0.018,0.146,0.026,0.224,0.026C56.408,89.693,57.289,89.137,57.451,88.65z M56.654,88.368   c-0.083,0.154-0.593,0.479-0.857,0.479l-0.018-0.001c-0.112-0.028-0.21-0.053-0.21-0.647c0-0.221,0.613-0.742,1.086-0.753   C56.736,87.572,56.732,88.132,56.654,88.368z"/><path d="M60.755,87.367c-0.54-0.138-1.15,0.347-1.436,0.767c-0.279,0.411-0.363,0.838-0.229,1.175   c0.276,0.686,0.737,1.005,1.451,1.005c0.397,0,0.806-0.219,1.093-0.586c0.25-0.32,0.349-0.684,0.271-0.998   C61.77,88.19,61.263,87.498,60.755,87.367z M60.967,89.206c-0.12,0.154-0.295,0.262-0.426,0.262c-0.364,0-0.52-0.111-0.665-0.474   c-0.012-0.03,0.002-0.179,0.147-0.391c0.19-0.277,0.436-0.417,0.517-0.418c0.123,0.035,0.459,0.412,0.544,0.75   C61.091,88.964,61.071,89.072,60.967,89.206z"/><path d="M57.581,90.264c-0.368,0.211-1.23,0.766-1.277,1.365c-0.018,0.233,0.078,0.447,0.271,0.602   c0.292,0.234,0.635,0.357,0.991,0.357c0.268,0,0.455-0.07,0.49-0.084l0.286-0.115l-0.177-2.459L57.581,90.264z"/></g></svg>