<svg xmlns="http://www.w3.org/2000/svg" xmlns:xlink="http://www.w3.org/1999/xlink" version="1.1" x="0px" y="0px" viewBox="0 0 100 125" style="enable-background:new 0 0 100 100;" xml:space="preserve"><path d="M56.027,28.391c-7.875,11.842-15.749,23.683-23.623,35.525c-2.346,3.376-6.352,6.458-10.462,6.532  c-1.1,0.02-2.208-0.176-3.268-0.472C7.493,70.581,8.835,87.85,19.976,86.721c0.314-0.032,0.631-0.065,0.935-0.148  c0.939-0.256,1.75-0.981,2.707-1.108c0.766-0.102,1.625,0.18,2.35,0.676c0.738,0.477,1.33,1.16,1.532,1.906  c0.252,0.931-0.103,1.96,0.025,2.925c0.041,0.312,0.133,0.618,0.225,0.92c3.268,10.71,19.712,5.269,15.946-5.277  c-0.683-0.863-1.292-1.808-1.7-2.831c-1.522-3.818-0.229-8.705,1.977-12.174c7.874-11.842,15.749-23.684,23.623-35.525  c2.346-3.376,6.352-6.458,10.462-6.532c1.1-0.02,2.208,0.176,3.268,0.473c11.181-0.606,9.839-17.875-1.302-16.746  c-0.314,0.032-0.631,0.066-0.935,0.148c-0.939,0.256-1.75,0.981-2.707,1.108c-0.766,0.102-1.625-0.18-2.35-0.676  c-0.738-0.477-1.33-1.16-1.532-1.906c-0.253-0.932,0.103-1.96-0.025-2.925c-0.041-0.312-0.133-0.618-0.225-0.92  C68.982-2.601,52.539,2.84,56.304,13.386c0.683,0.863,1.292,1.808,1.7,2.83C59.525,20.035,58.233,24.922,56.027,28.391z"/></svg>