<svg xmlns="http://www.w3.org/2000/svg" xmlns:xlink="http://www.w3.org/1999/xlink" version="1.1" x="0px" y="0px" viewBox="0 0 100 125" style="enable-background:new 0 0 100 100;" xml:space="preserve"><g><path d="M64.617,5.125c1.404,0,3.91,0.495,4.921,3.809c0.046,0.151,0.115,0.379,0.127,0.467c0.016,0.12-0.013,0.448-0.034,0.689   c-0.059,0.676-0.14,1.602,0.133,2.607c0.375,1.383,1.333,2.633,2.698,3.524c1.116,0.755,2.393,1.17,3.6,1.17   c0.233,0,0.466-0.015,0.693-0.045c1.033-0.137,1.855-0.57,2.456-0.886c0.213-0.112,0.506-0.266,0.622-0.298   c0.086-0.023,0.322-0.048,0.476-0.063c0.252-0.026,0.501-0.039,0.741-0.039c3.976,0.001,5.131,3.464,5.186,5.51   c0.023,0.867-0.099,5.104-4.652,5.591c-1.197-0.299-2.306-0.445-3.376-0.445l-0.202,0.002c-5.492,0.098-10.181,4.067-12.739,7.749   l-0.016,0.024l-0.016,0.024L54.113,51.241L41.613,70.04l-0.016,0.024l-0.016,0.024c-2.406,3.782-4.252,9.642-2.218,14.744   c0.418,1.049,1.006,2.077,1.792,3.128c0.492,1.651,0.298,3.115-0.577,4.358c-1.095,1.553-3.134,2.557-5.194,2.557   c-1.404,0-3.91-0.495-4.922-3.811c-0.043-0.14-0.114-0.375-0.126-0.463c-0.016-0.12,0.013-0.449,0.034-0.69   c0.059-0.676,0.14-1.602-0.133-2.607c-0.375-1.383-1.333-2.633-2.699-3.525c-1.115-0.755-2.392-1.17-3.6-1.17   c-0.233,0-0.466,0.015-0.694,0.046c-1.032,0.138-1.855,0.57-2.455,0.886c-0.213,0.112-0.506,0.266-0.624,0.298   c-0.086,0.023-0.329,0.048-0.474,0.063c-0.253,0.026-0.502,0.039-0.742,0.039c-3.975,0-5.13-3.463-5.185-5.509   c-0.023-0.867,0.099-5.105,4.652-5.592c1.196,0.299,2.304,0.445,3.373,0.445l0.205-0.002c5.492-0.098,10.181-4.067,12.739-7.749   l0.016-0.024l0.016-0.024l11.812-17.763l11.812-17.763l0.016-0.024l0.016-0.025c2.405-3.783,4.251-9.643,2.218-14.745   c-0.418-1.049-1.006-2.076-1.792-3.127c-0.492-1.651-0.298-3.116,0.578-4.358C60.517,6.128,62.556,5.125,64.617,5.125 M64.617,2.29   c-5.236,0-10.643,4.57-8.313,11.096c0.683,0.863,1.292,1.808,1.7,2.831c1.522,3.819,0.229,8.705-1.977,12.174   c-7.875,11.842-15.749,23.683-23.623,35.525c-2.346,3.376-6.352,6.458-10.462,6.532c-0.051,0.001-0.103,0.001-0.154,0.001   c-1.049,0-2.103-0.191-3.113-0.474c-10.827,0.587-9.91,16.799,0.274,16.799c0.333,0,0.675-0.017,1.028-0.053   c0.314-0.032,0.631-0.065,0.935-0.148c0.939-0.256,1.749-0.981,2.707-1.108c0.105-0.014,0.212-0.021,0.319-0.021   c0.679,0,1.405,0.268,2.031,0.696c0.738,0.477,1.33,1.16,1.532,1.906c0.252,0.931-0.103,1.96,0.025,2.925   c0.041,0.312,0.133,0.618,0.225,0.92c1.246,4.083,4.408,5.819,7.633,5.819c5.236,0,10.643-4.57,8.313-11.096   c-0.683-0.863-1.292-1.808-1.7-2.831c-1.522-3.818-0.229-8.705,1.977-12.174c7.874-11.842,15.749-23.684,23.623-35.525   c2.346-3.376,6.352-6.458,10.462-6.532c0.05-0.001,0.101-0.001,0.151-0.001c1.05,0,2.105,0.191,3.116,0.474   c10.827-0.587,9.91-16.798-0.274-16.799c-0.333,0-0.675,0.017-1.028,0.053c-0.314,0.032-0.631,0.066-0.935,0.148   c-0.939,0.256-1.75,0.981-2.707,1.108c-0.105,0.014-0.212,0.021-0.32,0.021c-0.679,0-1.405-0.268-2.031-0.696   c-0.738-0.477-1.33-1.16-1.532-1.906c-0.253-0.932,0.103-1.96-0.025-2.925c-0.041-0.312-0.133-0.618-0.225-0.92   C71.005,4.026,67.843,2.29,64.617,2.29L64.617,2.29z"/></g></svg>