<svg xmlns="http://www.w3.org/2000/svg" xmlns:xlink="http://www.w3.org/1999/xlink" version="1.1" x="0px" y="0px" viewBox="0 0 512 640" enable-background="new 0 0 512 512" xml:space="preserve"><g><path d="M285.469,44.504c1.625-3.836,2.531-8.063,2.531-12.5c0-17.672-14.328-32-32-32s-32,14.328-32,32   c0,4.438,0.906,8.664,2.531,12.5C110.844,58.996,21.328,157.715,21.328,277.34c0,129.594,105.063,234.656,234.672,234.656   S490.672,406.934,490.672,277.34C490.672,157.715,401.156,58.996,285.469,44.504z M245.328,32.004   c0-5.883,4.797-10.664,10.672-10.664s10.672,4.781,10.672,10.664S261.875,42.668,256,42.668S245.328,37.887,245.328,32.004z    M406.844,428.184c-19.594,19.594-42.406,34.984-67.813,45.734c-23.031,9.734-47.328,15.266-72.359,16.484V469.34   c0-5.891-4.781-10.672-10.672-10.672s-10.672,4.781-10.672,10.672v21.063c-25.031-1.219-49.328-6.75-72.359-16.484   c-25.406-10.75-48.219-26.141-67.813-45.734c-19.609-19.594-34.984-42.406-45.734-67.813c-9.734-23.031-15.266-47.328-16.5-72.375   H64l0,0c5.891,0,10.672-4.766,10.672-10.656S69.891,266.668,64,266.668H42.922c1.234-25.039,6.766-49.336,16.5-72.359   c10.75-25.406,26.125-48.219,45.734-67.82c19.594-19.602,42.406-34.984,67.813-45.727c23.031-9.742,47.328-15.273,72.359-16.5   V85.34c0,5.891,4.781,10.664,10.672,10.664s10.672-4.773,10.672-10.664V64.262c25.031,1.227,49.328,6.758,72.359,16.5   c25.406,10.742,48.219,26.125,67.813,45.727c19.609,19.602,34.984,42.414,45.734,67.82c9.734,23.023,15.266,47.32,16.5,72.359H448   c-5.891,0-10.672,4.781-10.672,10.672s4.781,10.656,10.672,10.656h0.016h21.063c-1.234,25.047-6.766,49.344-16.5,72.375   C441.828,385.777,426.453,408.59,406.844,428.184z"/><path d="M256,309.34c8.547,0,16.578-3.328,22.625-9.375S288,285.887,288,277.34s-3.328-16.586-9.375-22.633   c-6.047-6.039-14.078-9.367-22.625-9.367l0,0l0,0c-8.547,0-16.578,3.328-22.625,9.367c-12.484,12.477-12.484,32.789,0,45.258   C239.422,306.012,247.453,309.34,256,309.34z M248.453,269.793c2.094-2.078,4.813-3.125,7.547-3.125s5.453,1.047,7.547,3.125   c4.156,4.172,4.156,10.922,0,15.078c-2.094,2.094-4.813,3.125-7.547,3.125s-5.453-1.031-7.547-3.125   C244.297,280.715,244.297,273.965,248.453,269.793z"/><path d="M128.344,404.996l188-67.313l67.313-188l-188,67.313L128.344,404.996z M348.359,184.98l-48.703,136.016l-136.016,48.688   l48.703-136L348.359,184.98z"/></g></svg>