<svg xmlns:dc="http://purl.org/dc/elements/1.1/" xmlns:cc="http://creativecommons.org/ns#" xmlns:rdf="http://www.w3.org/1999/02/22-rdf-syntax-ns#" xmlns:svg="http://www.w3.org/2000/svg" xmlns="http://www.w3.org/2000/svg" xmlns:sodipodi="http://sodipodi.sourceforge.net/DTD/sodipodi-0.dtd" xmlns:inkscape="http://www.inkscape.org/namespaces/inkscape" viewBox="0 0 48 60.00000125" version="1.1" x="0px" y="0px"><g transform="translate(0,-1004.3622)"><path d="m 36.9454,1006.1034 c 1.0559,0 2.1118,0.4048 2.9218,1.2148 0.8377,0.8409 1.2744,1.9991 1.1973,3.1836 l -0.057,0.8536 0.8535,-0.057 c 1.185,-0.077 2.3445,0.3569 3.1855,1.1953 1.62,1.62 1.62,4.2238 0,5.8438 -1.62,1.6199 -4.2237,1.6199 -5.8437,0 l -0.5313,-0.5313 -25.2265,25.2266 0.5312,0.5312 c 1.6201,1.62 1.6201,4.2238 0,5.8438 -1.62,1.6199 -4.2237,1.6199 -5.8437,0 -0.8385,-0.8411 -1.2745,-2.0005 -1.1973,-3.1856 l 0.057,-0.8535 -0.8535,0.059 c -1.185,0.077 -2.3445,-0.3588 -3.1855,-1.1972 -1.6199,-1.62 -1.6199,-4.2238 0,-5.8438 1.62,-1.6199 4.2237,-1.6199 5.8437,0 l 0.5313,0.5313 9.4922,-9.4922 0,0 6.2363,-6.2402 0,0 9.4941,-9.4961 -0.5312,-0.5293 c -1.62,-1.62 -1.62,-4.2239 0,-5.8438 0.81,-0.81 1.8659,-1.2148 2.9219,-1.2148 z" style="color:#000000;font-style:normal;font-variant:normal;font-weight:normal;font-stretch:normal;font-size:medium;line-height:normal;font-family:sans-serif;text-indent:0;text-align:start;text-decoration:none;text-decoration-line:none;text-decoration-style:solid;text-decoration-color:#000000;letter-spacing:normal;word-spacing:normal;text-transform:none;direction:ltr;block-progression:tb;writing-mode:lr-tb;baseline-shift:baseline;text-anchor:start;white-space:normal;clip-rule:nonzero;display:inline;overflow:visible;visibility:visible;opacity:1;isolation:auto;mix-blend-mode:normal;color-interpolation:sRGB;color-interpolation-filters:linearRGB;solid-color:#000000;solid-opacity:1;fill:#000000;fill-opacity:1;fill-rule:nonzero;stroke:none;stroke-width:1.5;stroke-linecap:butt;stroke-linejoin:miter;stroke-miterlimit:4;stroke-dasharray:none;stroke-dashoffset:0;stroke-opacity:1;color-rendering:auto;image-rendering:auto;shape-rendering:auto;text-rendering:auto;enable-background:accumulate"/><path d="m 10.9942,1006.1132 c 1.1174,-0.016 2.1924,0.4207 2.9824,1.2109 1.6199,1.6197 1.6199,4.2221 0,5.8418 l -0.5293,0.5312 9.4903,9.4903 -4.1172,4.1172 -9.4922,-9.4903 -0.5293,0.5313 c -1.62,1.6196 -4.2238,1.6196 -5.8438,0 -1.6209,-1.6199 -1.6209,-4.2258 0,-5.8457 0.8413,-0.8365 2.0015,-1.271 3.1856,-1.1934 l 0.8535,0.057 -0.057,-0.8536 c -0.077,-1.185 0.3586,-2.3445 1.1972,-3.1855 0.76,-0.7601 1.7845,-1.1948 2.8594,-1.2109 z" style="color:#000000;font-style:normal;font-variant:normal;font-weight:normal;font-stretch:normal;font-size:medium;line-height:normal;font-family:sans-serif;text-indent:0;text-align:start;text-decoration:none;text-decoration-line:none;text-decoration-style:solid;text-decoration-color:#000000;letter-spacing:normal;word-spacing:normal;text-transform:none;direction:ltr;block-progression:tb;writing-mode:lr-tb;baseline-shift:baseline;text-anchor:start;white-space:normal;clip-rule:nonzero;display:inline;overflow:visible;visibility:visible;opacity:1;isolation:auto;mix-blend-mode:normal;color-interpolation:sRGB;color-interpolation-filters:linearRGB;solid-color:#000000;solid-opacity:1;fill:#000000;fill-opacity:1;fill-rule:nonzero;stroke:none;stroke-width:1.5;stroke-linecap:butt;stroke-linejoin:miter;stroke-miterlimit:4;stroke-dasharray:none;stroke-dashoffset:0;stroke-opacity:1;color-rendering:auto;image-rendering:auto;shape-rendering:auto;text-rendering:auto;enable-background:accumulate"/><path d="m 29.1797,1029.4276 9.4922,9.4903 0.5313,-0.5293 c 1.6199,-1.6196 4.2238,-1.6196 5.8437,0 1.6199,1.6197 1.6199,4.2221 0,5.8418 -0.8411,0.8384 -2.0003,1.2745 -3.1855,1.1972 l -0.8535,-0.059 0.055,0.8535 c 0.078,1.1847 -0.3574,2.3443 -1.1954,3.1856 -1.6202,1.6187 -4.2242,1.618 -5.8437,0 -1.6198,-1.6197 -1.6198,-4.2221 0,-5.8418 l 0.5312,-0.5293 -9.4921,-9.4922 4.1171,-4.1172 z" style="color:#000000;font-style:normal;font-variant:normal;font-weight:normal;font-stretch:normal;font-size:medium;line-height:normal;font-family:sans-serif;text-indent:0;text-align:start;text-decoration:none;text-decoration-line:none;text-decoration-style:solid;text-decoration-color:#000000;letter-spacing:normal;word-spacing:normal;text-transform:none;direction:ltr;block-progression:tb;writing-mode:lr-tb;baseline-shift:baseline;text-anchor:start;white-space:normal;clip-rule:nonzero;display:inline;overflow:visible;visibility:visible;opacity:1;isolation:auto;mix-blend-mode:normal;color-interpolation:sRGB;color-interpolation-filters:linearRGB;solid-color:#000000;solid-opacity:1;fill:#000000;fill-opacity:1;fill-rule:nonzero;stroke:none;stroke-width:1.5;stroke-linecap:butt;stroke-linejoin:miter;stroke-miterlimit:4;stroke-dasharray:none;stroke-dashoffset:0;stroke-opacity:1;color-rendering:auto;image-rendering:auto;shape-rendering:auto;text-rendering:auto;enable-background:accumulate"/></g></svg>