<svg xmlns="http://www.w3.org/2000/svg" xmlns:xlink="http://www.w3.org/1999/xlink" version="1.1" x="0px" y="0px" viewBox="0 0 96 120" enable-background="new 0 0 96 96" xml:space="preserve"><g><path fill="#000000" d="M29.268,39.831c-0.512,0-1.023-0.195-1.414-0.586L16.369,27.761c-1.81,1.501-3.759,2.163-6.224,2.163   C4.551,29.924,0,25.471,0,20.037C0,14.52,4.488,10,10.005,10C10.014,10,10,10,10,10s0,0.046,0,0.037C10,4.502,14.519,0,20.053,0   c5.555,0,10.081,4.453,10.081,9.926c0,1.706-0.634,3.5-1.318,4.83l11.763,11.761c0.781,0.781,0.782,2.047,0.001,2.828   c-0.781,0.781-2.046,0.781-2.828,0l-14.13-14.129l1.096-1.395c0.497-0.632,1.424-2.528,1.424-3.895C26.143,6.659,23.418,4,20.069,4   c-3.329,0-6.037,2.708-6.037,6.037c0,0.653,0.083,1.252,0.246,1.782l1.113,3.61L11.78,14.32c-0.553-0.17-1.149-0.256-1.775-0.256   C6.693,14.064,4,16.758,4,20.069c0,3.229,2.757,5.855,6.146,5.855c1.718,0,3.045-0.376,4.744-2.298l1.408-1.593l14.384,14.384   c0.781,0.781,0.781,2.047,0,2.828C30.291,39.636,29.779,39.831,29.268,39.831z"/></g><g><path fill="#000000" d="M76.069,96c-5.474,0-9.927-4.519-9.927-10.074c0-2.466,0.662-4.416,2.165-6.227L57.824,69.216   c-0.781-0.781-0.781-2.047,0-2.828c0.781-0.781,2.047-0.781,2.828,0l13.384,13.384l-1.594,1.409c-1.924,1.701-2.3,3.028-2.3,4.746   c0,3.349,2.659,6.074,5.927,6.074c3.288,0,5.963-2.675,5.963-5.963c0-0.556-0.093-1.127-0.283-1.748l-1.108-3.609l3.608,1.11   c3.989,1.229,7.824-1.923,7.824-5.795c0-3.347-2.66-6.069-5.931-6.069c-1.367,0-3.262,0.927-3.894,1.423l-1.396,1.097l-13.13-13.13   c-0.781-0.781-0.781-2.047,0-2.828c0.781-0.781,2.047-0.781,2.828,0l10.761,10.761c1.33-0.686,3.124-1.323,4.83-1.323   c5.476,0,9.931,4.517,9.931,10.069c0,5.543-4.502,10.054-10.041,10.069C86.017,91.545,81.554,96,76.069,96z"/></g><g><path fill="#000000" d="M20.005,96.074c-5.543,0-10.055-4.502-10.069-10.042C4.454,86.018,0,81.554,0,76.069   c0-5.473,4.519-9.926,10.073-9.926c2.466,0,4.416,0.663,6.227,2.165L68.238,16.37c-1.5-1.81-2.162-3.759-2.162-6.225   C66.076,4.551,70.529,0,75.963,0C81.479,0,86,4.488,86,10.004C86,10.014,86,10,86,10s-0.046,0-0.037,0   C91.497,10,96,14.519,96,20.053c0,5.555-4.453,10.082-9.927,10.082c-1.706,0-3.5-0.633-4.83-1.318L28.751,81.31   c0.686,1.33,1.322,3.124,1.322,4.831C30.073,91.618,25.557,96.074,20.005,96.074z M15.318,80.639l-1.108,3.609   c-0.185,0.601-0.274,1.176-0.274,1.757c0,3.29,2.779,6.069,6.069,6.069c3.346,0,6.068-2.661,6.068-5.931   c0-1.37-0.926-3.262-1.422-3.893l-1.099-1.396l57.231-57.231l1.396,1.097c0.632,0.497,2.525,1.423,3.894,1.423   c3.268,0,5.927-2.725,5.927-6.074c0-3.329-2.708-6.037-6.037-6.037c-0.651,0-1.252,0.083-1.784,0.247l-3.606,1.107l1.107-3.606   c0.17-0.553,0.256-1.15,0.256-1.775C81.936,6.693,79.242,4,75.931,4c-3.229,0-5.854,2.757-5.854,6.145   c0,1.718,0.376,3.045,2.298,4.744l1.593,1.409L16.229,74.036l-1.408-1.593c-1.701-1.924-3.029-2.3-4.747-2.3   C6.725,70.143,4,72.801,4,76.069c0,3.288,2.675,5.963,5.963,5.963c0.557,0,1.128-0.093,1.747-0.283L15.318,80.639z"/></g></svg>