<svg xmlns="http://www.w3.org/2000/svg" xmlns:xlink="http://www.w3.org/1999/xlink" xmlns:a="http://ns.adobe.com/AdobeSVGViewerExtensions/3.0/" version="1.1" x="0px" y="0px" viewBox="-13.847 -13.865 100 125" enable-background="new -13.847 -13.865 100 100" xml:space="preserve"><path d="M71.867,9.575l-9.153-9.153c-0.562-0.562-1.559-0.562-2.121,0l-7.845,7.845c0,0-0.001,0-0.001,0s0,0-0.001,0.001  l-7.843,7.843c-0.001,0.001-0.001,0.001-0.002,0.001S44.9,16.115,44.9,16.115L38.115,22.9l-7.033-7.034l2.862-2.862  c0.586-0.585,0.586-1.536,0-2.121c-0.586-0.586-1.535-0.586-2.121,0L27.9,14.806c-0.586,0.585-0.586,1.535,0,2.121l8.094,8.094  L9.593,51.422c-0.114,0.114-0.209,0.245-0.281,0.39L0.158,70.117c-0.289,0.577-0.175,1.275,0.281,1.731  c0.288,0.288,0.672,0.439,1.061,0.439c0.228,0,0.457-0.052,0.67-0.158l18.307-9.152c0.144-0.072,0.276-0.167,0.39-0.281l26.4-26.4  l7.033,7.033l-2.862,2.861c-0.586,0.586-0.586,1.535,0,2.121c0.293,0.293,0.677,0.439,1.061,0.439s0.768-0.146,1.061-0.439  l3.923-3.922c0.281-0.281,0.439-0.662,0.439-1.061c0-0.397-0.158-0.779-0.439-1.061l-8.093-8.094l22.478-22.478  C72.453,11.111,72.453,10.161,71.867,9.575z M55.115,24.206l-7.032-7.032l5.725-5.725l7.032,7.032L55.115,24.206z M45.961,19.295  l7.032,7.032l-5.726,5.726l-3.516-3.515c0,0-0.001-0.001-0.001-0.001s-0.001,0-0.001-0.001l-1.322-1.322l-2.192-2.192L45.961,19.295  z M18.918,60.403L4.854,67.434l7.032-14.062l26.229-26.229l2.108,2.108l0.347,0.347L23.323,46.844c-0.586,0.586-0.586,1.535,0,2.121  c0.293,0.293,0.677,0.439,1.061,0.439s0.768-0.146,1.061-0.439l17.247-17.247l2.456,2.456L18.918,60.403z M62.96,16.36l-7.032-7.032  l5.725-5.725l7.032,7.032L62.96,16.36z"/></svg>