<svg xmlns="http://www.w3.org/2000/svg" xmlns:xlink="http://www.w3.org/1999/xlink" version="1.1" x="0px" y="0px" viewBox="0 0 100 125" enable-background="new 0 0 100 100" xml:space="preserve"><g><path d="M46.965,16.856c0.438,0.094,0.497,0.133,0.524,0.347c0.132,1.064,0.575,2.494,2.876,2.622   c0.228,0.013,0.436,0.019,0.626,0.019c1.714,0,2.124-0.513,2.572-1.074c0.157-0.197,0.262-0.414,0.363-0.624   c0.246-0.51,0.388-0.729,0.889-0.673c0.144,0.016,0.279,0.024,0.406,0.024c0.951,0,1.559-0.439,1.806-1.305   c0.178-0.621-0.452-1.151-1.008-1.619c-0.191-0.161-0.469-0.395-0.553-0.524c0.181-0.158,0.516-0.349,0.841-0.535   c0.649-0.371,1.21-0.69,1.311-1.095c0.16-0.643-0.879-2.645-2.031-3.283c-1.089-0.606-2.408-1.093-3.282-1.212   c-0.345-0.047-0.678-0.071-0.99-0.071c-1.399,0-2.382,0.474-3.432,1.046c-1.354,0.739-2.042,1.275-2.042,2.153   c0,0.255,0.029,0.526,0.057,0.785c0.038,0.351,0.086,0.788-0.005,0.924l-0.068,0.099c-0.349,0.496-1.277,1.814-0.397,3.071   C45.917,16.632,46.522,16.761,46.965,16.856z M46.33,13.217l0.078-0.112c0.215-0.324,0.162-0.815,0.105-1.334   c-0.026-0.237-0.054-0.484-0.054-0.718c0-0.508,0.418-0.899,1.719-1.609c1.009-0.55,1.88-0.971,3.136-0.971   c0.284,0,0.589,0.022,0.906,0.065c0.805,0.11,2.037,0.568,3.065,1.14c0.982,0.545,1.787,2.28,1.731,2.59   c-0.06,0.162-0.658,0.504-1.017,0.709c-0.408,0.233-0.794,0.454-1.019,0.678c-0.108,0.108-0.162,0.243-0.155,0.389   c0.015,0.348,0.358,0.637,0.793,1.003c0.351,0.295,0.879,0.74,0.812,0.976c-0.197,0.694-0.668,0.932-1.548,0.835   c-0.98-0.113-1.273,0.522-1.515,1.019c-0.09,0.187-0.176,0.364-0.303,0.524c-0.432,0.54-0.76,0.915-2.667,0.807   c-1.807-0.101-2.175-1.108-2.296-2.08c-0.084-0.679-0.597-0.788-1.009-0.876c-0.398-0.085-0.81-0.173-1.161-0.674   C45.375,14.778,45.852,13.896,46.33,13.217z"/><path d="M53.215,19.523c-0.331,0-0.702,0.172-1.131,0.371c-0.494,0.229-1.054,0.488-1.585,0.488c-0.505,0-1.078-0.187-1.538-0.337   c-0.363-0.119-0.65-0.212-0.873-0.212c-0.228,0-0.351,0.1-0.415,0.183c-0.1,0.131-0.12,0.307-0.06,0.523   c0.314,1.126,2.042,1.774,3.425,1.987c0.104,0.016,0.209,0.023,0.312,0.023c1.075,0,2.06-0.841,2.44-1.632   c0.219-0.456,0.221-0.855,0.004-1.125C53.699,19.669,53.518,19.523,53.215,19.523z M53.234,20.648   c-0.331,0.688-1.226,1.405-2.101,1.265c-1.415-0.217-2.548-0.774-2.871-1.434c0.14,0.034,0.325,0.094,0.506,0.153   c0.502,0.164,1.126,0.368,1.73,0.368c0.667,0,1.32-0.302,1.845-0.545c0.348-0.161,0.677-0.313,0.871-0.313   c0.069,0,0.085,0.02,0.1,0.037C53.351,20.225,53.36,20.388,53.234,20.648z"/><path d="M47.611,15.562c0.153,0.065,0.304,0.099,0.448,0.099c0,0,0,0,0,0c0.545,0,0.843-0.45,1.04-0.748l0.089-0.131   c0.317-0.444,0.388-1.536,0.035-1.965c-0.177-0.216-0.462-0.331-0.824-0.331c-0.485,0-1.127,0.226-1.364,0.604   c-0.221,0.355-0.258,1.098-0.083,1.656C47.08,15.149,47.308,15.432,47.611,15.562z M47.562,13.418   c0.079-0.126,0.465-0.312,0.838-0.312c0.166,0,0.292,0.038,0.346,0.104c0.137,0.167,0.122,0.956-0.06,1.212l-0.102,0.15   c-0.238,0.358-0.404,0.562-0.728,0.42c-0.168-0.072-0.262-0.275-0.312-0.432C47.399,14.101,47.473,13.56,47.562,13.418z"/><path d="M52.716,15.368C52.716,15.368,52.716,15.368,52.716,15.368c0.512,0,1.106-0.236,1.283-0.765   c0.124-0.375,0.05-0.878-0.198-1.347c-0.106-0.2-0.33-0.55-0.637-0.637c-0.239-0.068-0.621-0.115-0.949-0.115   c-0.337,0-0.597,0.046-0.771,0.138c-0.121,0.062-0.271,0.208-0.306,0.546c-0.057,0.578,0.231,1.532,0.688,1.897   C52.054,15.268,52.37,15.368,52.716,15.368z M51.729,13.191c0.031-0.016,0.156-0.068,0.486-0.068c0.303,0,0.621,0.046,0.775,0.09   c0.175,0.074,0.56,0.777,0.421,1.195c-0.065,0.197-0.358,0.341-0.695,0.341c-0.203,0-0.387-0.054-0.504-0.147   C51.867,14.326,51.676,13.335,51.729,13.191z"/><path d="M50.668,17.818c0.137,0,0.27-0.035,0.393-0.103c0.597-0.331,0.717-1.037,0.571-1.398c-0.109-0.273-0.664-0.88-0.831-1.059   l-0.219-0.235l-0.227,0.227c-0.235,0.235-0.988,1.047-0.797,1.617C49.711,17.329,50.153,17.818,50.668,17.818z M50.573,15.929   c0.234,0.265,0.448,0.531,0.485,0.619c0.039,0.097-0.003,0.462-0.298,0.626c-0.204,0.111-0.508-0.183-0.614-0.5   C50.12,16.562,50.312,16.24,50.573,15.929z"/><path d="M75.66,58.718c-0.044-0.179-0.09-0.361-0.122-0.536c-0.147-0.791-0.782-2.308-1.729-3.203   c-0.663-0.625-2.123-1.698-3.09-2.408c-0.319-0.235-0.582-0.429-0.738-0.549c-0.508-0.391-0.274-1.557-0.175-2.054   c0.054-0.269,0.316-1.006,0.62-1.86c0.464-1.303,1.1-3.088,1.447-4.483c0.562-2.244,1.121-5.571,1.067-6.357   c-0.042-0.652-0.524-0.677-0.756-0.688c-0.219-0.011-0.339-0.024-0.453-0.19c-0.121-0.176-0.099-0.254,0.186-0.64   c0.166-0.226,0.374-0.508,0.482-0.879c0.277-0.946-1.135-1.991-3.16-3.363l-0.093-0.063c-1.445-0.978-4.444-3.771-5.754-5.516   l-0.298-0.397c-1.116-1.493-1.79-2.394-2.729-2.958c-0.248-0.149-0.509-0.225-0.774-0.225c-0.552,0-1.021,0.32-1.435,0.602   c-0.19,0.13-0.37,0.252-0.537,0.331c-0.669,0.312-2.818,0.79-4.204,0.79c-0.986,0-1.936-0.604-2.563-1.002   c-0.208-0.132-0.385-0.244-0.525-0.314c-0.365-0.184-0.873-0.02-1.386,0.189c-0.416,0.168-0.868,0.34-1.189,0.267   c-0.814-0.181-2.563-1.128-3.532-1.913c-0.215-0.174-0.445-0.374-0.681-0.579c-0.866-0.753-1.761-1.531-2.452-1.531   c-0.078,0-0.153,0.01-0.269,0.044c-0.035,0.015-0.845,0.374-1.274,0.909c-0.231,0.289-0.394,0.784-0.566,1.309   c-0.144,0.438-0.293,0.891-0.454,1.111c-0.333,0.458-3.546,3.334-5.295,4.809c-0.739,0.624-1.987,1.624-3.128,2.538   c-1.464,1.173-2.372,1.902-2.573,2.104c-0.366,0.366-0.27,0.91-0.177,1.435c0.042,0.24,0.086,0.487,0.086,0.71   c0,0.44,0.165,0.776,0.31,1.073c0.127,0.262,0.249,0.508,0.268,0.824c0.047,0.756,0.144,4.114,0.144,4.99   c0,0.39,0.01,1.646,0.021,3.03c0.014,1.692,0.028,3.575,0.028,4.291c0,0.897,0.502,1.478,0.868,1.901   c0.192,0.222,0.374,0.432,0.385,0.58c0.029,0.387-0.606,0.918-1.116,1.344l-0.27,0.228c-0.492,0.421-2.89,2.731-3.178,3.712   c-0.222,0.752,0.034,2.245,0.487,2.852c0.211,0.282,0.436,0.342,0.586,0.342l0.089-0.007c0.107-0.017,0.197-0.056,0.272-0.114   c-0.173,0.661-0.155,1.127,0.054,1.424c0.095,0.136,0.278,0.303,0.655,0.332c0.631-0.001,0.875-0.97,1.202-2.566   c0.068-0.331,0.128-0.63,0.187-0.84c0.25-0.899,0.772-1.904,0.985-2.294c0.231-0.425,2.093-1.682,2.615-1.77   c0.16,0,0.664,0.374,0.965,0.598c0.545,0.404,1.06,0.786,1.48,0.786c0.167,0,0.314-0.059,0.426-0.17   c0.203-0.204,0.294-0.451,0.263-0.717c-0.07-0.6-0.752-1.08-1.042-1.259c-0.605-0.372-1.837-1.371-2.094-1.671   c-0.17-0.199-0.183-0.663-0.033-1.211c0.153-0.566,0.254-2.459,0.154-4.05c-0.096-1.532-0.143-3.188-0.191-4.951l-0.037-1.276   c-0.062-2.171-0.157-5.453-0.157-6.229c0-0.458,1.068-1.208,2.011-1.869c0.655-0.46,1.333-0.936,1.931-1.463   c1.663-1.468,4.294-4.955,5.014-6.032c0.375-0.562,0.979-0.623,1.22-0.623c0.322,0,0.517,0.09,0.542,0.111   c0.139,0.235,0.139,1.696-0.106,2.776c-0.063,0.276-0.148,0.611-0.245,0.989c-0.27,1.056-0.64,2.501-0.82,3.904   c-0.246,1.92-0.053,3.722,0.1,4.484c0.12,0.595,0.708,0.951,1.575,0.951c0.37,0,0.778-0.064,1.179-0.187   c0.795-0.242,2.388-0.625,3.275-0.625c0.276,0,0.39,0.042,0.42,0.033c-0.114,0.075-0.535,0.131-0.847,0.172   c-0.137,0.018-0.282,0.037-0.431,0.06c-0.693,0.104-2.55,0.639-3.031,1.345c-0.146,0.214-0.143,0.403-0.115,0.524   c0.04,0.173,0.188,0.463,0.736,0.463c0.627,0,1.618-0.372,2.273-0.617l0.287-0.106c0.487-0.173,1.279-0.115,1.375,0.308   c0.022,0.096,0.039,0.222-0.008,0.28c-0.047,0.06-0.22,0.16-0.846,0.16c-1.05,0-2.173,0.522-2.236,1.396   c-0.012,0.17-0.01,0.417,0.153,0.591c0.068,0.073,0.192,0.161,0.392,0.161c0.285,0,0.626-0.173,1.161-0.456   c0.248-0.131,0.54-0.203,0.824-0.203c0.404,0,0.641,0.146,0.65,0.247c0.014,0.151-0.082,0.285-0.241,0.487   c-0.159,0.201-0.339,0.429-0.339,0.736c0,0.26,0.155,0.534,0.335,0.85c0.203,0.357,0.433,0.762,0.391,1.084   c-0.086,0.639-0.473,1.343-1.012,1.836c-0.473,0.434-1.57,0.879-2.54,0.74c-0.468-0.066-1.208-0.792-1.804-1.374   c-0.57-0.559-1.062-1.041-1.471-1.168c-0.792-0.25-1.594,0.646-2.64,3.062c-0.676,1.558-0.115,2.645,0.281,3.155   c0.246,0.316,0.722,0.387,1.141,0.449c0.182,0.026,0.457,0.069,0.487,0.047c-0.01,0.108-0.291,0.402-0.459,0.579   c-0.226,0.237-0.459,0.481-0.615,0.747c-0.289,0.495-0.064,1.131,0.195,1.867c0.13,0.37,0.266,0.753,0.347,1.146   c0.134,0.643,0.176,1.332,0.224,2.13c0.035,0.578,0.075,1.232,0.157,1.937c0.195,1.659-0.154,7.013-0.383,8.339   c-0.065,0.381-0.142,0.718-0.209,1.014c-0.194,0.854-0.333,1.471,0.117,1.871c0.12,0.106,0.267,0.162,0.427,0.162   c0.323,0,0.627-0.218,0.949-0.449c0.225-0.161,0.479-0.345,0.64-0.357c0.138,0,0.427,0.415,0.583,0.639   c0.275,0.396,0.536,0.77,0.899,0.805l0.082,0.005c0.229,0,0.426-0.102,0.555-0.285c0.215-0.304,0.224-0.821,0.023-1.384   c-0.219-0.611-0.512-2.958-0.512-4.52c0-1.383-0.133-8.794-0.487-10.514c-0.25-1.214-0.007-2.395,0.35-2.889   c0.078-0.108,0.201-0.24,0.395-0.26c0.297,0,0.573,0.412,0.921,0.933c0.267,0.399,0.569,0.853,0.986,1.288   c1.167,1.221,2.141,1.446,3.118,1.585c1.191,0.169,2.596-0.536,3.203-1.597c0.614-1.077,1.512-1.871,1.735-1.88   c0.058,0.083,0.041,0.489,0.025,0.88c-0.013,0.297-0.027,0.657-0.027,1.087v9.97c0,1.782-0.273,3.514-0.75,4.752   c-0.512,1.331-0.52,2.335-0.025,3.161c0.154,0.258,0.339,0.388,0.547,0.388c0.409,0,0.613-0.459,0.829-0.944   c0.059-0.133,0.116-0.264,0.175-0.37c0.274-0.507,1.188-1.537,1.676-1.739c0.533-0.223,1.427-0.596,1.296-1.58   c-0.048-0.359-0.214-0.742-0.39-1.147c-0.211-0.486-0.449-1.038-0.525-1.644c-0.104-0.832-0.08-2.95-0.06-4.653   c0.007-0.612,0.014-1.176,0.014-1.617c0-0.845,0.147-2.168,0.291-3.447c0.136-1.213,0.264-2.359,0.239-2.925   c-0.036-0.829-0.272-1.267-0.463-1.619c-0.075-0.14-0.141-0.261-0.177-0.381c-0.098-0.327,0.196-1.126,0.684-1.859   c0.566-0.849,0.771-1.855,0.576-2.833c-0.144-0.716-0.825-1.162-1.781-1.162c-0.546,0-1.131,0.144-1.691,0.415   c-0.527,0.254-1.021,0.555-1.455,0.821c-0.594,0.361-1.154,0.703-1.46,0.703l-0.112-0.049c-0.122-0.232,0.01-0.935,0.318-1.708   c0.247-0.618-0.048-1.583-0.285-2.359c-0.081-0.264-0.152-0.492-0.178-0.647c-0.007-0.037-0.013-0.103,0.012-0.131   c0.048-0.055,0.352-0.1,0.634-0.044c0.11,0.022,0.281,0.091,0.481,0.169c0.436,0.17,0.978,0.381,1.414,0.381   c0.497,0,0.69-0.277,0.761-0.442c0.058-0.133,0.055-0.281-0.006-0.417c-0.199-0.441-1.025-0.739-2.263-1.145   c-0.3-0.098-0.678-0.222-0.907-0.317c0.122-0.042,0.364-0.079,0.703-0.055c0.176,0.013,0.415,0.066,0.669,0.122   c0.358,0.08,0.729,0.161,1.048,0.161c0.507,0,0.716-0.226,0.803-0.416c0.074-0.165,0.074-0.336-0.001-0.495   c-0.213-0.449-0.968-0.667-2.182-0.987l-0.825-0.217c-0.69-0.177-0.74-0.19-0.727-0.417c0.016-0.002,0.037-0.003,0.064-0.003   c0.332,0,0.95,0.198,1.496,0.373c0.344,0.11,0.678,0.217,0.953,0.283c0.236,0.056,0.503,0.131,0.777,0.209   c1.026,0.289,2.052,0.54,2.471,0.216c0.54-0.42,1.701-2.147,1.994-3.953c0.17-1.057-0.069-2.211-0.301-3.328   c-0.176-0.846-0.342-1.645-0.321-2.347c0.024-0.875,0.559-1.059,1.001-1.059c0.358,0,0.75,0.129,1,0.329   c0.579,0.463,3.016,2.91,4.795,4.697l1.056,1.058c1.829,1.831,3.838,4.231,3.958,5.075c0.107,0.75-0.511,2.507-1.13,3.823   c-0.016,0.033-1.573,3.365-2.142,6.088c-0.428,2.052-0.157,4.392-0.042,5.391c0.017,0.146,0.03,0.259,0.036,0.333   c0.044,0.53,0.048,0.574-0.258,1.184c-0.278,0.559-0.392,1.67-0.109,2.373c0.157,0.392,0.397,0.548,0.571,0.609l0.173,0.03   c0.529,0,0.791-0.709,1.175-1.867c0.1-0.303,0.238-0.721,0.35-0.958c0.102,0.293,0.159,0.909,0.196,1.312   c0.042,0.45,0.085,0.916,0.171,1.349c0.339,1.688,1.116,2.655,2.023,2.559c0.169-0.019,0.311-0.104,0.398-0.241   c0.234-0.363,0.052-0.976-0.265-1.946c-0.145-0.442-0.403-1.233-0.375-1.495c0.298,0.253,0.865,1.334,1.252,2.071   c0.846,1.612,1.353,2.526,1.974,2.526c0.001,0,0.003,0,0.004,0c0.182-0.021,0.326-0.109,0.42-0.255   c0.244-0.379,0.037-1.022-0.201-1.767c-0.008-0.024-0.016-0.049-0.024-0.075c0.021,0.046,0.042,0.091,0.062,0.134   c0.45,0.978,0.704,1.488,1.118,1.488h0.001l0.123-0.018C76.022,60.169,75.83,59.398,75.66,58.718z M74.691,58.636   c-0.425-0.924-0.646-1.367-1.021-1.367c-0.108,0-0.213,0.044-0.294,0.125c-0.302,0.302-0.122,0.859,0.125,1.632   c0.122,0.379,0.348,1.084,0.331,1.219c-0.284-0.095-0.977-1.413-1.39-2.201c-0.844-1.607-1.309-2.446-1.847-2.446   c-0.081,0-0.157,0.019-0.229,0.057c-0.586,0.312-0.285,1.23,0.062,2.294c0.152,0.466,0.407,1.246,0.323,1.384   c-0.601,0-1.078-1.039-1.284-2.068c-0.08-0.4-0.122-0.851-0.162-1.285c-0.089-0.967-0.16-1.73-0.629-1.965l-0.114-0.045H68.49   c-0.431,0-0.62,0.571-0.934,1.518c-0.146,0.443-0.412,1.245-0.596,1.427c-0.075-0.052-0.128-0.152-0.161-0.235   c-0.208-0.518-0.121-1.443,0.09-1.864c0.356-0.714,0.374-0.868,0.32-1.513c-0.007-0.079-0.021-0.199-0.038-0.352   c-0.112-0.97-0.374-3.241,0.032-5.194c0.554-2.653,2.081-5.918,2.097-5.951c0.228-0.484,1.355-2.96,1.183-4.174   c-0.17-1.187-2.678-3.968-4.134-5.425l-1.054-1.058c-1.79-1.797-4.241-4.258-4.848-4.744c-0.358-0.287-0.89-0.464-1.387-0.464   c-0.76,0-1.585,0.436-1.62,1.66c-0.022,0.774,0.15,1.608,0.334,2.491c0.221,1.061,0.448,2.159,0.296,3.103   c-0.284,1.753-1.437,3.308-1.764,3.562c-0.002,0.001-0.05,0.038-0.229,0.038c-0.413,0-1.093-0.192-1.692-0.361   c-0.283-0.08-0.558-0.158-0.803-0.216c-0.262-0.062-0.58-0.165-0.907-0.27c-0.617-0.198-1.255-0.403-1.684-0.403   c-0.591,0-0.668,0.396-0.677,0.517c-0.062,0.802,0.33,0.902,1.186,1.123l0.822,0.216c0.627,0.166,1.676,0.442,1.775,0.627   c-0.029,0.066-0.635,0.021-1.152-0.094c-0.276-0.061-0.538-0.119-0.759-0.134c-0.093-0.007-0.182-0.01-0.267-0.01   c-1.134,0-1.222,0.576-1.222,0.752c0,0.358,0.396,0.488,1.455,0.835c0.538,0.176,1.623,0.531,1.857,0.768   c-0.025,0.015-0.071,0.027-0.156,0.027c-0.32,0-0.822-0.196-1.19-0.338c-0.243-0.095-0.436-0.17-0.584-0.2   c-0.48-0.096-0.996-0.021-1.228,0.251c-0.097,0.115-0.202,0.318-0.15,0.633c0.029,0.174,0.106,0.431,0.196,0.727   c0.187,0.61,0.469,1.533,0.303,1.949c-0.236,0.589-0.587,1.662-0.293,2.225c0.099,0.188,0.258,0.312,0.463,0.36   c0.495,0.112,1.148-0.265,1.98-0.772c0.423-0.258,0.902-0.55,1.402-0.792c0.478-0.231,0.969-0.353,1.422-0.353   c0.652,0,1.091,0.248,1.174,0.664c0.163,0.816-0.009,1.657-0.484,2.369c-0.491,0.738-0.949,1.751-0.762,2.379   c0.055,0.182,0.138,0.336,0.226,0.499c0.169,0.312,0.359,0.665,0.389,1.352c0.022,0.518-0.103,1.64-0.235,2.829   c-0.146,1.296-0.295,2.636-0.295,3.516c0,0.439-0.007,1.001-0.014,1.61c-0.021,1.721-0.046,3.863,0.063,4.737   c0.088,0.693,0.346,1.288,0.573,1.812c0.164,0.38,0.307,0.709,0.344,0.983c0.058,0.437-0.251,0.646-0.921,0.926   c-0.674,0.28-1.688,1.476-1.981,2.016c-0.065,0.119-0.131,0.265-0.197,0.415c-0.064,0.146-0.174,0.393-0.26,0.519   c-0.006-0.009-0.012-0.019-0.019-0.029c-0.389-0.649-0.366-1.481,0.072-2.62c0.51-1.326,0.791-3.093,0.791-4.975v-9.97   c0-0.42,0.015-0.771,0.026-1.062c0.034-0.83,0.057-1.378-0.51-1.504l-0.124-0.013c-0.677,0-1.761,1.27-2.282,2.186   c-0.479,0.838-1.62,1.424-2.578,1.29c-0.898-0.127-1.727-0.32-2.758-1.399c-0.379-0.396-0.666-0.825-0.918-1.204   c-0.46-0.689-0.861-1.281-1.557-1.202c-0.292,0.035-0.56,0.211-0.776,0.51c-0.527,0.731-0.713,2.119-0.454,3.376   c0.328,1.588,0.475,8.73,0.475,10.389c0,1.523,0.287,3.998,0.548,4.728c0.154,0.434,0.115,0.732-0.009,0.842   c-0.102-0.032-0.325-0.353-0.458-0.544c-0.309-0.443-0.627-0.902-1.142-0.902c-0.001,0-0.002,0-0.003,0   c-0.329,0.027-0.643,0.253-0.947,0.472c-0.196,0.141-0.446,0.326-0.604,0.327c-0.177-0.157-0.071-0.624,0.076-1.271   c0.069-0.306,0.148-0.653,0.216-1.046c0.233-1.352,0.587-6.817,0.388-8.517c-0.081-0.687-0.118-1.305-0.154-1.901   c-0.05-0.822-0.093-1.533-0.236-2.22c-0.09-0.434-0.239-0.854-0.37-1.226c-0.2-0.566-0.389-1.102-0.244-1.349   c0.118-0.203,0.326-0.421,0.527-0.632c0.366-0.383,0.712-0.746,0.614-1.141c-0.098-0.392-0.556-0.459-0.999-0.525   c-0.258-0.038-0.649-0.096-0.743-0.215c-0.38-0.49-0.723-1.327-0.201-2.529c1.067-2.464,1.642-2.717,1.887-2.718   c0.266,0.083,0.774,0.581,1.222,1.02c0.728,0.712,1.481,1.45,2.149,1.545c1.047,0.149,2.352-0.26,3.046-0.897   c0.64-0.586,1.103-1.433,1.207-2.211c0.069-0.528-0.228-1.051-0.467-1.471c-0.107-0.189-0.254-0.448-0.254-0.544   c0-0.092,0.1-0.219,0.206-0.353c0.182-0.231,0.409-0.518,0.371-0.926c-0.043-0.484-0.552-0.81-1.266-0.81   c-0.382,0-0.778,0.098-1.113,0.275c-0.266,0.14-0.617,0.326-0.802,0.373c0-0.021,0-0.046,0.002-0.078   c0.032-0.437,0.788-0.82,1.619-0.82c0.503,0,1.055-0.047,1.331-0.394c0.161-0.202,0.203-0.473,0.126-0.805   c-0.124-0.534-0.683-0.879-1.426-0.879c-0.263,0-0.526,0.044-0.761,0.128l-0.296,0.109c-0.538,0.202-1.541,0.578-2.056,0.578   c0,0,0,0,0,0c-0.06,0-0.089-0.008-0.122-0.005c0.133-0.303,1.519-0.929,2.625-1.095c0.145-0.022,0.286-0.041,0.42-0.058   c0.654-0.086,1.127-0.148,1.313-0.484c0.063-0.114,0.114-0.305-0.005-0.566c-0.157-0.347-0.624-0.387-0.962-0.387   c-0.961,0-2.593,0.39-3.455,0.652c-0.343,0.104-0.689,0.16-0.999,0.16c-0.206,0-0.883-0.033-0.968-0.454   c-0.136-0.675-0.33-2.439-0.093-4.283c0.176-1.366,0.54-2.79,0.806-3.83c0.098-0.384,0.186-0.725,0.249-1.006   c0.207-0.909,0.357-2.853-0.016-3.301c-0.211-0.252-0.667-0.342-1.024-0.342c-0.722,0-1.354,0.328-1.735,0.898   c-0.619,0.927-3.272,4.467-4.909,5.912c-0.571,0.504-1.235,0.97-1.876,1.42c-1.271,0.891-2.274,1.595-2.274,2.375   c0,0.785,0.095,4.072,0.157,6.247l0.037,1.287c0.049,1.758,0.095,3.418,0.192,4.961c0.1,1.58-0.01,3.396-0.133,3.848   c-0.124,0.45-0.267,1.278,0.16,1.777c0.325,0.379,1.602,1.403,2.24,1.796c0.424,0.261,0.727,0.584,0.752,0.804   c0.006,0.054,0.001,0.12-0.074,0.195c-0.216,0-0.733-0.384-1.111-0.664c-0.52-0.386-0.969-0.72-1.334-0.72l-0.097,0.008   c-0.657,0.11-2.721,1.458-3.062,2.084c-0.224,0.409-0.771,1.464-1.039,2.425c-0.061,0.221-0.126,0.534-0.197,0.882   c-0.128,0.626-0.395,1.929-0.587,2.071c-0.115-0.01-0.144-0.051-0.156-0.068c-0.035-0.05-0.135-0.265,0.046-0.94   c0.054-0.205,0.153-0.513,0.263-0.86c0.37-1.159,0.649-2.081,0.613-2.519c-0.033-0.397-0.3-0.539-0.519-0.539   c-0.409,0-0.886,0.463-1.073,0.799c-0.124,0.224-0.131,0.594-0.131,1.179c-0.001,0.39-0.002,1.198-0.113,1.315   c-0.279-0.089-0.703-1.668-0.487-2.401c0.203-0.691,2.222-2.762,2.987-3.415l0.264-0.223c0.684-0.571,1.39-1.162,1.336-1.866   c-0.027-0.352-0.273-0.636-0.534-0.938c-0.336-0.389-0.717-0.83-0.717-1.496c0-0.716-0.015-2.601-0.028-4.295   c-0.011-1.381-0.021-2.636-0.021-3.025c0-0.883-0.097-4.267-0.145-5.029c-0.028-0.439-0.188-0.768-0.33-1.058   c-0.133-0.271-0.247-0.505-0.247-0.801c0-0.278-0.049-0.552-0.096-0.818c-0.065-0.369-0.133-0.751,0.005-0.889   c0.188-0.188,1.375-1.139,2.522-2.059c1.146-0.917,2.399-1.922,3.141-2.547c1.438-1.213,4.968-4.329,5.397-4.918   c0.218-0.299,0.375-0.777,0.541-1.282c0.141-0.428,0.301-0.914,0.462-1.115c0.334-0.417,1.012-0.731,1.059-0.721   c0.46,0,1.339,0.765,2.046,1.379c0.242,0.21,0.478,0.415,0.697,0.593c1.064,0.861,2.869,1.832,3.788,2.036   c0.493,0.108,1.079-0.104,1.557-0.298c0.367-0.149,0.73-0.283,0.876-0.209c0.125,0.062,0.284,0.164,0.47,0.283   c0.688,0.438,1.729,1.099,2.896,1.099c1.401,0,3.665-0.475,4.466-0.848c0.212-0.099,0.422-0.242,0.624-0.38   c0.508-0.346,1.028-0.667,1.542-0.358c0.835,0.501,1.445,1.316,2.552,2.797l0.298,0.398c1.343,1.789,4.42,4.654,5.902,5.657   l0.093,0.062c1.078,0.73,3.086,2.09,2.914,2.676c-0.078,0.267-0.235,0.48-0.388,0.686c-0.261,0.354-0.585,0.795-0.196,1.359   c0.295,0.424,0.693,0.444,0.932,0.457c0.059,0.002,0.144,0.005,0.149,0.001c0,0,0.015,0.026,0.021,0.11   c0.045,0.664-0.467,3.834-1.051,6.166c-0.341,1.366-0.97,3.135-1.43,4.426c-0.338,0.948-0.581,1.632-0.645,1.946   c-0.132,0.662-0.408,2.04,0.404,2.666c0.159,0.123,0.426,0.318,0.75,0.557c0.954,0.702,2.396,1.762,3.03,2.361   c0.838,0.79,1.418,2.177,1.546,2.865c0.035,0.187,0.084,0.382,0.131,0.572c0.059,0.235,0.148,0.596,0.152,0.789   C75.055,59.425,74.835,58.946,74.691,58.636z M26.701,57.998c0.008-0.197,0.008-0.403,0.008-0.608c0-0.308,0.001-0.773,0.054-0.88   c0.105-0.189,0.305-0.363,0.435-0.439C27.185,56.434,26.921,57.302,26.701,57.998z"/><path d="M30.367,34.687c0-0.171-0.139-0.31-0.31-0.31s-0.31,0.139-0.31,0.31c0,2.074,0.019,5.755,0.146,7.108   c0.145,1.542,0.434,4.481,0.434,4.481l0.616-0.061c0,0-0.289-2.937-0.434-4.478C30.417,40.753,30.367,38.25,30.367,34.687z"/><path d="M48.466,24.795c-0.012,0.001-1.169,0.137-1.933,0.003c-0.609-0.108-1.604-0.793-1.936-1.049   c-0.137-0.104-0.331-0.079-0.434,0.057c-0.104,0.135-0.079,0.33,0.057,0.434c0.054,0.041,1.322,1.011,2.206,1.167   c0.294,0.052,0.63,0.069,0.946,0.069c0.603,0,1.134-0.062,1.167-0.066c0.17-0.02,0.291-0.174,0.271-0.344   C48.79,24.897,48.635,24.771,48.466,24.795z"/><path d="M48.41,27.013c-0.036-0.006-0.902-0.149-2.256-0.197c-1.39-0.049-2.287,0.244-2.325,0.257   c-0.162,0.054-0.249,0.229-0.195,0.391c0.043,0.13,0.164,0.212,0.294,0.212c0.032,0,0.065-0.005,0.097-0.016   c0.008-0.002,0.84-0.272,2.107-0.225c1.31,0.046,2.167,0.187,2.176,0.188c0.167,0.028,0.328-0.085,0.356-0.254   C48.692,27.201,48.579,27.042,48.41,27.013z"/><path d="M48.262,28.984h-2.215c-0.701,0-2.129,0.331-2.189,0.345c-0.167,0.039-0.27,0.205-0.231,0.372   c0.033,0.143,0.16,0.239,0.301,0.239c0.023,0,0.047-0.002,0.071-0.008c0.014-0.003,1.418-0.328,2.049-0.328h2.215   c0.171,0,0.31-0.139,0.31-0.31S48.433,28.984,48.262,28.984z"/><path d="M43.542,32.493c0.045,0,0.091-0.01,0.134-0.031c0.011-0.005,1.177-0.563,1.898-0.697c0.72-0.135,2.21,0.002,2.226,0.004   c0.166,0.01,0.321-0.109,0.337-0.279c0.016-0.17-0.109-0.321-0.279-0.337c-0.063-0.006-1.593-0.147-2.397,0.004   c-0.801,0.149-2.002,0.724-2.053,0.748c-0.154,0.074-0.219,0.259-0.145,0.413C43.317,32.428,43.427,32.493,43.542,32.493z"/><path d="M47.815,33.318c-0.011,0-1.08,0.05-1.993,0.146c-0.79,0.083-1.909,0.616-2.387,0.844c-0.092,0.043-0.157,0.075-0.188,0.087   c-0.16,0.056-0.245,0.23-0.19,0.392c0.043,0.129,0.164,0.21,0.293,0.21c0.033,0,0.066-0.005,0.1-0.017   c0.032-0.011,0.122-0.052,0.251-0.113c0.449-0.214,1.501-0.715,2.186-0.787c0.894-0.094,1.945-0.143,1.956-0.144   c0.171-0.008,0.303-0.152,0.295-0.323C48.131,33.442,47.981,33.3,47.815,33.318z"/><path d="M56.58,25.329c-0.014,0.003-1.37,0.283-2.134,0.235c-0.303-0.018-0.736-0.055-1.172-0.093   c-1.198-0.104-1.568-0.128-1.716-0.091c-0.166,0.042-0.275,0.211-0.233,0.377c0.041,0.165,0.199,0.267,0.367,0.227   c0.144-0.018,0.943,0.053,1.528,0.104c0.442,0.039,0.883,0.077,1.189,0.095c0.067,0.004,0.139,0.006,0.213,0.006   c0.851,0,2.028-0.242,2.082-0.253c0.168-0.035,0.275-0.199,0.24-0.366C56.911,25.402,56.742,25.293,56.58,25.329z"/><path d="M51.683,27.917l0.131-0.002c0.355-0.007,1.442-0.032,2.296,0.05c0.946,0.089,2.15,0.641,2.162,0.646   c0.042,0.019,0.086,0.028,0.13,0.028c0.117,0,0.229-0.067,0.281-0.18c0.071-0.155,0.004-0.339-0.151-0.411   c-0.053-0.024-1.312-0.601-2.363-0.7c-0.889-0.085-2.003-0.061-2.368-0.052l-0.117,0.002c-0.171,0-0.31,0.139-0.31,0.31   S51.512,27.917,51.683,27.917z"/><path d="M54.218,29.756c-0.959-0.096-2.597-0.193-2.613-0.194c-0.191-0.013-0.316,0.121-0.327,0.291s0.12,0.317,0.29,0.327   c0.017,0.001,1.642,0.097,2.589,0.192c0.881,0.087,2.311,0.958,2.324,0.966c0.051,0.031,0.106,0.045,0.162,0.045   c0.104,0,0.205-0.053,0.264-0.148c0.09-0.146,0.044-0.336-0.102-0.426C56.741,30.771,55.24,29.857,54.218,29.756z"/><path d="M56.638,32.743c-0.021-0.003-2.061-0.289-2.757-0.473c-0.699-0.188-2.695-0.946-2.715-0.954   c-0.157-0.058-0.338,0.02-0.4,0.18c-0.061,0.16,0.02,0.338,0.18,0.399c0.083,0.031,2.045,0.777,2.776,0.973   c0.733,0.194,2.745,0.476,2.83,0.488c0.015,0.002,0.029,0.003,0.043,0.003c0.152,0,0.285-0.112,0.307-0.267   C56.925,32.923,56.807,32.767,56.638,32.743z"/><path d="M51.028,33.606c-0.143-0.09-0.329-0.049-0.423,0.09c-0.095,0.143-0.056,0.334,0.086,0.43   c0.208,0.139,2.104,0.819,2.998,1.009c0.92,0.192,2.032,0.387,2.032,0.387l0.107-0.609c-0.002,0-1.103-0.193-2.012-0.383   C52.934,34.342,51.205,33.702,51.028,33.606z"/><path d="M49.522,48.55c-0.207,0.25-0.49,0.594-0.636,0.618c-0.252,0.045-0.417-0.129-0.766-0.558   c-0.095-0.116-0.193-0.237-0.302-0.357c-0.562-0.617-1.312-0.387-2.035-0.166l-0.257,0.078c-0.029,0.009-0.057,0.021-0.081,0.037   c-0.184-0.009-0.335,0.129-0.335,0.309c0,0.78,0.755,1.749,0.987,2.028c0.504,0.606,1.873,1.703,2.966,1.703   c0.027,0,0.054-0.001,0.08-0.002c1.122-0.055,2.726-1.731,3.294-2.815c0.347-0.663,0.146-1.129-0.005-1.348   c-0.293-0.427-0.894-0.667-1.51-0.596C50.351,47.548,49.911,48.081,49.522,48.55z M50.996,48.096   c0.379-0.045,0.764,0.092,0.928,0.331c0.127,0.185,0.116,0.424-0.034,0.71c-0.539,1.03-2.01,2.446-2.776,2.483   c-0.837,0.027-2.092-0.94-2.54-1.478c-0.412-0.496-0.714-1.024-0.811-1.402l0.202-0.061c0.721-0.221,1.111-0.321,1.396-0.009   c0.1,0.11,0.191,0.223,0.279,0.331c0.353,0.434,0.718,0.882,1.349,0.778c0.374-0.062,0.669-0.42,1.012-0.834   C50.314,48.564,50.67,48.134,50.996,48.096z"/><path d="M70.663,42.253c0.056-0.162-0.03-0.338-0.192-0.393c-0.162-0.057-0.338,0.031-0.394,0.192c0,0-0.531,1.543-1.062,3.184   c-0.523,1.62-1.074,4.563-1.074,4.815c0,0.167,0.134,0.299,0.301,0.304c0.003,0,0.006,0,0.009,0c0.163,0,0.3-0.133,0.31-0.297   c0.015-0.25,0.54-3.071,1.045-4.632C70.133,43.792,70.662,42.254,70.663,42.253z"/><path d="M41.53,72.765c0.05,0,0.099-0.004,0.147-0.014l0.138-0.028l0.07-0.122c0.044-0.077,0.433-0.775,0.377-1.386   c-0.056-0.612-0.256-1.018-1.08-1.144c-0.942-0.153-0.979,0.643-1.02,1.087l-0.01,0.102c-0.043,0.431,0.275,0.833,0.414,0.986   C40.707,72.402,41.083,72.765,41.53,72.765z M40.779,71.216c0.048-0.521,0.098-0.541,0.216-0.541c0.028,0,0.059,0.003,0.093,0.008   c0.464,0.071,0.52,0.175,0.558,0.589c0.024,0.27-0.108,0.627-0.213,0.855c-0.111-0.039-0.261-0.135-0.407-0.296   c-0.182-0.201-0.267-0.408-0.256-0.509L40.779,71.216z"/><path d="M56.571,71.429l0.073,0.058c0.32,0.252,0.759,0.552,1.031,0.552l0.104-0.013c0.354-0.09,0.956-0.961,0.956-1.505   c0-0.662-0.925-1.179-1.636-1.126c-0.234,0.02-0.425,0.131-0.553,0.322c-0.344,0.52-0.064,1.443-0.005,1.624L56.571,71.429z    M57.063,70.059c0.019-0.028,0.037-0.043,0.152-0.05c0.446,0,0.9,0.328,0.9,0.512c0,0.27-0.344,0.768-0.466,0.886   c-0.111-0.047-0.338-0.19-0.548-0.349C56.979,70.64,56.961,70.213,57.063,70.059z"/><path d="M45.319,91.387c-0.442-0.22-0.772-0.588-0.794-0.724c-0.008-0.13,0.085-0.875,0.176-1.595   c0.159-1.255,0.375-2.974,0.405-4.042l0.014-0.491c0.063-2.102,0.18-6.013-0.368-7.612c-0.574-1.673-0.711-2.087-0.755-2.577   c-0.059-0.646-0.697-1.528-1.294-1.581c-0.64-0.048-2.104,0.478-2.38,1.099c-0.13,0.292-0.101,1.104-0.003,2.886   c0.045,0.82,0.092,1.669,0.073,2.09c-0.048,1.072-0.145,8.349-0.145,9.117c0,0.38,0.058,0.8,0.108,1.171   c0.043,0.318,0.104,0.754,0.087,0.828c-0.211,0.233-2.001,1.017-2.675,1.312l-0.371,0.162c-0.932,0.415-1.708,0.653-2.127,0.653   l-0.079-0.004c-0.158-0.015-0.503-0.029-0.914-0.029c-2.336,0-2.651,0.39-2.651,0.771c0,0.449,0.404,0.579,0.79,0.623   c-0.06,0.026-0.118,0.052-0.173,0.076c-0.898,0.395-1.454,0.656-1.548,1.031c-0.035,0.137-0.005,0.273,0.082,0.387   c0.177,0.228,0.497,0.254,0.722,0.254c0.333,0,0.75-0.066,1.193-0.137c0.615-0.099,1.29-0.189,1.566-0.107   c0.378,0.111,0.902,0.176,1.437,0.176c0.578,0,1.672-0.077,2.521-0.593c0.208-0.127,0.449-0.279,0.709-0.445   c0.992-0.63,2.49-1.582,3.107-1.582h0c0.268,0.017,0.876,0.197,1.466,0.372c0.851,0.252,1.731,0.514,2.257,0.514   c0.111,0,0.448,0,0.606-0.264c0.114-0.19,0.14-0.407,0.076-0.628C46.298,92.021,45.748,91.601,45.319,91.387z M45.755,92.77   L45.755,92.77c-0.437,0-1.311-0.26-2.082-0.488c-0.68-0.201-1.267-0.376-1.665-0.397c-0.717,0-1.92,0.728-3.417,1.679   c-0.257,0.163-0.495,0.314-0.699,0.438c-0.719,0.438-1.686,0.503-2.199,0.503c-0.471,0-0.943-0.057-1.262-0.15   c-0.409-0.122-1.141-0.023-1.838,0.09c-0.424,0.067-0.835,0.14-1.108,0.129c0.268-0.161,0.726-0.362,1.007-0.486   c0.747-0.328,1.009-0.453,1.086-0.686l0.043-0.206l-0.088-0.128c-0.135-0.195-0.381-0.204-0.723-0.218   c-0.104-0.004-0.279-0.011-0.409-0.018c0.29-0.082,0.894-0.163,1.875-0.163c0.385,0,0.708,0.014,0.857,0.027   c0.641,0.061,1.738-0.356,2.513-0.7l0.368-0.161c2.161-0.945,2.825-1.298,2.962-1.572c0.119-0.236,0.076-0.599-0.009-1.219   c-0.048-0.352-0.103-0.75-0.103-1.087c0-0.767,0.096-8.021,0.144-9.09c0.021-0.451-0.024-1.277-0.073-2.151   c-0.052-0.942-0.13-2.367-0.05-2.6c0.105-0.236,1.093-0.733,1.756-0.733c0.001,0,0.003,0,0.004,0   c0.213,0.019,0.692,0.587,0.731,1.02c0.05,0.562,0.192,0.992,0.786,2.723c0.512,1.493,0.393,5.478,0.335,7.393l-0.015,0.492   c-0.028,1.038-0.243,2.739-0.4,3.981c-0.161,1.275-0.199,1.615-0.174,1.763c0.073,0.442,0.637,0.942,1.13,1.188   c0.338,0.168,0.729,0.487,0.8,0.729c0.015,0.052,0.011,0.085,0.021,0.091C45.846,92.765,45.812,92.77,45.755,92.77z"/><path d="M43.895,79.851c-0.2-0.967-0.4-1.794-0.521-2.295c-0.053-0.221-0.09-0.375-0.105-0.448c-0.05-0.25-0.444-1.524-0.489-1.669   l-0.068-0.218H42.24l-0.081,0.058c-0.416,0.297-0.402,1.103-0.339,2.62l0.017,0.437c0.046,1.242,0.099,4.866-0.046,6.461   c-0.033,0.357-0.078,0.729-0.121,1.092c-0.188,1.556-0.323,2.68,0.374,2.807c0.063,0.012,0.125,0.017,0.187,0.017   c0.646,0,1.172-0.598,1.375-1.559C43.797,86.241,44.2,81.321,43.895,79.851z M43,87.024c-0.137,0.648-0.438,1.067-0.769,1.067   l-0.026,0.021c-0.155-0.202-0.014-1.375,0.08-2.15c0.044-0.369,0.09-0.747,0.123-1.109c0.148-1.623,0.096-5.286,0.049-6.541   l-0.018-0.438c-0.02-0.463-0.044-1.07-0.025-1.516c0.12,0.397,0.229,0.771,0.248,0.871c0.016,0.077,0.055,0.24,0.111,0.472   c0.12,0.497,0.318,1.317,0.516,2.275C43.573,81.35,43.181,86.164,43,87.024z"/><path d="M67.252,91.837c-0.148-0.669-1.057-0.938-1.604-0.755c-0.365,0.121-2.191,0.252-2.779,0.134   c-0.562-0.111-1.235-0.581-1.886-1.035l-0.312-0.216c-0.874-0.601-1.668-1.007-1.818-1.082c-0.125-0.062-0.328-0.281-0.476-0.466   c0.082-0.333,0.261-1.165,0.261-2.099c0-1.242-0.167-2.437-0.293-3.227c-0.097-0.616-0.24-2.07-0.366-3.353   c-0.06-0.601-0.115-1.165-0.161-1.594c-0.04-0.371-0.09-0.765-0.14-1.149c-0.115-0.896-0.246-1.91-0.16-2.196   c0.158-0.526-0.013-1.333-0.093-1.655c-0.118-0.476-0.913-0.489-1.003-0.489c-0.078,0-0.151,0.005-0.217,0.016   c-0.24,0.041-0.715,0.19-0.94,0.264l-0.011-0.005c-0.273-0.127-0.648-0.301-0.969-0.301c-0.254,0-0.405,0.108-0.486,0.198   c-0.138,0.152-0.191,0.376-0.161,0.664c0.046,0.441,0.046,1.826,0.046,3.165c0,1.411,0,2.744,0.05,3.194   c0.046,0.408-0.015,2.126-0.072,3.786c-0.063,1.804-0.122,3.508-0.071,4.013c0.072,0.736,0.239,1.533,0.492,2.362   c0.007,0.141-0.361,0.561-0.559,0.786c-0.316,0.361-0.614,0.702-0.697,1.031c-0.115,0.462-0.192,0.931,0.015,1.233   c0.07,0.102,0.203,0.229,0.502,0.261c0.28,0,0.692-0.232,1.396-0.644c0.429-0.25,1.016-0.593,1.233-0.611   c0.541,0,2.94,0.676,3.845,0.93l0.258,0.072c0.349,0.097,0.765,0.134,1.205,0.173c0.642,0.058,1.369,0.122,1.721,0.397   c0.759,0.597,1.779,0.597,2.455,0.597c0.199,0,0.358-0.058,0.471-0.172c0.18-0.181,0.177-0.431,0.175-0.632   c-0.001-0.192,0.003-0.313,0.073-0.368c0.119-0.093,0.255-0.168,0.382-0.241C66.9,92.63,67.37,92.363,67.252,91.837z    M66.252,92.286c-0.152,0.087-0.313,0.18-0.455,0.29c-0.319,0.247-0.315,0.618-0.313,0.863c0.001,0.072,0.008,0.185,0.029,0.174   c-0.001,0-0.016,0.005-0.056,0.005c-0.59,0-1.481,0-2.072-0.464c-0.496-0.39-1.285-0.46-2.049-0.527   c-0.411-0.037-0.8-0.071-1.094-0.152l-0.257-0.072c-1.758-0.495-3.461-0.953-4.012-0.953l-0.08,0.003   c-0.309,0.028-0.76,0.28-1.466,0.693c-0.372,0.217-0.935,0.546-1.075,0.566c-0.013-0.02-0.07-0.147,0.076-0.732   c0.046-0.185,0.332-0.511,0.562-0.773c0.42-0.479,0.815-0.933,0.687-1.365c-0.243-0.799-0.401-1.557-0.471-2.253   c-0.046-0.464,0.016-2.226,0.075-3.93c0.061-1.76,0.119-3.423,0.068-3.876c-0.046-0.416-0.046-1.794-0.046-3.126   c0-1.417,0-2.756-0.05-3.229c-0.014-0.131,0.005-0.18,0.026-0.18c0.176-0.029,0.502,0.146,0.714,0.244l0.236,0.107l0.114-0.038   c0.195-0.065,0.748-0.242,0.964-0.278c0.189-0.032,0.447,0.028,0.53,0.069c0.103,0.431,0.176,0.974,0.086,1.271   c-0.117,0.392-0.023,1.188,0.14,2.453c0.049,0.381,0.1,0.77,0.139,1.137c0.046,0.427,0.101,0.989,0.16,1.588   c0.127,1.291,0.271,2.755,0.371,3.389c0.133,0.835,0.285,1.945,0.285,3.13c0,1.096-0.274,2.072-0.277,2.082l-0.041,0.146   l0.089,0.121c0.071,0.1,0.447,0.601,0.786,0.771c0.145,0.071,0.904,0.46,1.746,1.037l0.307,0.214   c0.703,0.49,1.43,0.997,2.119,1.135c0.683,0.134,2.576,0.018,3.096-0.153c0.269-0.092,0.758,0.093,0.805,0.302   C66.664,92.046,66.486,92.153,66.252,92.286z"/><path d="M57.235,83.514c-0.102-0.669-0.195-1.288-0.236-1.616c-0.049-0.391-0.188-1.054-0.322-1.694   c-0.113-0.539-0.254-1.211-0.254-1.351c0-0.221-0.064-0.563-0.121-0.866c-0.035-0.191-0.07-0.358-0.07-0.434   c0-0.13-0.041-0.66-0.14-1.145c-0.103-0.512-0.299-1.19-0.808-1.19l-0.089,0.007c-0.354,0.061-0.374,0.327-0.358,2.393l0.004,0.658   c0,0.345,0.005,0.734,0.011,1.136c0.011,0.839,0.022,1.707-0.011,2.315c-0.048,0.915,0.14,3.961,0.294,4.793   c0.371,1.975,0.701,2.709,1.22,2.709c0.148,0,0.287-0.071,0.413-0.212c0.478-0.534,0.896-2.342,0.809-3.117   C57.521,85.401,57.372,84.414,57.235,83.514z M56.352,88.552c-0.107-0.161-0.328-0.654-0.607-2.146   c-0.135-0.723-0.333-3.716-0.284-4.646c0.033-0.629,0.021-1.508,0.011-2.357c-0.006-0.398-0.011-0.785-0.011-1.127l-0.004-0.663   c-0.002-0.365-0.006-0.829,0-1.214c0.093,0.406,0.156,0.915,0.156,1.154c0,0.093,0.036,0.306,0.081,0.547   c0.049,0.263,0.11,0.59,0.11,0.753c0,0.194,0.097,0.664,0.267,1.478c0.126,0.599,0.269,1.278,0.313,1.644   c0.042,0.332,0.137,0.958,0.239,1.633c0.135,0.891,0.283,1.868,0.338,2.362C57.042,86.686,56.62,88.171,56.352,88.552z"/><path d="M67.925,92.482l-0.211-0.033l-0.087,0.073c-0.246,0.129-1.05,0.587-1.056,1.083c-0.003,0.186,0.099,0.349,0.277,0.448   c0.279,0.156,0.598,0.245,0.872,0.245c0.301,0,0.532-0.109,0.651-0.308c0.177-0.296,0.073-0.771-0.016-1.004   C68.253,92.713,68.099,92.537,67.925,92.482z M67.854,93.658c-0.022,0.017-0.352,0.021-0.613-0.1c0.092-0.105,0.287-0.262,0.52-0.4   C67.829,93.314,67.88,93.58,67.854,93.658z"/></g></svg>