<svg xmlns="http://www.w3.org/2000/svg" xmlns:xlink="http://www.w3.org/1999/xlink" version="1.1" x="0px" y="0px" viewBox="0 0 100 125" enable-background="new 0 0 100 100" xml:space="preserve"><g><path d="M41.273,38.558c0.39,0.043,0.742,0.063,1.062,0.063c2.63,0,3.24-1.39,3.686-2.405c0.188-0.429,0.35-0.799,0.621-1.015   c1.494-1.196,1.94-3.953,1.418-5.778c-0.367-1.285-1.926-1.977-3.17-2.332c-0.273-0.078-0.638-0.117-1.085-0.117   c-0.593,0-1.217,0.07-1.502,0.136l-0.873,0.197c-2.89,0.644-5.387,1.199-5.845,4.178c-0.303,1.968,0.017,3.583,0.95,4.802   C37.504,37.552,39.098,38.316,41.273,38.558z M36.572,31.637c0.338-2.196,2.06-2.683,5.074-3.354l0.88-0.199   c0.2-0.046,0.756-0.11,1.277-0.11c0.344,0,0.632,0.028,0.811,0.079c1.413,0.403,2.295,0.987,2.482,1.645   c0.47,1.643-0.046,3.894-1.082,4.722c-0.462,0.37-0.691,0.891-0.912,1.394c-0.487,1.11-0.961,2.056-3.721,1.75   c-1.894-0.21-3.258-0.845-4.055-1.885C36.567,34.685,36.312,33.325,36.572,31.637z"/><path d="M54.833,35.882c0.305,2.129,1.171,2.425,4.457,2.678c0.142,0.011,0.281,0.016,0.419,0.016c0.001,0,0.001,0,0.001,0   c1.477,0,2.915-0.616,4.051-1.736c0.952-0.938,1.567-2.127,1.567-3.029c0-0.945-0.349-1.634-0.63-2.188   c-0.198-0.393-0.37-0.732-0.37-1.062c0-1.254-0.671-1.886-1.993-2.679c-1.328-0.798-4.413-0.823-4.854-0.812   c-3.652,0.73-5.385,2.176-5.149,4.295c0.152,1.368,0.868,2.157,1.499,2.854C54.318,34.758,54.739,35.222,54.833,35.882z    M57.578,28.061c0.866,0,3.316,0.123,4.243,0.679c1.279,0.768,1.507,1.145,1.507,1.821c0,0.569,0.243,1.049,0.479,1.514   c0.256,0.506,0.521,1.03,0.521,1.736c0,0.514-0.397,1.458-1.269,2.316c-0.549,0.541-1.714,1.448-3.35,1.448   c-0.113,0-0.228-0.004-0.344-0.013c-3.228-0.248-3.352-0.479-3.543-1.822c-0.138-0.963-0.704-1.587-1.252-2.192   c-0.581-0.641-1.13-1.246-1.246-2.292C53.263,30.691,53.071,28.972,57.578,28.061z"/><path d="M47.333,43.882c0.138,0.963,0.676,1.107,0.984,1.107c0.364,0,0.713-0.195,1.083-0.401c0.295-0.165,0.63-0.351,0.851-0.351   c0.054,0,0.085,0.012,0.104,0.021c0.171,0.085,0.327,0.171,0.473,0.251c0.477,0.262,0.927,0.509,1.475,0.509   c0.322,0,0.649-0.085,0.999-0.26c0.641-0.32,1.016-1.139,1.058-2.304c0.035-0.993-0.183-2.065-0.584-2.867   c-0.176-0.352-0.325-0.636-0.449-0.874c-0.411-0.784-0.498-0.965-0.498-1.403c0-0.886-1.138-2.296-1.366-2.57l-0.253-0.304   l-0.354,0.177c-0.091,0.046-2.243,1.146-2.522,3.385c-0.093,0.742-0.3,1.506-0.5,2.246C47.504,41.456,47.166,42.709,47.333,43.882z    M48.798,40.506c0.209-0.773,0.425-1.572,0.526-2.383c0.154-1.231,1.111-2.045,1.636-2.405c0.456,0.607,0.868,1.309,0.868,1.593   c0,0.699,0.191,1.065,0.612,1.867c0.122,0.233,0.268,0.512,0.44,0.857c0.708,1.416,0.587,3.522-0.026,3.829   c-0.578,0.289-0.909,0.119-1.546-0.231c-0.156-0.086-0.324-0.177-0.507-0.269c-0.582-0.29-1.323,0.036-1.889,0.351   c-0.196,0.109-0.493,0.274-0.51,0.317c0,0-0.048-0.064-0.08-0.291C48.185,42.771,48.482,41.671,48.798,40.506z"/><path d="M27.567,29.612c0.242,1.949,0.363,2.926,1.853,3.423l0.568,0.189l0.085-0.593c0.005-0.035,0.504-3.534,0.752-5.766   c0.072-0.645,0.191-1.304,0.357-1.966c0.184,1.036,0.42,2.328,0.656,3.509c0.512,2.559-0.086,4.271-0.613,4.798   c-0.169,0.169-0.572,0.416-0.998,0.677c-1.316,0.808-3.12,1.913-2.894,3.497c0.294,2.058,6.317,5.663,8.69,5.926   c1.387,0.151,2.078-0.499,2.622-1.011c0.494-0.464,0.755-0.661,1.296-0.505l1.219,0.348c-0.378,1.067-0.976,3.433,0.627,4.578   c1.836,1.312,5.175,2.843,8.541,2.843c3.136,0,6.537-1.174,8.277-2.334c2.021-1.348,0.725-5.735,0.7-5.735h-0.001   c0.068-0.16,0.689-0.523,1.456-0.523c0.351,0,0.845,0.077,1.214,0.446l0.306,0.31c0.729,0.742,1.255,1.278,2.301,1.278   c0.37,0,0.805-0.065,1.368-0.207c1.349-0.337,2.658-1.281,3.813-2.114c0.651-0.469,1.267-0.913,1.789-1.174   c0.827-0.414,1.374-0.687,1.667-1.147c0.402-0.633,0.145-1.347-0.193-2.023c-0.354-0.709-1.162-1.396-2.016-2.123   c-1.022-0.87-2.182-1.856-2.182-2.653c0-0.603-0.029-1.146-0.058-1.682c-0.055-1.017-0.106-1.978,0.054-3.256   c0.089-0.707,0.21-1.291,0.317-1.805c0.102-0.486,0.191-0.92,0.232-1.348c0.18,0.332,0.357,0.695,0.49,1.026   c0.148,0.372,0.082,1.727,0.024,2.923c-0.142,2.901-0.264,5.406,1.107,5.635l0.501,0.083l0.075-0.502   c0.008-0.05,0.751-4.988,1.236-6.687c0.524-1.835,0.272-8.454-1.003-12.536C70.535,9.346,62.248,3.32,50.589,3.061   c-12.602-0.271-19.013,6.015-21.152,8.688c-3.156,3.945-2.588,12.987-2.104,16.139C27.436,28.552,27.507,29.122,27.567,29.612z    M30.219,12.374c2.047-2.558,8.202-8.571,20.348-8.312C61.341,4.3,69.643,9.842,70.851,13.71   c1.263,4.039,1.439,10.415,0.997,11.964c-0.323,1.129-0.739,3.528-1.004,5.157c-0.068-1.068,0.004-2.553,0.043-3.363   c0.084-1.717,0.124-2.796-0.095-3.343c-0.011-0.027-1.106-2.71-1.933-2.71l-0.274,0.018l-0.15,0.183   c-0.181,0.22-0.153,0.511-0.097,0.792c0.139,0.695,0.007,1.329-0.176,2.205c-0.11,0.533-0.236,1.138-0.33,1.885   c-0.171,1.367-0.114,2.417-0.061,3.434c0.028,0.518,0.057,1.045,0.057,1.628c0,1.259,1.288,2.355,2.533,3.415   c0.74,0.63,1.506,1.281,1.77,1.809c0.398,0.797,0.286,0.973,0.244,1.039c-0.145,0.227-0.642,0.476-1.271,0.79   c-0.595,0.297-1.241,0.764-1.926,1.257c-1.083,0.78-2.31,1.664-3.472,1.955c-0.482,0.12-0.84,0.176-1.126,0.176   c-0.598,0-0.857-0.235-1.587-0.979l-0.312-0.316c-0.483-0.484-1.147-0.739-1.921-0.739c-0.923,0-1.871,0.386-2.255,0.919   c-0.189,0.263-0.243,0.558-0.152,0.832c0.348,1.042,0.768,3.962-0.303,4.676c-1.306,0.871-4.44,2.166-7.723,2.166   c-3.129,0-6.244-1.431-7.959-2.657c-1.369-0.979-0.1-3.855-0.086-3.884l0.243-0.53l-2.31-0.66   c-0.213-0.061-0.421-0.092-0.616-0.092c-0.755,0-1.225,0.441-1.639,0.83c-0.489,0.459-0.914,0.847-1.827,0.746   c-2.288-0.254-7.616-3.716-7.81-5.074c-0.133-0.933,1.407-1.878,2.426-2.503c0.499-0.306,0.93-0.57,1.182-0.823   c0.841-0.841,1.441-2.93,0.887-5.701c-0.312-1.561-0.624-3.317-0.814-4.412c-0.126-0.729-0.469-0.882-0.735-0.882   c-0.553,0-0.759,0.681-0.837,0.938c-0.293,0.974-0.496,1.949-0.602,2.898c-0.179,1.616-0.492,3.906-0.65,5.041   c-0.361-0.324-0.447-0.907-0.621-2.307c-0.062-0.499-0.134-1.079-0.238-1.755C27.887,24.908,27.302,16.019,30.219,12.374z"/><path d="M38.485,47.56c-0.21-0.674-0.541-1.016-0.981-1.016c-0.389,0-0.715,0.279-0.968,0.828   c-0.593,1.287-1.364,2.982-1.672,3.753c-0.555,1.388-0.295,3.862,1.588,6.015c1.578,1.803,5.241,5.757,6.327,6.571   c0.796,0.597,2.553,1.647,4.382,1.343c0.848-0.142,2.246,0.166,3.737,0.482c0.972,0.207,1.978,0.422,2.875,0.521   c0.15,0.017,0.298,0.024,0.443,0.024c2.131,0,3.849-1.725,4.528-2.744c0.283-0.425,1.861-1.728,3.254-2.877   c0.842-0.695,1.703-1.406,2.409-2.024c2.246-1.965,1.913-3.465,1.409-5.734c-0.14-0.628-0.198-1.304-0.254-1.958   c-0.144-1.666-0.277-3.427-2.055-3.179c-1.486,0.212-1.541,1.514-1.584,2.56c-0.025,0.604-0.052,1.228-0.293,1.711   c-0.229,0.458-0.39,0.848-0.537,1.203c-0.325,0.788-0.561,1.358-1.369,2.167c-1.232,1.232-1.911,1.911-4.29,2.625   c-2.326,0.697-4.105,0.771-6.758,0.238c-1.131-0.227-1.817-0.255-2.421-0.279c-0.737-0.031-1.319-0.055-2.519-0.455   c-1.929-0.643-2.871-2.493-3.934-5.684C39.265,50.04,38.799,48.572,38.485,47.56z M43.42,58.285   c1.333,0.444,2.01,0.472,2.793,0.505c0.568,0.023,1.212,0.05,2.267,0.261c2.821,0.563,4.756,0.484,7.242-0.262   c2.621-0.786,3.452-1.617,4.71-2.875c0.949-0.949,1.245-1.665,1.587-2.493c0.139-0.336,0.29-0.704,0.507-1.137   c0.337-0.675,0.369-1.441,0.397-2.117c0.05-1.193,0.146-1.528,0.726-1.611c0.645-0.091,0.773,0.59,0.917,2.274   c0.057,0.654,0.12,1.395,0.274,2.088c0.487,2.19,0.709,3.19-1.091,4.766c-0.7,0.612-1.554,1.316-2.388,2.005   c-1.919,1.584-3.108,2.583-3.449,3.094c-0.564,0.846-2.152,2.498-4.028,2.28c-0.849-0.094-1.83-0.303-2.778-0.505   c-1.299-0.276-2.525-0.538-3.483-0.538c-0.228,0-0.438,0.016-0.626,0.047c-1.491,0.25-2.942-0.65-3.618-1.157   c-0.925-0.693-4.33-4.321-6.173-6.429c-1.606-1.836-1.858-3.871-1.412-4.985c0.3-0.751,1.064-2.429,1.652-3.706   c0.013-0.028,0.025-0.053,0.037-0.075c0.016,0.04,0.032,0.086,0.049,0.141c0.315,1.016,0.783,2.492,1.324,4.112   C39.801,54.811,40.863,57.433,43.42,58.285z"/><path d="M9.639,71.378c1.696,1.297,4.194,1.246,6.154,1.212c0.832-0.013,1.519-0.016,1.928,0.044   c1.109,0.158,4.366,1.328,7.516,2.46c1.841,0.661,3.74,1.343,5.393,1.895c2.297,0.766,3.926,1.122,5.125,1.122   c0.986,0,1.596-0.235,2.184-0.497c0.474-0.21,1.165-0.485,1.885-0.772c1.055-0.42,2.146-0.854,2.769-1.167   c0.809-0.403,1.302-1.127,1.2-1.759c-0.074-0.46-0.436-0.779-0.967-0.855c-0.777-0.111-3.905-1.164-7.602-2.671   c-3.331-1.356-13.623-7.385-15.493-9.753c-0.579-0.733-0.968-1.555-1.344-2.349c-0.824-1.737-1.675-3.534-4.435-3.633l-0.153-0.002   c-1.156,0-2.132,0.49-2.823,1.419c-1.142,1.536-1.29,3.938-1.063,5.122c-0.299,0.357-0.958,1.209-2.064,2.958   C6.308,66.587,6.994,69.356,9.639,71.378z M8.692,64.686c1.476-2.334,2.114-2.998,2.119-3.003l0.21-0.211l-0.085-0.285   c-0.217-0.723-0.192-3.13,0.84-4.518c0.509-0.685,1.17-1.017,2.021-1.017l0.117,0.002c2.152,0.077,2.746,1.329,3.567,3.062   c0.4,0.844,0.814,1.717,1.463,2.539c1.992,2.522,12.407,8.638,15.901,10.06c3.421,1.395,6.863,2.596,7.838,2.735   c0.082,0.012,0.116,0.025,0.122,0.029c0.015,0.1-0.158,0.449-0.661,0.7c-0.585,0.294-1.656,0.721-2.692,1.133   c-0.733,0.292-1.437,0.573-1.92,0.787c-0.523,0.232-0.985,0.411-1.778,0.411c-1.088,0-2.616-0.341-4.808-1.071   c-1.647-0.549-3.538-1.229-5.372-1.887c-3.489-1.253-6.502-2.335-7.712-2.509c-0.311-0.044-0.686-0.064-1.215-0.064   c-0.274,0-0.567,0.006-0.872,0.011c-1.802,0.032-4.097,0.089-5.529-1.007C8.016,68.879,7.436,66.674,8.692,64.686z"/><path d="M14.492,69.03c0.028,0.005,0.056,0.007,0.083,0.007c0.24,0,0.452-0.173,0.493-0.418c0.045-0.272-0.138-0.529-0.411-0.575   c-1.093-0.183-2.365-1.68-2.762-2.241c-0.16-0.226-0.471-0.277-0.697-0.119c-0.226,0.159-0.279,0.471-0.12,0.696   C11.146,66.477,12.763,68.741,14.492,69.03z"/><path d="M15.783,69.119l1.415,0.645c0.067,0.03,0.137,0.045,0.207,0.045c0.19,0,0.372-0.108,0.456-0.293   c0.114-0.251,0.003-0.548-0.248-0.662l-1.415-0.645c-0.251-0.113-0.548-0.004-0.662,0.248   C15.421,68.708,15.532,69.005,15.783,69.119z"/><path d="M20.122,70.953l2.188,0.514c0.039,0.01,0.077,0.014,0.115,0.014c0.227,0,0.432-0.155,0.486-0.386   c0.063-0.269-0.104-0.538-0.373-0.601l-2.188-0.514c-0.268-0.069-0.538,0.103-0.601,0.372   C19.687,70.621,19.853,70.891,20.122,70.953z"/><path d="M83.724,70.194c1.406-0.033,2.861-0.067,3.955-0.408c2.457-0.77,2.796-2.726,2.796-4.724c0-1.266-0.478-1.984-0.94-2.681   c-0.366-0.551-0.712-1.071-0.87-1.915c-0.115-0.615-0.003-1.312,0.115-2.049c0.245-1.529,0.522-3.264-1.368-4.458   c-0.599-0.378-1.234-0.569-1.889-0.569c-1.869,0-3.498,1.524-4.807,2.749l-0.344,0.321c-0.396,0.365-1.023,0.969-1.773,1.69   c-2.273,2.188-6.078,5.851-7.4,6.605c-1.761,1.006-16.153,7.503-16.263,7.554c-8.101,2.928-29.665,10.523-32.126,10.523   c-3.088,0-6.047-1.212-8.534-2.396c-2.966-1.413-4.925-2.318-7.168-1.391c-0.081,0.05-1.966,1.245-1.385,4.004   c0.296,1.405,1.011,2.257,1.642,3.008c0.511,0.608,0.953,1.135,1.055,1.848c0.089,0.626-0.062,1.249-0.222,1.908   c-0.261,1.076-0.557,2.296,0.136,3.768c1.072,2.277,3.429,3.445,5.123,3.754c0.144,0.026,0.292,0.039,0.443,0.039   c1.599,0,3.429-1.43,4.269-2.39c0.646-0.737,4.512-2.326,6.164-3.005c0.497-0.204,0.895-0.368,1.125-0.471   c1.121-0.497,20.385-7.93,23.522-9.125c3.157-1.202,29.515-11.213,31.255-11.834C81.062,70.256,82.415,70.225,83.724,70.194z    M48.623,81.451c-2.462,0.937-22.385,8.618-23.572,9.145c-0.226,0.101-0.614,0.26-1.1,0.46c-2.902,1.192-5.798,2.427-6.537,3.271   c-0.8,0.914-2.56,2.246-3.78,2.024c-1.176-0.214-3.424-1.128-4.397-3.195c-0.543-1.153-0.312-2.102-0.069-3.105   c0.175-0.723,0.356-1.469,0.24-2.285c-0.142-0.997-0.72-1.685-1.279-2.351c-0.583-0.693-1.185-1.41-1.429-2.57   c-0.43-2.044,0.871-2.908,0.854-2.908c1.644-0.658,3.562,0.104,6.291,1.403c2.588,1.233,5.677,2.494,8.964,2.494   c3.139,0,31.27-10.15,32.502-10.597c0.594-0.269,14.581-6.582,16.383-7.611c1.431-0.817,5.142-4.39,7.598-6.754   c0.743-0.716,1.365-1.313,1.758-1.677l0.35-0.325c1.18-1.104,2.649-2.479,4.123-2.479c0.469,0,0.912,0.136,1.354,0.415   c1.269,0.801,1.174,1.835,0.914,3.454c-0.126,0.789-0.257,1.605-0.109,2.391c0.195,1.045,0.634,1.703,1.02,2.285   c0.433,0.65,0.773,1.163,0.773,2.127c0,1.972-0.343,3.221-2.095,3.769c-0.959,0.3-2.342,0.332-3.68,0.363   c-1.451,0.034-2.823,0.065-3.802,0.415C78.047,70.27,50.909,80.579,48.623,81.451z"/><path d="M22.302,88.767c-0.043,0.011-1.09,0.277-3.286,1.182c-2.2,0.905-3.871,1.984-4.472,2.886   c-0.153,0.23-0.091,0.54,0.139,0.693c0.085,0.057,0.182,0.084,0.277,0.084c0.162,0,0.32-0.078,0.417-0.223   c0.365-0.548,1.636-1.535,4.021-2.517c2.116-0.87,3.138-1.133,3.148-1.135c0.268-0.068,0.43-0.34,0.363-0.607   S22.57,88.702,22.302,88.767z"/><path d="M26.083,86.993l-2.059,0.9c-0.253,0.11-0.369,0.405-0.258,0.658c0.082,0.188,0.266,0.3,0.458,0.3   c0.067,0,0.135-0.014,0.2-0.042l2.059-0.9c0.253-0.11,0.369-0.405,0.258-0.658C26.631,86.999,26.336,86.885,26.083,86.993z"/><path d="M12.984,84.578c-0.116-0.037-0.275-0.087-0.32-0.117c-0.231-0.153-0.541-0.091-0.693,0.139   c-0.153,0.229-0.091,0.54,0.139,0.693c0.164,0.109,0.363,0.172,0.574,0.238c0.515,0.163,0.831,0.291,0.881,0.694   c0.073,0.591-0.68,1.269-0.95,1.459c-0.225,0.159-0.279,0.471-0.121,0.696c0.097,0.139,0.252,0.213,0.409,0.213   c0.099,0,0.199-0.029,0.286-0.091c0.157-0.109,1.528-1.109,1.368-2.401C14.423,85.033,13.487,84.737,12.984,84.578z"/><path d="M84.151,64.974c0,0-6.049,2.06-9.009,3.091c-2.2,0.766-4.728,2.214-6.085,2.992c-0.378,0.218-0.77,0.442-0.865,0.481   c-0.258,0.09-0.396,0.37-0.31,0.63c0.07,0.209,0.266,0.342,0.475,0.342c0.053,0,0.105-0.008,0.158-0.025   c0.145-0.049,0.38-0.182,1.04-0.56c1.329-0.763,3.803-2.181,5.915-2.916c2.958-1.03,9.003-3.088,9.003-3.088L84.151,64.974z"/><path d="M84.064,63.18c0.078,0.045,0.163,0.066,0.248,0.066c0.173,0,0.342-0.09,0.434-0.252c0.138-0.239,0.055-0.545-0.186-0.682   c-0.469-0.269-0.339-1.97,0.092-3.122c0.097-0.259-0.035-0.547-0.294-0.644c-0.258-0.097-0.547,0.034-0.644,0.294   C83.385,59.726,82.739,62.421,84.064,63.18z"/><path d="M93.869,81.905c-0.431-0.669-1.243-1.008-2.415-1.008c-1.533,0-3.535,0.571-5.145,1.03   c-0.536,0.153-1.037,0.296-1.475,0.405c-0.963,0.241-1.972,0.358-3.084,0.358c-1.443,0-3.044-0.191-5.188-0.621   c-1.781-0.355-4.827-1.361-7.515-2.248c-2.128-0.702-3.965-1.309-4.838-1.482c-1.47-0.296-3.202,1.03-4.552,2.081   c-0.579,0.451-1.179,0.917-1.429,1.006c-0.085,0.016-2.101,0.396-2.896,0.659c-0.33,0.11-0.517,0.401-0.464,0.725   c0.142,0.877,2.807,2.18,4.096,2.18c1.226,0,9.67,2.925,12.823,4.088c2.365,0.871,7.157,4.136,9.109,5.827   c1.21,1.048,3.534,2.806,5.504,2.806c0.586,0,1.104-0.153,1.542-0.456c1.867-1.294,2.815-4.329,2.52-5.666   c-0.189-0.853,0.735-2.85,1.941-4.189C93.277,86.431,95.321,84.163,93.869,81.905z M89.486,91.806   c0.203,0.914-0.568,3.557-2.113,4.627c-1.114,0.774-3.342-0.136-5.821-2.283c-2.007-1.738-6.955-5.103-9.418-6.009   c-0.112-0.042-11.42-4.15-13.169-4.15c-0.82,0-2.149-0.657-2.786-1.104c0.894-0.225,2.231-0.478,2.302-0.494   c0.479-0.16,1.058-0.611,1.792-1.182c1.186-0.924,2.666-2.105,3.741-1.891c0.813,0.162,2.712,0.788,4.721,1.451   c2.715,0.896,5.792,1.912,7.632,2.279c2.212,0.443,3.872,0.641,5.385,0.641c1.195,0,2.283-0.127,3.326-0.388   c0.447-0.112,0.959-0.258,1.507-0.414c1.549-0.442,3.477-0.992,4.87-0.992c0.81,0,1.34,0.185,1.573,0.549   c0.913,1.42-0.116,2.897-1.366,4.284C90.562,87.952,89.159,90.336,89.486,91.806z"/><path d="M87.104,88.385c-0.262-0.053-0.521,0.129-0.581,0.392c-0.005,0.023-0.141,0.566-1.264,0.754   c-1.442,0.238-3.521-0.405-5.564-1.728c-2.243-1.452-5.57-2.103-5.71-2.13c-0.276-0.052-0.534,0.125-0.586,0.396   s0.126,0.533,0.396,0.586c0.033,0.006,3.274,0.64,5.356,1.987c1.939,1.256,3.884,1.938,5.472,1.938c0.278,0,0.546-0.021,0.8-0.063   c1.885-0.314,2.079-1.529,2.087-1.58C87.549,88.671,87.368,88.433,87.104,88.385z"/><path d="M69.572,84.542l-1.93-0.771c-0.255-0.104-0.547,0.022-0.649,0.278s0.021,0.547,0.278,0.649l1.93,0.771   c0.061,0.024,0.124,0.036,0.186,0.036c0.198,0,0.386-0.119,0.464-0.314C69.953,84.936,69.829,84.645,69.572,84.542z"/><path d="M51.042,50.109c-0.492-0.231-1.137-0.022-1.621,0.531c-0.446,0.509-0.666,1.158-0.588,1.737   c0.178,1.333,1.068,1.495,1.719,1.613c0.075,0.014,0.148,0.02,0.218,0.02c0,0,0,0,0,0c0.469,0,0.863-0.273,1.108-0.771   c0.158-0.322,0.242-0.729,0.254-1.153c0.165,0.584,0.556,1.351,1.571,1.351c1.071,0,1.656-0.979,1.747-1.888   c0.007-0.067-0.003-0.138-0.008-0.206c0.14,0.294,0.38,0.557,0.871,0.557c0.105,0,0.23-0.012,0.383-0.028   c0.751-0.084,1.183-0.554,1.191-1.289c0.263,0.304,0.605,0.503,0.976,0.503c0.107,0,0.212-0.017,0.311-0.05   c0.609-0.203,0.996-0.867,0.899-1.545c-0.068-0.475-0.466-1.432-1.12-1.601c-0.418-0.11-0.853,0.039-1.147,0.393   c-0.255,0.307-0.381,0.739-0.363,1.173c-0.205-0.261-0.455-0.472-0.706-0.556c-0.428-0.145-0.877,0.008-1.17,0.393   c-0.281,0.369-0.392,0.915-0.31,1.41c-0.304-0.603-0.905-1.123-1.419-1.198c-0.527-0.082-1.024,0.129-1.385,0.555   c-0.285,0.336-0.438,0.765-0.447,1.193C51.812,50.698,51.43,50.292,51.042,50.109z M50.981,52.796   c-0.04,0.08-0.119,0.214-0.211,0.214l-0.04-0.004c-0.654-0.118-0.828-0.174-0.906-0.762c-0.039-0.288,0.099-0.659,0.35-0.946   c0.182-0.207,0.353-0.284,0.438-0.284c0.001,0,0.002,0,0.003,0c0.211,0.1,0.525,0.443,0.525,0.984   C51.141,52.295,51.081,52.593,50.981,52.796z M58.573,48.923c0.018-0.021,0.062-0.069,0.107-0.073   c0.118,0.065,0.357,0.468,0.402,0.782c0.03,0.213-0.095,0.411-0.218,0.453l-0.002,0.5v-0.5c-0.09,0-0.348-0.164-0.418-0.551   C58.397,49.275,58.476,49.041,58.573,48.923z M56.417,49.847c0.149,0.06,0.474,0.49,0.474,0.714c0,0.212-0.023,0.284-0.306,0.315   c-0.096,0.011-0.177,0.021-0.246,0.022c-0.02-0.047-0.05-0.131-0.091-0.281C56.151,50.262,56.321,49.882,56.417,49.847z    M53.216,50.706c0.067-0.08,0.208-0.212,0.463-0.212c0.005,0,0.01,0,0.015,0c0.22,0.032,0.797,0.604,0.763,0.955   c-0.034,0.342-0.235,0.987-0.753,0.987c-0.276,0-0.537-0.078-0.694-1.02C52.97,51.18,53.051,50.901,53.216,50.706z"/><path d="M53.705,53.564c-0.48-0.065-0.932,0.124-1.278,0.504c-0.372,0.407-0.582,1.011-0.534,1.537   c0.086,0.944,0.633,1.896,1.661,1.896l0.125-0.005c1.013-0.077,1.616-0.679,1.696-1.654c0.12,0.453,0.381,0.911,0.997,0.911   l0.144-0.009c0.787-0.099,1.375-0.97,1.375-1.684c0-0.76-0.801-1.494-1.353-1.665c-0.35-0.109-0.697-0.018-0.932,0.238   c-0.311,0.339-0.36,0.878-0.351,1.281C54.966,54.135,54.244,53.635,53.705,53.564z M53.603,56.5l-0.049,0.501v-0.5   c-0.569,0-0.661-0.945-0.665-0.985c-0.023-0.252,0.091-0.57,0.276-0.773c0.077-0.085,0.201-0.186,0.401-0.186   c0.003,0,0.007,0,0.01,0c0.236,0.03,0.814,0.442,0.814,1.066C54.391,56.218,54.177,56.455,53.603,56.5z M56.312,54.379   c0.238,0.12,0.579,0.486,0.579,0.682c0,0.274-0.276,0.658-0.495,0.69c-0.032-0.058-0.091-0.221-0.132-0.673   C56.232,54.732,56.271,54.495,56.312,54.379z"/><path d="M58.71,55.176c0.146,0,0.279-0.037,0.401-0.078c0.558-0.187,0.904-0.68,0.904-1.287c0-0.588-0.581-1.352-1.133-1.486   c-0.474-0.113-0.952,0.114-1.205,0.56c-0.247,0.438-0.234,0.987,0.034,1.434C58,54.797,58.227,55.176,58.71,55.176z M58.549,53.377   c0.029-0.054,0.067-0.082,0.085-0.085c0.135,0.057,0.378,0.387,0.382,0.519c0,0.265-0.16,0.318-0.221,0.338   c-0.002,0.001-0.005,0.002-0.007,0.003c-0.067-0.095-0.161-0.252-0.219-0.348C58.47,53.638,58.493,53.475,58.549,53.377z"/><path d="M47.276,53.727c-0.801-0.348-1.979,0.594-2.071,1.602c-0.06,0.656,0.267,1.338,0.618,1.722   c0.268,0.293,0.572,0.448,0.88,0.448c0.779,0,1.56-0.968,1.764-1.536c0.068,0.808,0.67,1.944,1.562,2.033l0.123,0.007   c0.897,0,1.454-0.934,1.608-1.859c0.167-1.003-0.641-1.806-1.289-1.999c-0.127-0.037-0.257-0.057-0.388-0.057   c-0.779,0-1.404,0.668-1.577,1.357C48.399,54.753,47.767,53.939,47.276,53.727z M46.71,56.497c-0.186-0.062-0.55-0.634-0.509-1.079   c0.034-0.376,0.46-0.773,0.678-0.773c0.229,0.1,0.668,0.761,0.656,0.966C47.45,55.908,46.926,56.469,46.71,56.497z M50.083,55.087   c0.035,0,0.069,0.005,0.103,0.016c0.199,0.059,0.666,0.407,0.587,0.876c-0.102,0.612-0.404,1.023-0.622,1.023v0.5l-0.023-0.501   c-0.256-0.026-0.675-0.695-0.675-1.19C49.453,55.508,49.771,55.087,50.083,55.087z"/><path d="M44.549,53.086l-0.203-0.031c-0.426,0-1.378,0.503-1.637,0.939c-0.303,0.516-0.246,1.369-0.016,1.897   c0.218,0.501,0.542,0.668,0.776,0.72l0.207,0.022c0,0,0,0,0,0c0.883,0,1.497-1.206,1.574-1.515   C45.33,54.804,45.15,53.287,44.549,53.086z M43.691,55.631c-0.165-0.147-0.272-0.869-0.124-1.122   c0.074-0.101,0.356-0.272,0.568-0.374c0.079,0.262,0.152,0.637,0.146,0.737C44.216,55.089,43.866,55.581,43.691,55.631z"/><path d="M44.593,48.854c-0.11-0.049-0.237-0.074-0.378-0.074c-0.428,0-1.088,0.25-1.353,0.611c-0.325,0.444-0.305,1.097-0.179,1.56   c0.129,0.471,0.377,0.807,0.698,0.945c0.12,0.051,0.249,0.077,0.382,0.077c0.668,0,1.26-0.667,1.414-1.128   c0.02-0.059,0.034-0.128,0.046-0.2c-0.007,0.056-0.02,0.111-0.02,0.167c0,0.815,0.446,2.111,1.402,2.302   c0.083,0.017,0.167,0.024,0.252,0.024c0.826,0,1.755-0.8,1.843-1.584c0.087-0.786-0.643-1.935-1.272-2.252   c-0.172-0.086-0.359-0.13-0.558-0.13c-0.752,0-1.488,0.65-1.636,1.379C45.3,49.965,45.132,49.094,44.593,48.854z M44.229,50.528   c-0.061,0.181-0.33,0.426-0.452,0.444c-0.155-0.155-0.253-0.792-0.116-0.98c0.064-0.067,0.313-0.182,0.5-0.206   C44.237,49.956,44.287,50.353,44.229,50.528z M46.87,50.172c0.042,0,0.077,0.007,0.108,0.023c0.282,0.142,0.765,0.912,0.728,1.247   c-0.029,0.265-0.508,0.695-0.849,0.695l-0.056-0.005c-0.28-0.056-0.598-0.76-0.598-1.322C46.203,50.53,46.577,50.172,46.87,50.172z   "/><path d="M42.337,47.883c-0.14-0.085-0.319-0.128-0.533-0.128c-0.272,0-0.856,0.092-1.123,0.438   c-0.374,0.487-0.279,1.394-0.098,1.853c0.182,0.462,0.46,0.599,0.663,0.632l0.127,0.011c0.587,0,0.962-0.629,1.187-1.004   l0.06-0.098c0.208-0.311,0.167-0.824,0.111-1.077C42.664,48.212,42.532,48.001,42.337,47.883z M41.701,49.173   c-0.091,0.153-0.17,0.274-0.236,0.362c-0.06-0.253-0.073-0.607-0.025-0.696c0.037-0.025,0.17-0.071,0.32-0.093   c0.021,0.106,0.031,0.255,0.028,0.288L41.701,49.173z"/></g></svg>