<svg xmlns="http://www.w3.org/2000/svg" xmlns:xlink="http://www.w3.org/1999/xlink" version="1.1" x="0px" y="0px" viewBox="0 0 100 125" enable-background="new 0 0 100 100" xml:space="preserve"><g><path d="M27.526,45.362c1.948,0,3.127-3.195,3.699-5.341c0.009,0,0.019,0.001,0.028,0.001c0.33,0,0.62-0.042,0.883-0.096   c-0.852,2.082-1.5,3.916-1.656,5.009c-0.249,1.744,0.507,3.852,1.973,5.502c1.71,1.925,4.152,2.976,6.898,2.976   c0.086,0,0.173-0.001,0.259-0.003c6.733-0.16,7.86-4.537,8.388-8.627c0.525-4.069,0.062-6.584-1.459-7.914   c-1.002-0.876-3.578-1.71-4.556-2.005c0.137-0.173,0.281-0.349,0.429-0.526c0.366,0.041,1.409,0.141,2.786,0.141   c0.231,0,0.473-0.003,0.721-0.01c0.004,0.007,0.004,0.015,0.008,0.021c0.083,0.133,2.086,3.268,6.496,2.966   c3.07-0.221,3.596,0.815,3.939,2.076c0.446,1.641,1.344,2.789,2.825,3.611c0.44,0.245,0.66,0.847,0.873,1.429   c0.271,0.744,0.604,1.659,1.548,1.659c0.057,0,0.115-0.003,0.177-0.01c1.002-0.112,1.246-1.091,1.426-1.806   c0.062-0.251,0.18-0.72,0.325-0.782c0.336,0.042,0.511,0.253,0.792,0.623c0.31,0.406,0.732,0.962,1.57,0.962   c1.003,0,1.302-0.901,1.48-1.439c0.035-0.105,0.081-0.244,0.125-0.345c0.073,0.121,0.158,0.316,0.216,0.447   c0.229,0.528,0.575,1.322,1.421,1.186c0.785-0.13,0.989-0.866,1.112-1.305c0.012-0.042,0.025-0.093,0.04-0.143   c0.104,0.119,0.226,0.285,0.311,0.401c0.386,0.527,0.868,1.185,1.571,1.043c0.242-0.048,0.576-0.224,0.792-0.789   c0.369-0.966,0.259-2.739-0.489-3.738c-0.765-1.02-1.05-2.208-1.05-2.718c0-0.11,0.044-0.307,0.086-0.497   c0.136-0.604,0.362-1.617-0.545-1.979c-0.729-0.293-1.222,0.451-1.613,1.049c-0.161,0.247-0.498,0.761-0.623,0.798   c-0.039-0.025-0.168-0.202-0.242-0.665c-0.137-0.844,0.021-1.855,0.239-2.13l0.212-0.261c0.618-0.76,1.466-1.8,1.748-2.789   c0.263-0.919-0.189-1.499-0.712-2.169c-0.238-0.306-0.508-0.652-0.776-1.1c-0.78-1.299-0.897-2.821-0.293-3.789   c0.452-0.724,1.316-2.74-0.419-5.828c-0.826-1.469-3.005-5.16-5.388-7.713c-1.87-2.003-11.961-8.605-21.336-6.033   C32.443,7.271,27.474,9.46,22.676,15.67c-5.089,6.584-6.128,12.369-3.37,18.756C21.485,39.471,24.946,45.362,27.526,45.362z    M23.467,16.281C28.12,10.26,32.75,8.224,42.03,5.68c8.808-2.418,18.627,3.915,20.341,5.751c2.308,2.474,4.438,6.083,5.247,7.521   c1.473,2.622,0.8,4.235,0.442,4.808c-0.812,1.298-0.701,3.196,0.283,4.833c0.3,0.5,0.602,0.888,0.845,1.199   c0.503,0.646,0.657,0.87,0.54,1.281c-0.227,0.792-0.999,1.739-1.562,2.432l-0.217,0.268c-0.587,0.734-0.647,2.598-0.282,3.551   c0.236,0.619,0.608,0.803,0.879,0.848c0.764,0.13,1.252-0.625,1.646-1.229c0.124-0.189,0.317-0.484,0.447-0.612   c0.036,0.16-0.059,0.583-0.102,0.776c-0.057,0.254-0.11,0.494-0.11,0.715c0,0.571,0.261,2,1.249,3.317   c0.688,0.918,0.55,2.722,0.324,2.946c-0.137-0.033-0.433-0.437-0.591-0.653c-0.338-0.461-0.687-0.938-1.201-0.938   c-0.641,0-0.815,0.626-0.92,1.001c-0.107,0.388-0.179,0.564-0.312,0.591c-0.099-0.049-0.256-0.41-0.34-0.604   c-0.209-0.478-0.494-1.131-1.158-1.131c-0.679,0-0.901,0.67-1.049,1.114c-0.201,0.606-0.306,0.754-0.531,0.754   c-0.327,0-0.482-0.185-0.774-0.568c-0.31-0.407-0.694-0.913-1.464-1.009c-1.009-0.126-1.256,0.872-1.42,1.532   c-0.176,0.706-0.3,1.025-0.566,1.055c-0.248,0.032-0.369-0.16-0.674-0.997c-0.25-0.684-0.56-1.535-1.326-1.961   c-1.247-0.692-1.971-1.617-2.347-3c-0.44-1.607-1.349-3.062-4.973-2.811c-2.897,0.202-4.57-1.28-5.238-2.052   c1.579-0.115,3.322-0.396,4.879-1.007c4.189-1.646,5.276-4.629,5.32-4.755c0.091-0.26-0.045-0.543-0.305-0.636   c-0.261-0.091-0.544,0.044-0.639,0.303c-0.009,0.026-1.003,2.688-4.742,4.157c-2.947,1.158-6.746,1.052-8.4,0.936   c1.152-1.258,2.522-2.581,3.948-3.954c0.808-0.778,1.621-1.562,2.402-2.342c2.876-2.876,8.45-11.22,8.685-11.574   c0.153-0.23,0.091-0.54-0.139-0.693c-0.228-0.152-0.539-0.092-0.693,0.139c-0.058,0.086-5.753,8.615-8.56,11.422   c-0.776,0.776-1.585,1.555-2.389,2.329c-2.229,2.146-4.333,4.173-5.71,6.065c-0.625,0.858-0.624,3.042,0.001,3.896   c0.294,0.401,0.614,0.725,0.924,1.038c0.72,0.727,1.399,1.414,1.871,3.111c0.254,0.914,0.147,1.811-0.309,2.593   c-0.611,1.049-1.834,1.869-3.354,2.25c-0.986,0.246-1.771,0.165-2.401-0.249c-0.903-0.592-1.532-1.92-1.871-3.948   c-0.045-0.272-0.304-0.457-0.575-0.411c-0.272,0.045-0.457,0.303-0.411,0.575c0.391,2.347,1.146,3.858,2.309,4.62   c0.558,0.366,1.203,0.549,1.927,0.549c0.398,0,0.82-0.056,1.265-0.167c1.807-0.452,3.219-1.416,3.976-2.716   c0.595-1.021,0.736-2.185,0.409-3.364c-0.542-1.948-1.382-2.798-2.125-3.547c-0.297-0.3-0.578-0.584-0.828-0.925   c-0.308-0.42-0.355-1.655-0.152-2.356c1.034,0.296,3.601,1.135,4.451,1.878c1.229,1.075,1.598,3.375,1.125,7.033   c-0.621,4.815-2.034,7.627-7.42,7.755c-2.544,0.062-4.82-0.876-6.386-2.637c-1.256-1.415-1.936-3.258-1.73-4.696   c0.404-2.831,4.583-11.532,6.367-15.248l0.199-0.416c1.709-3.562,7.14-16.275,7.195-16.403c0.108-0.254-0.01-0.548-0.264-0.656   c-0.252-0.108-0.548,0.009-0.656,0.264c-0.055,0.128-5.477,12.821-7.176,16.363l-0.199,0.415c-1.107,2.305-2.891,6.02-4.309,9.352   c-1.107,0.399-2.583,0.597-4.317-1.138c-1.79-1.791-2.72-4.044-3.017-7.309c-0.284-3.11-0.428-8.111-0.43-8.161   c-0.008-0.276-0.234-0.475-0.514-0.486c-0.276,0.008-0.494,0.238-0.486,0.514c0.001,0.051,0.147,5.082,0.434,8.223   c0.319,3.513,1.338,5.958,3.306,7.925c0.924,0.924,1.817,1.375,2.614,1.572c-0.746,2.726-1.782,4.472-2.692,4.472   c-1.376,0-4.403-3.621-7.302-10.333C17.627,28.017,18.627,22.543,23.467,16.281z"/><path d="M62.25,34.006c0.074,0.008,0.131-0.006,0.22,0.012c1.551,0,2.623-1.808,3.013-2.585c0.363-0.726-0.007-1.318-0.365-1.892   c-0.269-0.43-0.572-0.917-0.747-1.614c-0.132-0.53-0.364-1.339-0.71-2.472c-0.349-1.141-1.607-1.757-2.237-1.38   c-1.264,0.758-2.434,2.562-2.201,4.884C59.522,31.987,60.626,33.826,62.25,34.006z M61.885,24.953c0.176,0,0.668,0.3,0.818,0.794   c0.337,1.101,0.57,1.916,0.696,2.422c0.214,0.851,0.577,1.434,0.869,1.902c0.345,0.551,0.419,0.717,0.319,0.915   c-0.514,1.026-1.35,2.125-2.229,2.026c-1.079-0.12-1.9-1.71-2.144-4.152C60.027,26.974,60.944,25.528,61.885,24.953z"/><path d="M73.09,46.302c-0.113-0.186-0.285-0.31-0.483-0.35l-0.169-0.017c-0.667,0-0.886,0.681-1.062,1.229   c-0.081,0.251-0.249,0.775-0.368,0.798c-0.139-0.036-0.443-0.475-0.607-0.71c-0.396-0.57-0.844-1.216-1.535-1.216   c-0.146,0-0.292,0.031-0.435,0.092c-0.767,0.329-0.946,1.06-1.064,1.543c-0.028,0.113-0.065,0.266-0.097,0.36   c-0.082-0.126-0.183-0.336-0.25-0.477c-0.257-0.537-0.577-1.206-1.255-1.206c-0.104,0-0.209,0.018-0.312,0.052   c-0.605,0.202-0.954,0.836-1.263,1.396c-0.198,0.359-0.47,0.852-0.674,0.886c-0.111,0-0.424-0.365-0.574-0.54   c-0.383-0.446-0.858-1.002-1.546-1.002c-0.204,0-0.408,0.051-0.608,0.15l-0.234,0.117c-1.458,0.725-2.419,1.253-2.496,1.972   c-0.018,0.167,0.003,0.489,0.344,0.761c0.188,0.151,0.415,0.303,0.642,0.454c0.239,0.159,0.61,0.406,0.77,0.577   c-0.093,0.02-0.237,0.038-0.443,0.038c-1.152,0-3.059-0.563-3.49-1.771c-0.507-1.42-0.4-3.851-0.314-5.804   c0.029-0.668,0.056-1.282,0.056-1.789c0-2.155-1.186-3.53-2.002-3.53l-0.237,0.038c-0.451,0.151-1.525,0.686-1.646,0.746   l-0.102,0.067c-0.318,0.273-0.827,0.436-1.318,0.593c-0.664,0.212-1.29,0.413-1.542,0.934c-0.13,0.269-0.134,0.571-0.012,0.897   c0.399,1.065,0.399,3.915,0.399,5.285c0,0.876-0.451,1.953-0.813,2.818c-0.186,0.442-0.36,0.86-0.461,1.211   c-0.332,1.164-0.018,4.686,1.746,6.129c0.653,0.535,1.446,0.773,2.569,0.773c0.648,0,1.36-0.079,2.114-0.162   c0.885-0.099,1.888-0.21,2.962-0.21l3.295-0.012c1.635,0,5.978,0,7.292,0.548c0.588,0.245,0.861,0.501,1.082,0.706   c0.232,0.218,0.497,0.465,0.953,0.465c0.28,0,0.607-0.094,1.094-0.314c1.701-0.772,2.77-2.96,2.589-4.397   c-0.074-0.6-0.363-1.109-0.619-1.559c-0.314-0.554-0.502-0.911-0.402-1.26C72.57,51.569,73.723,47.339,73.09,46.302z    M72.587,54.554c0.116,0.923-0.627,2.734-2.011,3.363c-0.409,0.186-0.596,0.225-0.68,0.225c-0.051,0-0.08-0.017-0.271-0.195   c-0.249-0.232-0.626-0.584-1.38-0.899c-1.321-0.55-4.622-0.624-7.677-0.624l-3.295,0.012c-1.129,0-2.161,0.114-3.072,0.216   c-0.726,0.08-1.41,0.156-2.004,0.156c-0.876,0-1.473-0.169-1.936-0.547c-1.412-1.155-1.65-4.265-1.417-5.081   c0.083-0.294,0.248-0.686,0.421-1.1c0.397-0.948,0.891-2.128,0.891-3.205c0-1.538,0-4.402-0.463-5.636   c-0.025-0.067-0.026-0.103-0.024-0.11c0.057-0.132,0.636-0.317,0.947-0.417c0.539-0.173,1.147-0.368,1.613-0.744   c0.323-0.161,1.046-0.51,1.394-0.641c0.282,0.137,0.994,1.017,0.994,2.518c0,0.494-0.026,1.093-0.055,1.745   c-0.09,2.041-0.201,4.58,0.372,6.184c0.633,1.774,3.055,2.435,4.432,2.435c0.673,0,1.105-0.143,1.325-0.435   c0.154-0.207,0.214-0.443,0.173-0.685c-0.094-0.544-0.664-0.925-1.27-1.328c-0.167-0.112-0.335-0.223-0.489-0.339   c0.296-0.329,1.395-0.875,1.89-1.121l0.237-0.118c0.061-0.03,0.113-0.045,0.161-0.045c0.228,0,0.524,0.347,0.787,0.653   c0.356,0.417,0.762,0.889,1.333,0.889l0.165-0.014c0.682-0.114,1.055-0.792,1.385-1.39c0.209-0.379,0.469-0.851,0.664-0.937   c0.107,0.058,0.29,0.44,0.388,0.645c0.252,0.525,0.536,1.121,1.15,1.12l0.165-0.017c0.646-0.129,0.796-0.737,0.904-1.18   c0.111-0.453,0.194-0.737,0.528-0.874c0.168,0,0.523,0.512,0.714,0.787c0.389,0.56,0.79,1.14,1.419,1.139l0.155-0.013   c0.68-0.113,0.947-0.785,1.129-1.337c-0.067,1.013-0.39,2.691-0.686,3.725c-0.22,0.771,0.159,1.438,0.494,2.028   C72.32,53.769,72.537,54.151,72.587,54.554z"/><path d="M93.225,86.201c-0.308-1.199-1.352-2.251-3.103-3.127c-0.931-0.466-2.042-0.691-3.396-0.691   c-1.313,0-2.604,0.209-3.741,0.395c-0.807,0.131-1.504,0.244-1.996,0.244c-1.508,0-5.265-1.225-9.571-3.12   c-2.593-1.14-14.253-5.759-22.766-9.131c-3.383-1.34-6.333-2.509-8.149-3.234C35,65.335,29.983,61.524,26.985,59.248   c-0.494-0.375-0.936-0.71-1.318-0.992c-1.63-1.201-2.182-2.012-2.819-2.951c-0.392-0.576-0.835-1.229-1.566-2.016   c-1.339-1.443-3.149-1.61-4.395-1.61c-0.3,0-0.586,0.01-0.849,0.02c-0.377,0.013-0.709,0.028-0.953-0.003   c-1.726-0.208-1.712,1.481-1.71,3.041c-0.006,0.068-0.173,1.678-2.097,3.088c-0.586,0.43-1.158,0.766-1.662,1.061   c-1.345,0.789-2.507,1.47-1.966,3.094c0.609,1.826,3.293,4.878,6.114,5.504c0.751,0.167,1.813,0.465,3.042,0.81   c2.998,0.841,7.103,1.993,11.086,2.504c5.228,0.67,17.591,6.089,24.699,9.722c6.371,3.256,20.575,11.562,24.514,14.336   c3.102,2.181,5.35,2.507,6.414,2.507c0.804,0,1.47-0.173,1.925-0.498c0.735-0.524,1.009-1.499,1.273-2.442   c0.161-0.573,0.327-1.167,0.585-1.58c0.279-0.446,0.521-0.469,0.923-0.469l0.239,0.002c0.341,0,0.707-0.026,1.079-0.213   c0.982-0.489,1.756-1.292,3.063-3.182C93.251,88.05,93.458,87.115,93.225,86.201z M91.786,88.41   c-1.348,1.946-1.983,2.505-2.688,2.855c-0.178,0.09-0.366,0.107-0.632,0.107l-0.239-0.002c-0.414,0-1.184,0-1.771,0.939   c-0.334,0.534-0.521,1.198-0.7,1.839c-0.218,0.776-0.443,1.579-0.892,1.898c-0.277,0.198-0.767,0.312-1.344,0.312   c-0.945,0-2.963-0.303-5.838-2.325c-3.963-2.79-18.237-11.139-24.635-14.408c-6.679-3.413-19.379-9.099-25.027-9.823   c-3.911-0.501-7.975-1.642-10.943-2.475c-1.243-0.349-2.317-0.65-3.095-0.823c-2.36-0.523-4.854-3.257-5.383-4.844   c-0.258-0.775,0.058-1.056,1.523-1.914c0.524-0.309,1.12-0.657,1.747-1.117c2.314-1.696,2.496-3.729,2.504-3.853   c0-1.575,0.067-2.099,0.465-2.099c0.039,0,0.08,0.003,0.122,0.008c0.286,0.036,0.664,0.024,1.112,0.01   c1.255-0.043,3.147-0.158,4.476,1.271c0.68,0.732,1.082,1.325,1.472,1.898c0.661,0.973,1.285,1.892,3.053,3.193   c0.379,0.279,0.817,0.612,1.307,0.984c3.038,2.307,8.122,6.168,13.75,8.419c1.817,0.727,4.768,1.896,8.152,3.236   c8.506,3.369,20.156,7.984,22.732,9.117c1.708,0.751,7.476,3.204,9.974,3.204c0.573,0,1.307-0.119,2.156-0.257   c1.101-0.18,2.349-0.382,3.581-0.382c1.195,0,2.16,0.191,2.949,0.586c1.46,0.729,2.352,1.588,2.581,2.48   C92.415,87.07,92.257,87.729,91.786,88.41z"/><path d="M20.143,63.197c-0.271-0.049-0.537-0.09-0.799-0.131c-1.228-0.188-2.289-0.352-3.249-1.312   c-0.347-0.348-0.315-0.57-0.305-0.644c0.057-0.395,0.584-0.765,0.765-0.863c0.242-0.132,0.332-0.436,0.2-0.678   c-0.131-0.242-0.433-0.331-0.675-0.202c-0.116,0.062-1.137,0.637-1.279,1.596c-0.053,0.362,0.005,0.916,0.587,1.498   c1.191,1.191,2.519,1.396,3.803,1.593c0.253,0.039,0.511,0.079,0.772,0.127c0.03,0.005,0.061,0.008,0.09,0.008   c0.237,0,0.447-0.169,0.491-0.41C20.595,63.508,20.415,63.247,20.143,63.197z"/><path d="M83.574,91.213c-0.276,0-0.5,0.224-0.5,0.5c0,0.041-0.015,1.016-1.307,1.231c-1.217,0.209-2.246-0.565-3.67-1.631   c-0.312-0.233-0.639-0.478-0.986-0.727c-2.014-1.438-4.891-3.45-4.891-3.45l-0.574,0.818c0.001,0.001,2.873,2.011,4.883,3.446   c0.342,0.244,0.663,0.484,0.969,0.713c1.374,1.027,2.493,1.865,3.859,1.865c0.187,0,0.378-0.016,0.574-0.049   c1.695-0.283,2.143-1.574,2.143-2.218C84.074,91.437,83.851,91.213,83.574,91.213z"/><path d="M86.8,88.247c-1.165,0.581-2.804-0.398-2.82-0.409c-0.234-0.142-0.544-0.07-0.687,0.166   c-0.145,0.235-0.071,0.542,0.164,0.687c0.064,0.04,1.222,0.739,2.499,0.739c0.43,0,0.872-0.079,1.291-0.288   c0.247-0.123,0.347-0.424,0.224-0.671C87.347,88.225,87.049,88.123,86.8,88.247z"/><path d="M37.915,75.69c-0.108-0.06-0.21-0.121-0.31-0.18c-0.471-0.282-0.958-0.573-1.736-0.573c-0.709,0-1.599,0.249-2.802,0.782   c-2.502,1.111-7.017,2.6-8.543,3.007c-1.592,0.425-5.765,0.613-8.527,0.738c-0.885,0.04-1.642,0.074-2.217,0.112   c-2.493,0.167-7.132,0.478-7.302,3.194c-0.092,1.464,0.907,2.366,1.788,3.162c0.679,0.614,1.321,1.194,1.374,1.935   c0.269,3.769,1.801,5.93,4.204,5.93l0.198-0.005c2.225-0.106,4.543-1.642,6.784-3.126c0.964-0.638,1.961-1.298,2.917-1.82   l0.358-0.195c3.22-1.758,8.609-4.7,11.193-5.517c2.729-0.86,4.581-1.709,4.607-1.725c0.287-0.096,1.727-0.624,1.964-1.63   c0.076-0.324,0.056-0.823-0.476-1.354C40.105,77.142,39.099,76.349,37.915,75.69z M39.533,80.481   c-0.018,0.009-1.875,0.859-4.54,1.7c-2.677,0.845-8.12,3.816-11.371,5.592l-0.358,0.196c-0.994,0.542-2.009,1.214-2.99,1.864   c-2.129,1.409-4.33,2.867-6.28,2.961l-0.15,0.003c-2.572,0-3.1-3.497-3.207-5c-0.082-1.143-0.904-1.887-1.701-2.605   c-0.816-0.738-1.522-1.376-1.46-2.358c0.115-1.84,4.499-2.134,6.432-2.263c0.508-0.034,1.258-0.067,2.135-0.107   c2.972-0.135,7.042-0.318,8.739-0.771c1.553-0.415,6.146-1.929,8.691-3.06c1.056-0.469,1.84-0.696,2.396-0.696   c0.502,0,0.804,0.181,1.223,0.432c0.108,0.064,0.219,0.13,0.337,0.196c1.097,0.609,2.04,1.354,3.252,2.567   c0.166,0.165,0.236,0.306,0.21,0.418C40.813,79.884,40.082,80.294,39.533,80.481z"/><path d="M53.366,69.734l-0.081,0.284l0.081,0.189c0.394,0.92,1.938,1.63,4.076,2.532c0.386,0.162,0.75,0.315,1.062,0.458   c0.28,0.127,0.609,0.189,1.007,0.189c0,0,0,0,0.001,0c1.259,0,3.041-0.643,4.928-1.323c1.161-0.419,2.362-0.853,3.452-1.137   c0.64-0.166,1.449-0.387,2.358-0.634c3.677-1,9.235-2.512,11.024-2.512c0.293,0,0.634,0.005,1.008,0.01   c2.635,0.04,6.842,0.11,8.382-1.29c1.853-1.683,1.263-3.905,0.565-5.855c-0.186-0.52-0.37-0.973-0.537-1.378   c-0.489-1.196-0.714-1.8-0.472-2.445c0.833-2.218-0.094-3.564-1.018-4.304c-0.697-0.558-1.643-0.864-2.664-0.864   c-1.601,0-3.138,0.762-4.216,2.089c-1.788,2.202-5.674,4.577-8.246,6.148l-0.105,0.064c-0.971,0.593-4.384,2.051-7.996,3.594   C56.804,67.468,53.695,68.91,53.366,69.734z M74.494,60.811l0.105-0.064c2.63-1.607,6.604-4.036,8.5-6.371   c0.889-1.093,2.143-1.72,3.44-1.72c0.783,0,1.526,0.235,2.039,0.646c0.995,0.796,1.22,1.804,0.707,3.171   c-0.392,1.041-0.025,1.937,0.482,3.175c0.161,0.395,0.341,0.833,0.521,1.336c0.771,2.156,0.97,3.629-0.296,4.779   c-1.149,1.044-4.953,1.044-6.203,1.044c-0.531,0-1.037-0.007-1.493-0.014c-0.379-0.005-0.725-0.01-1.021-0.01   c-1.923,0-7.335,1.472-11.287,2.547c-0.904,0.246-1.712,0.465-2.348,0.632c-1.134,0.295-2.357,0.736-3.54,1.163   c-1.802,0.649-3.504,1.264-4.588,1.264c-0.001,0-0.001,0-0.001,0c-0.248,0-0.448-0.034-0.593-0.1   c-0.32-0.146-0.693-0.303-1.088-0.47c-1.104-0.466-2.877-1.214-3.414-1.811c1.15-0.925,7.604-3.681,11.952-5.538   C70.175,62.845,73.461,61.441,74.494,60.811z"/><path d="M77.107,65.339c0.086,0,0.173-0.021,0.252-0.068c0.033-0.02,3.348-1.908,5.611-1.801c2.226,0.131,4.329,0.253,5.085-1.446   c0.583-1.311-0.224-2.378-0.732-2.759c-0.219-0.164-0.532-0.12-0.7,0.101c-0.165,0.221-0.12,0.534,0.101,0.7   c0.034,0.025,0.826,0.634,0.418,1.552c-0.409,0.919-1.546,1.005-4.112,0.854c-2.541-0.157-6.028,1.851-6.174,1.936   c-0.238,0.139-0.319,0.445-0.18,0.684C76.769,65.25,76.936,65.339,77.107,65.339z"/><path d="M11.586,82.772c0.217-0.162,0.266-0.469,0.107-0.691c-0.16-0.225-0.473-0.275-0.697-0.116   c-0.05,0.036-0.487,0.364-0.594,1.024c-0.099,0.607,0.111,1.272,0.624,1.977c0.098,0.135,0.25,0.206,0.405,0.206   c0.102,0,0.205-0.031,0.293-0.096c0.224-0.162,0.273-0.475,0.11-0.698C11.035,83.278,11.52,82.826,11.586,82.772z"/><path d="M18.555,86.527c-0.243-0.125-0.544-0.027-0.672,0.216c-0.042,0.082-0.446,0.798-1.314,0.602   c-0.625-0.139-0.994-1.777-1.046-2.842c-0.014-0.276-0.271-0.516-0.523-0.475c-0.276,0.013-0.489,0.247-0.476,0.522   c0.027,0.568,0.243,3.418,1.828,3.771c0.179,0.039,0.348,0.058,0.509,0.058c1.031,0,1.69-0.736,1.915-1.185   C18.898,86.949,18.8,86.652,18.555,86.527z"/></g></svg>