<svg xmlns="http://www.w3.org/2000/svg" xmlns:xlink="http://www.w3.org/1999/xlink" version="1.1" x="0px" y="0px" viewBox="0 0 32 40" enable-background="new 0 0 32 32" xml:space="preserve"><g display="none"><g display="inline"><g><path fill="#000000" d="M16,18c2.206,0,4,1.794,4,4v3h-8v-3C12,19.794,13.794,18,16,18 M16,17c-2.761,0-5,2.239-5,5v4h10v-4     C21,19.239,18.761,17,16,17L16,17z"/></g><g><g><path fill="#000000" d="M13,4c0.21,0,0.404,0.133,0.474,0.342l0.262,0.787C14.693,4.397,15.828,4,17,4c2.757,0,5,2.243,5,5      s-2.243,5-5,5v3l-2,0v-3.5c0-0.276,0.224-0.5,0.5-0.5l1.5,0c2.206,0,4-1.794,4-4s-1.794-4-4-4c-1.156,0-2.273,0.48-3.146,1.354      c-0.094,0.094-0.22,0.148-0.35,0.148c-0.039,0-0.079-0.005-0.119-0.015c-0.168-0.039-0.305-0.164-0.359-0.328l-0.5-1.5      c-0.087-0.262,0.055-0.545,0.316-0.633C12.894,4.008,12.948,4,13,4 M13,3c-0.16,0-0.319,0.026-0.471,0.076      c-0.787,0.264-1.212,1.115-0.952,1.898l0.5,1.501c0.164,0.491,0.578,0.869,1.082,0.986c0.093,0.025,0.219,0.041,0.345,0.041      c0.391,0,0.777-0.161,1.057-0.441C15.245,6.377,16.111,6,17,6c1.654,0,3,1.346,3,3s-1.346,3-3,3l-1.5,0      c-0.827,0-1.5,0.673-1.5,1.5V17v1l1,0l2,0l1,0v-1v-2.083c2.834-0.477,5-2.949,5-5.917c0-3.308-2.692-6-6-6      c-0.963,0-1.902,0.221-2.766,0.647C13.958,3.248,13.501,3,13,3L13,3z"/></g></g><g><path fill="#000000" d="M22,26v2H10v-2H22 M22,25H10c-0.552,0-1,0.448-1,1v2c0,0.552,0.448,1,1,1h12c0.552,0,1-0.448,1-1v-2     C23,25.448,22.552,25,22,25L22,25z"/></g></g></g><g><path d="M22,25h-1v-3c0-2.049-1.236-3.806-3-4.578V17v-2.083c2.834-0.477,5-2.949,5-5.917c0-3.308-2.692-6-6-6   c-0.963,0-1.902,0.221-2.766,0.647C13.958,3.248,13.501,3,13,3c-0.16,0-0.319,0.026-0.471,0.076   c-0.787,0.264-1.212,1.115-0.952,1.898l0.5,1.501c0.164,0.491,0.578,0.869,1.081,0.986c0.093,0.025,0.219,0.041,0.345,0.041   c0.391,0,0.777-0.161,1.057-0.441C15.245,6.377,16.111,6,17,6c1.654,0,3,1.346,3,3c0,1.654-1.346,3-3,3l-1.5,0   c-0.827,0-1.5,0.673-1.5,1.5V17v0.422c-1.764,0.772-3,2.529-3,4.578v3h-1c-0.552,0-1,0.448-1,1v2c0,0.552,0.448,1,1,1h12   c0.552,0,1-0.448,1-1v-2C23,25.448,22.552,25,22,25z M15,13.5c0-0.276,0.224-0.5,0.5-0.5l1.5,0c2.206,0,4-1.794,4-4s-1.794-4-4-4   c-1.156,0-2.273,0.48-3.146,1.354c-0.094,0.094-0.22,0.148-0.35,0.148c-0.039,0-0.079-0.005-0.119-0.015   c-0.168-0.039-0.305-0.164-0.359-0.328l-0.5-1.5c-0.087-0.262,0.055-0.545,0.316-0.633C12.894,4.008,12.948,4,13,4   c0.21,0,0.404,0.133,0.474,0.342l0.262,0.787C14.693,4.397,15.828,4,17,4c2.757,0,5,2.243,5,5s-2.243,5-5,5v3.101   C16.677,17.035,16.343,17,16,17s-0.677,0.035-1,0.101V13.5z M12,22c0-2.206,1.794-4,4-4s4,1.794,4,4v3h-8V22z M22,28H10v-2h1h10h1   V28z"/></g></svg>