<svg xmlns="http://www.w3.org/2000/svg" xmlns:xlink="http://www.w3.org/1999/xlink" version="1.1" x="0px" y="0px" viewBox="0 0 100 125" enable-background="new 0 0 100 100" xml:space="preserve"><g><path d="M60.869,39.565l-0.357-0.555c0.024-0.015,2.328-1.515,2.404-3.194c0.015-0.355,0.06-0.848,0.11-1.419   c0.224-2.478,0.595-6.625-0.467-8.583c-1.019-1.877-4.123-7.592-13.15-7.456c-7.568,0.111-11.222,5.041-12.726,7.971   c-0.755,1.47-0.742,5.192-0.478,8.184c0.243,2.751,1.671,4.314,1.686,4.329l-0.483,0.45c-0.066-0.07-1.598-1.747-1.86-4.722   c-0.132-1.496-0.483-6.535,0.549-8.543c1.572-3.061,5.391-8.213,13.302-8.329c6.253-0.089,10.884,2.533,13.741,7.801   c1.158,2.134,0.773,6.405,0.545,8.958c-0.051,0.562-0.095,1.048-0.11,1.39C63.483,37.867,60.975,39.497,60.869,39.565z"/></g><g><path d="M52.8,52.576c-0.159,0-0.276-0.06-0.354-0.118c-0.346-0.259-0.364-0.856-0.386-1.487c-0.004-0.121-0.008-0.271-0.018-0.418   c-0.013,0.09-0.021,0.177-0.03,0.254c-0.09,0.758-0.19,1.617-0.837,1.647c-0.238,0.014-0.448-0.06-0.607-0.208   c-0.352-0.324-0.37-0.91-0.387-1.476c-0.004-0.128-0.008-0.301-0.022-0.449c-0.025,0.18-0.039,0.403-0.048,0.563   c-0.042,0.7-0.095,1.569-0.794,1.569c-0.692,0-0.765-0.856-0.823-1.544c-0.015-0.179-0.038-0.434-0.073-0.62   c-0.017,0.16-0.02,0.361-0.023,0.505c-0.011,0.618-0.028,1.55-0.816,1.55c-0.664,0-0.732-0.763-0.789-1.377   c-0.031-0.343-0.072-0.793-0.203-0.927c-0.036,0.16-0.052,0.452-0.062,0.662c-0.032,0.614-0.066,1.249-0.432,1.561   c-0.153,0.131-0.348,0.185-0.562,0.165c-0.923-0.1-0.987-0.753-1.084-1.741l-0.016-0.157c-0.078-0.786-0.205-0.985-0.581-1.577   c-0.1-0.158-0.216-0.34-0.349-0.563c-0.082-0.136-0.158-0.271-0.233-0.405c-0.518-0.919-1.006-1.787-3.178-2.601l-0.203-0.076   c-2.514-0.941-3.898-1.459-4.131-3.668c-0.173-1.651,0.905-2.188,1.551-2.509c0.154-0.076,0.388-0.192,0.425-0.255   c0.094-0.235,0.079-1.642,0.064-3.002c-0.014-1.312-0.03-2.8,0.019-4.255c0.111-3.341,3.109-6.483,3.236-6.616   c0.127-0.131,0.336-0.135,0.467-0.009c0.131,0.127,0.135,0.335,0.008,0.467c-0.029,0.031-2.949,3.094-3.052,6.179   c-0.048,1.441-0.033,2.921-0.019,4.227c0.021,1.957,0.025,2.913-0.113,3.259c-0.114,0.284-0.405,0.429-0.743,0.597   c-0.615,0.306-1.313,0.652-1.187,1.848c0.189,1.803,1.292,2.215,3.705,3.119l0.203,0.076c2.397,0.899,2.969,1.913,3.521,2.894   c0.073,0.129,0.146,0.26,0.224,0.389c0.131,0.218,0.243,0.396,0.341,0.55c0.402,0.633,0.586,0.923,0.68,1.864l0.016,0.159   c0.105,1.064,0.153,1.11,0.498,1.147c0.045,0.007,0.058-0.004,0.064-0.011c0.149-0.127,0.181-0.731,0.2-1.093   c0.034-0.652,0.07-1.326,0.638-1.326c0.802,0,0.885,0.906,0.944,1.567c0.023,0.263,0.064,0.705,0.15,0.786   c0.12-0.009,0.131-0.619,0.137-0.912c0.01-0.585,0.023-1.312,0.634-1.35c0.661-0.057,0.724,0.769,0.779,1.42   c0.025,0.3,0.074,0.856,0.184,0.948c0.065-0.095,0.1-0.655,0.118-0.957c0.033-0.568,0.064-1.059,0.346-1.303   c0.115-0.1,0.257-0.148,0.414-0.132c0.591,0.05,0.611,0.736,0.63,1.339c0.011,0.37,0.026,0.875,0.175,1.011   c0.012,0.013,0.04,0.037,0.128,0.035c0.097-0.094,0.174-0.749,0.211-1.065c0.08-0.68,0.154-1.322,0.661-1.322   c0.008,0,0.015,0,0.021,0c0.633,0.021,0.659,0.828,0.683,1.54c0.008,0.286,0.026,0.8,0.106,0.957   c0.216-0.096,0.281-0.64,0.342-1.123c0.084-0.698,0.181-1.488,0.701-1.942c0.254-0.223,0.586-0.593,0.968-1.021   c0.886-0.986,1.987-2.216,3.034-2.618c0.27-0.104,0.577-0.198,0.902-0.298c1.358-0.419,3.051-0.94,3.45-2.614   c0.353-1.483-0.768-2.17-1.468-2.446c-0.312-0.123-0.485-0.469-0.435-0.859c0.107-0.831,0.35-2.922,0.266-4.407   c-0.01-0.182,0.13-0.338,0.312-0.348c0.186-0.008,0.338,0.129,0.348,0.312c0.085,1.539-0.162,3.679-0.271,4.527   c-0.015,0.106,0.021,0.157,0.03,0.164c0.557,0.221,2.358,1.112,1.86,3.211c-0.487,2.04-2.459,2.648-3.898,3.092   c-0.313,0.097-0.61,0.188-0.86,0.283c-0.897,0.345-1.941,1.509-2.777,2.443c-0.398,0.444-0.742,0.827-1.027,1.076   c-0.328,0.289-0.409,0.947-0.48,1.526c-0.091,0.751-0.187,1.523-0.85,1.69C52.912,52.569,52.854,52.576,52.8,52.576z"/></g><g><path d="M42.915,41.075L42.915,41.075c-0.796,0-1.424-0.249-1.87-0.741c-0.683-0.754-0.922-2.052-0.73-3.966   c0.256-2.568,2.379-3.912,4.344-3.912c0.73,0,1.423,0.178,2.005,0.515c0.009,0.004,2.06,1.123,1.344,3.629   c-0.681,2.385-2.812,4.348-4.852,4.467C43.074,41.073,42.993,41.075,42.915,41.075z M44.659,33.117   c-1.617,0-3.459,1.038-3.688,3.318c-0.17,1.694,0.02,2.857,0.563,3.457c0.319,0.352,0.77,0.524,1.379,0.524   c0.001,0,0.001,0,0.001,0c0.066,0,0.134-0.002,0.204-0.006c1.748-0.103,3.656-1.892,4.255-3.99c0.566-1.981-0.965-2.836-1.03-2.872   C45.852,33.264,45.273,33.117,44.659,33.117z"/></g><g><path d="M55.474,41.075c-0.081,0-0.161-0.002-0.243-0.007c-2.04-0.12-4.171-2.083-4.853-4.467   c-0.716-2.506,1.335-3.625,1.356-3.636c0.57-0.331,1.265-0.509,1.993-0.509c1.965,0,4.089,1.344,4.344,3.912   c0.192,1.914-0.047,3.211-0.729,3.966C56.897,40.826,56.267,41.075,55.474,41.075z M53.727,33.117   c-0.613,0-1.192,0.147-1.673,0.426c-0.075,0.041-1.608,0.896-1.041,2.877c0.598,2.098,2.507,3.887,4.256,3.99   c0.703,0.042,1.229-0.126,1.581-0.518c0.544-0.6,0.733-1.763,0.564-3.457C57.187,34.155,55.343,33.117,53.727,33.117z"/></g><g><path d="M50.446,45.464L50.446,45.464c-0.593,0-0.871-0.522-1.055-0.867c-0.035-0.066-0.082-0.154-0.122-0.218   c-0.055,0.066-0.122,0.16-0.171,0.231c-0.255,0.359-0.603,0.85-1.163,0.85c-0.217,0-0.439-0.078-0.658-0.231   c-1.417-0.992,1.066-5.638,1.861-7.04l0.309-0.545l0.274,0.564c0.703,1.439,2.876,6.203,1.39,7.052   C50.874,45.397,50.655,45.464,50.446,45.464z M49.279,43.657l0.119,0.014c0.289,0.073,0.434,0.349,0.576,0.617   c0.167,0.312,0.29,0.516,0.472,0.516l0,0c0.088,0,0.207-0.04,0.338-0.116c0.592-0.338-0.211-3.064-1.381-5.61   c-1.34,2.495-2.321,5.209-1.746,5.612c0.106,0.075,0.201,0.112,0.28,0.112c0.218,0,0.442-0.317,0.623-0.572   C48.768,43.935,48.963,43.657,49.279,43.657z"/></g><g><path d="M50.139,61.163l-0.144-0.002c-3.485-0.051-6.077-1.221-7.922-3.576c-1.956-2.498-2.025-2.913-2.107-5.001l-0.007-0.173   c-0.056-1.401-0.299-3.265-0.438-4.252c-0.057-0.402-0.009-0.685,0.147-0.863c0.188-0.217,0.506-0.238,0.818-0.027   c1.06,0.719,2.39,1.732,2.706,2.49c0.222,0.534,0.236,1.393,0.251,2.304c0.014,0.87,0.03,1.861,0.266,2.186l0.191,0.27   c0.305,0.429,0.677,0.955,0.931,1.038c0.011-0.135-0.009-0.373-0.021-0.527c-0.04-0.477-0.078-0.929,0.172-1.2   c0.112-0.121,0.263-0.185,0.438-0.185c0.671,0.037,0.798,0.794,0.899,1.4c0.038,0.221,0.097,0.571,0.168,0.706   c0.064-0.125,0.104-0.559,0.127-0.8c0.057-0.608,0.126-1.364,0.76-1.364l0.079,0.004c0.641,0.076,0.659,0.848,0.674,1.467   c0.005,0.217,0.013,0.562,0.061,0.704c0.121-0.095,0.211-0.535,0.262-0.781c0.119-0.581,0.269-1.306,0.936-1.306   c0.064,0,0.13,0.01,0.196,0.024c0.751,0.169,0.681,1.022,0.63,1.645c-0.021,0.243-0.055,0.65,0.011,0.741   c0.252-0.021,0.373-0.553,0.471-0.979c0.13-0.569,0.275-1.213,0.848-1.213c0.049,0,0.099,0.004,0.149,0.015   c0.619,0.139,0.64,0.841,0.656,1.403c0.006,0.216,0.018,0.613,0.09,0.69c0.808-0.122,1.627-0.78,2.222-1.771   c0.277-0.462,0.329-1.175,0.379-1.863c0.058-0.799,0.112-1.552,0.487-2.076c0.479-0.67,1.859-1.999,2.64-2.731   c0.098-0.09,0.249-0.212,0.436-0.212c0.125,0,0.243,0.055,0.319,0.153c0.125,0.155,0.142,0.38,0.06,0.752   c-0.229,1.028-0.761,3.548-0.762,4.779c0,2.564-1.255,4.46-2.309,5.598C54.898,59.714,53.205,61.163,50.139,61.163z M40.158,47.843   c-0.001,0.054,0.003,0.127,0.017,0.223c0.173,1.22,0.39,2.959,0.444,4.318l0.007,0.173c0.075,1.923,0.087,2.22,1.967,4.62   c1.715,2.188,4.139,3.274,7.411,3.321l0.135,0.003c2.807,0,4.36-1.326,5.283-2.323c0.974-1.051,2.135-2.797,2.135-5.148   c0-1.172,0.429-3.333,0.721-4.671c-0.706,0.673-1.825,1.767-2.216,2.314c-0.268,0.374-0.316,1.036-0.367,1.739   c-0.056,0.768-0.113,1.561-0.472,2.156c-0.705,1.176-1.677,1.934-2.663,2.074c-0.043,0.006-0.085,0.008-0.124,0.008   c-0.712,0-0.733-0.795-0.75-1.321c-0.008-0.243-0.022-0.752-0.139-0.778c-0.065,0.059-0.155,0.46-0.211,0.698   c-0.139,0.611-0.33,1.446-1.066,1.481c-0.294-0.002-0.449-0.11-0.536-0.204c-0.26-0.283-0.223-0.747-0.182-1.238   c0.041-0.495,0.06-0.908-0.117-0.947c-0.019-0.004-0.035-0.007-0.05-0.007c-0.13,0-0.233,0.506-0.29,0.778   c-0.118,0.571-0.25,1.22-0.831,1.314c-0.767,0.124-0.785-0.747-0.799-1.356c-0.005-0.23-0.015-0.639-0.081-0.79   c-0.062,0.149-0.094,0.505-0.115,0.73c-0.059,0.63-0.125,1.345-0.722,1.418l-0.079,0.008c-0.585,0-0.7-0.683-0.802-1.283   c-0.039-0.232-0.116-0.688-0.214-0.821c-0.026,0.149,0,0.461,0.014,0.642c0.043,0.514,0.096,1.153-0.439,1.241   c-0.639,0.106-1.124-0.55-1.667-1.317l-0.188-0.262c-0.357-0.494-0.373-1.5-0.39-2.563c-0.013-0.808-0.027-1.645-0.201-2.06   C42.393,49.557,41.489,48.748,40.158,47.843z"/></g><g><path d="M65.47,85.423c-2.877,0-3.621-1.024-3.979-1.516c-0.039-0.053-0.068-0.096-0.098-0.126   c-0.381-0.381-0.279-1.268-0.239-1.529l0.01-0.065l0.033-0.055c0.306-0.509,0.775-0.769,1.395-0.769   c0.475,0,0.993,0.147,1.493,0.29c0.612,0.173,1.267,0.344,1.732,0.252c1.288-0.259,2.401-1.566,2.838-2.729   c0.321-0.856-0.363-2.759-0.653-3.417l-0.135-0.306l0.307-0.132c0.02-0.009,1.994-0.867,3.1-2.251   c0.37-0.462,0.79-1.338,1.235-2.265c0.979-2.041,2.091-4.354,3.688-4.885c0.405-0.136,0.843-0.203,1.301-0.203   c1.387,0,2.863,0.652,3.432,1.517c0.245,0.373,0.298,0.767,0.149,1.111c-0.172,0.398-0.577,0.462-0.937,0.517   c-0.379,0.06-0.806,0.125-1.177,0.528c-0.508,0.555-2.121,2.816-3.299,4.468c-0.676,0.951-1.262,1.772-1.524,2.114   c-0.526,0.681-0.95,1.017-1.186,1.168c-0.033,0.709-0.242,3.212-1.511,5.259c-0.957,1.548-2.113,2.941-5.703,3.019   C65.651,85.421,65.559,85.423,65.47,85.423z M61.797,82.418c-0.048,0.384-0.021,0.815,0.063,0.897   c0.048,0.048,0.102,0.117,0.163,0.203c0.305,0.417,0.947,1.306,3.704,1.24c3.264-0.069,4.265-1.267,5.156-2.705   c1.363-2.201,1.416-5.083,1.416-5.112l0.004-0.214l0.197-0.086c0,0,0.46-0.217,1.116-1.07c0.256-0.334,0.837-1.148,1.512-2.093   c1.253-1.76,2.813-3.948,3.348-4.533c0.527-0.574,1.126-0.666,1.562-0.735c0.199-0.029,0.405-0.062,0.433-0.125   c0.059-0.137,0.027-0.301-0.097-0.486c-0.386-0.587-1.596-1.222-2.879-1.222c-0.388,0-0.755,0.059-1.093,0.171   c-1.33,0.445-2.422,2.718-3.3,4.544c-0.482,1.004-0.897,1.87-1.315,2.393c-0.953,1.192-2.43,1.998-3.059,2.306   c0.295,0.738,0.937,2.567,0.542,3.618c-0.483,1.292-1.73,2.823-3.325,3.145c-0.138,0.026-0.286,0.041-0.442,0.041   c-0.523,0-1.07-0.156-1.6-0.306c-0.479-0.137-0.931-0.265-1.313-0.265C62.222,82.024,61.981,82.144,61.797,82.418z"/></g><g><path d="M80.721,78.833c-1.562,0-4.628-0.16-4.658-0.163c-0.54-0.036-1.803-0.189-1.987-0.825c-0.239-0.82,1.076-2.413,1.09-2.431   c0.053-0.062,0.1-0.128,0.148-0.195c0.304-0.423,0.681-0.949,2.087-0.949h6.035l0.08,0.048c0.412,0.254,1.063,1.049,0.573,2.24   c-0.576,1.397-1.513,2.18-2.705,2.259C81.22,78.829,80.993,78.833,80.721,78.833z M77.401,74.928c-1.067,0-1.291,0.312-1.551,0.674   c-0.058,0.08-0.114,0.16-0.176,0.236c-0.54,0.646-1.035,1.582-0.965,1.822c0.086,0.133,0.765,0.308,1.393,0.351   c0.029,0.002,4.16,0.22,5.238,0.147c0.938-0.062,1.657-0.687,2.138-1.851c0.331-0.806-0.072-1.241-0.241-1.38H77.401z"/></g><g><path d="M85.86,80.51L85.86,80.51c-0.062,0-0.125-0.002-0.187-0.008c-0.688-0.034-1.197-0.238-1.512-0.607   c-0.289-0.34-0.403-0.8-0.339-1.37c0.041-0.368,0.312-0.912,0.626-1.538c0.275-0.55,0.618-1.234,0.618-1.509   c0-0.21-0.186-0.431-0.363-0.646c-0.235-0.281-0.528-0.632-0.339-1.035c0.169-0.36,0.594-0.536,1.296-0.536   c0.731,0,1.554,0.189,1.885,0.287c1.768,0.53,2.513,1.739,2.213,3.597C89.386,79.458,87.476,80.51,85.86,80.51z M85.661,73.923   c-0.513,0-0.678,0.112-0.699,0.155c0.012,0.046,0.154,0.217,0.249,0.332c0.229,0.274,0.518,0.619,0.518,1.067   c0,0.43-0.335,1.097-0.688,1.804c-0.25,0.498-0.534,1.063-0.562,1.314c-0.042,0.381,0.021,0.674,0.188,0.869   c0.192,0.228,0.543,0.353,1.042,0.379c1.41,0.069,3.075-0.792,3.399-2.804c0.318-1.974-0.767-2.565-1.749-2.86   C87.008,74.077,86.27,73.923,85.661,73.923z"/></g><g><path d="M66.937,77.912c-1.915,0-9.34-1.941-12.744-2.996c-4.488-1.394-15.148-6.234-22.684-11.342   C21.236,56.61,13.673,48.996,9.032,40.943c-4.51-7.825-4.763-13.854-4.788-14.115c0,0,0.031-0.642,0.194-0.712   c0.178-0.076,0.55,0.551,0.55,0.551c0.101,0.152,10.085,15.099,23.382,25.071c13.722,10.291,24.223,14.739,29.863,17.128   c6.113,2.589,12.448,3.017,12.512,3.021l0.543,0.032l-0.282,0.466c-0.056,0.093-1.407,2.284-4.124,2.362h-0.063   c-2.873,0-16.408-5.498-21.335-7.996c-4.825-2.448-12.367-7.586-13.415-8.303c-0.021,0.006-0.041,0.015-0.058,0.023   c0.032,0.046,0.103,0.125,0.251,0.238c2.044,1.575,7.518,5.584,14.176,8.843c8.647,4.232,16.901,7.047,18.719,7.307   c1.837,0.262,2.685,1.15,2.521,2.637C67.631,77.912,67.109,77.912,66.937,77.912z M5.014,27.873   c0.315,2.215,1.338,7.099,4.59,12.74C14.195,48.58,21.69,56.12,31.879,63.028c7.483,5.072,18.06,9.875,22.509,11.257   c3.762,1.166,10.845,2.967,12.549,2.967c0.041,0,0.074,0,0.101-0.002c0.037-0.538-0.068-1.466-1.973-1.737   c-1.906-0.272-10.081-3.041-18.917-7.367c-6.712-3.283-12.229-7.325-14.289-8.911c-0.158-0.122-0.635-0.487-0.517-0.938   c0.111-0.42,0.64-0.516,0.745-0.53l0.128-0.018l0.106,0.073c0.083,0.057,8.332,5.739,13.461,8.34   c5.434,2.757,18.494,7.928,21.036,7.924h0.043c1.635-0.047,2.722-1.007,3.236-1.595c-1.749-0.175-7.014-0.854-12.121-3.015   c-5.667-2.401-16.217-6.87-30.002-17.21C16.646,43.771,7.595,31.533,5.014,27.873z"/></g><g><path d="M33.11,83.898c-1.213,0-3.615-0.326-6.075-2.523c-2.705-2.414-2.254-5.285-2.036-6.151l-1.003-0.64   c-1.354-0.862-2.14-2.67-2.559-4.032c-0.403-1.309-1.625-2.565-3.116-3.205c-0.663-0.283-1.001-0.814-0.928-1.452   c0.109-0.942,1.08-1.837,2.211-2.038c0.158-0.028,0.324-0.041,0.493-0.041c0.638,0,1.866,0.208,2.911,1.599   c0.455,0.606,0.69,1.23,0.94,1.892c0.317,0.84,0.678,1.795,1.586,2.944c0.924,1.171,2.079,1.961,2.923,2.537   c0.714,0.488,1.185,0.811,1.313,1.194c0.13,0.393-0.037,0.743-0.213,1.118c-0.224,0.473-0.504,1.062-0.326,2.006   c0.299,1.601,1.933,2.852,3.418,3.383c0.223,0.078,0.439,0.117,0.661,0.117c0.403,0,0.753-0.132,1.062-0.247   c0.259-0.098,0.503-0.19,0.745-0.19c0.258,0,0.476,0.104,0.646,0.311c0.079,0.092,0.171,0.188,0.262,0.283   c0.352,0.368,0.751,0.782,0.678,1.33c-0.056,0.423-0.391,0.811-1.024,1.191C35.015,83.68,34.104,83.898,33.11,83.898z    M20.097,64.473c-0.13,0-0.257,0.012-0.377,0.032c-0.918,0.165-1.604,0.892-1.671,1.465c-0.04,0.343,0.14,0.601,0.532,0.77   c1.661,0.711,3.03,2.132,3.487,3.617c0.317,1.028,1.035,2.876,2.283,3.67l1.434,0.912l-0.09,0.249   c-0.046,0.128-1.088,3.133,1.78,5.695c1.678,1.497,3.731,2.354,5.635,2.354c0.875,0,1.667-0.184,2.229-0.521   c0.552-0.332,0.689-0.57,0.708-0.711c0.031-0.234-0.239-0.514-0.5-0.786c-0.103-0.107-0.205-0.214-0.293-0.319   c-0.05-0.062-0.086-0.071-0.139-0.071c-0.121,0-0.311,0.071-0.512,0.146c-0.344,0.131-0.772,0.291-1.295,0.291   c-0.294,0-0.591-0.053-0.883-0.158c-1.663-0.594-3.497-2.023-3.845-3.881c-0.216-1.155,0.127-1.88,0.378-2.411   c0.146-0.311,0.228-0.493,0.183-0.626c-0.058-0.175-0.589-0.536-1.059-0.859c-0.878-0.6-2.082-1.423-3.069-2.674   c-0.972-1.23-1.351-2.233-1.685-3.117c-0.243-0.644-0.452-1.199-0.851-1.729C21.607,64.646,20.613,64.473,20.097,64.473z"/></g><g><path d="M21.565,76.957C21.565,76.957,21.565,76.957,21.565,76.957c-0.467,0-1.037-0.065-1.825-0.151l-0.188-0.022   c-0.633-0.069-1.21-0.083-1.721-0.095c-1.094-0.024-2.04-0.046-2.932-0.613c-1.368-0.872-1.826-2.23-1.571-3.123   c0.193-0.678,1.271-0.816,2.828-0.816c0.369,0,0.75,0.006,1.12,0.015c0.346,0.007,0.683,0.014,0.992,0.014   c0.093,0.008,1.513,0.151,2.331,0.392c0.632,0.185,1.104,0.473,1.444,0.873l0.175,0.206c0.717,0.839,1.61,1.882,0.925,2.702   C22.777,76.777,22.319,76.957,21.565,76.957z M16.156,72.793c-1.995,0-2.177,0.284-2.194,0.34   c-0.182,0.642,0.208,1.692,1.291,2.383c0.737,0.469,1.557,0.489,2.593,0.511c0.523,0.013,1.117,0.025,1.778,0.1l0.188,0.021   c0.768,0.087,1.322,0.147,1.752,0.147l0,0c0.556,0,0.836-0.1,1.071-0.382c0.328-0.392-0.364-1.2-0.919-1.85l-0.178-0.208   c-0.163-0.193-0.456-0.471-1.126-0.668c-0.76-0.224-2.163-0.364-2.177-0.366c-0.279,0.004-0.621-0.007-0.972-0.013   C16.896,72.803,16.521,72.793,16.156,72.793z"/></g><g><path d="M11.589,78.291c-1.36,0-2.887-1.238-3.553-2.884c-0.696-1.72,0.633-3.469,1.818-4.02c0.359-0.167,0.774-0.251,1.235-0.251   c0.805,0,1.585,0.266,1.875,0.524l0.197,0.175l-0.129,0.232c-0.006,0.011-0.582,1.063-0.27,1.97c0.085,0.247,0.25,0.542,0.41,0.827   c0.357,0.64,0.726,1.301,0.449,1.82c-0.041,0.078-0.08,0.161-0.12,0.247c-0.246,0.527-0.616,1.319-1.849,1.358H11.589z    M11.089,71.797c-0.364,0-0.687,0.062-0.958,0.19c-0.835,0.388-2.046,1.779-1.484,3.17c0.552,1.363,1.872,2.473,2.941,2.473h0.045   c0.826-0.026,1.032-0.466,1.27-0.978c0.045-0.098,0.09-0.191,0.136-0.279c0.107-0.199-0.211-0.77-0.443-1.186   c-0.174-0.312-0.354-0.635-0.458-0.937c-0.298-0.861-0.011-1.766,0.18-2.216C12.052,71.92,11.594,71.797,11.089,71.797z"/></g><g><path d="M59.076,67.892c-0.331,0-0.655-0.032-0.936-0.095c-0.479-0.106-0.987-0.388-1.396-0.615   c-0.195-0.106-0.341-0.174-0.495-0.249c0,0-0.499-0.379-0.103-0.679c0.647-0.488,2.096-1.627,3.469-2.439   c1.69-0.997,5.765-3.66,6.571-4.223c0.062-0.045,0.107-0.083,0.14-0.116c-0.092,0.005-0.29,0.037-0.568,0.2   c-0.473,0.274-2.65,1.586-4.757,2.854c-2.157,1.298-4.194,2.521-4.664,2.797c-0.129,0.076-0.249,0.15-0.365,0.219   c-0.595,0.362-1.108,0.675-1.797,0.675c-0.191,0-0.385-0.024-0.59-0.071c-0.988-0.229-2.385-0.744-2.719-1.004   c-0.294-0.23-0.3-0.487-0.277-0.622c0.1-0.585,1.119-0.983,1.553-1.128c0.056-0.021,5.713-1.947,14.121-7.964   c8.974-6.421,15.092-12.537,19.419-17.147c3.532-3.765,6.253-7.403,7.714-9.357c0.529-0.709,0.88-1.178,1.073-1.392   c0.057-0.063,0.23-0.255,0.469-0.255c0.142,0,0.273,0.068,0.361,0.188c0.475,0.641-0.325,3.483-0.661,4.937   c-0.851,3.671-5.146,12.69-12.408,19.605c-6.504,6.193-19.506,14.547-20.793,15.28C60.568,67.789,59.672,67.892,59.076,67.892z    M57.063,66.605c0.372,0.206,0.835,0.462,1.222,0.548c0.161,0.035,0.433,0.079,0.791,0.079c0.517,0,1.29-0.089,2.034-0.515   c1.222-0.697,14.315-9.13,20.654-15.177c6.815-6.5,11.378-15.681,12.242-19.329c0.466-1.978,0.802-3.411,0.796-4.048   c-0.198,0.248-0.499,0.649-0.879,1.158c-1.469,1.965-4.202,5.623-7.76,9.414c-4.349,4.632-10.497,10.777-19.517,17.233   C58.148,62.05,52.407,64,52.351,64.02c-0.349,0.117-0.69,0.318-0.921,0.436c-0.156,0.078-0.032,0.247,0.087,0.302   c0.455,0.212,1.397,0.559,2.217,0.748c0.724,0.166,1.19-0.096,1.896-0.525c0.118-0.071,0.243-0.147,0.375-0.223   c0.466-0.272,2.595-1.554,4.654-2.794c2.108-1.27,4.289-2.58,4.767-2.857c0.722-0.425,1.462-0.349,1.611,0.124   c0.056,0.175,0.067,0.523-0.472,0.9c-0.812,0.57-4.913,3.248-6.614,4.254c-1.141,0.675-2.164,1.479-2.837,1.864   C56.902,66.367,56.984,66.56,57.063,66.605z"/></g><g><path d="M31.847,73.321C31.847,73.321,31.847,73.321,31.847,73.321c-1.59,0-3.133-0.801-4.046-1.548   c-0.441-0.359-0.461-0.683-0.4-0.889c0.164-0.554,1.069-0.736,1.593-0.792c-0.001-0.002,2.263-0.393,3.671-0.627   c1.395-0.231,5.604-1.012,5.646-1.021l0.125-0.021l2.307,1.417c0.182,0.076,0.377,0.245,0.386,0.503   c0.012,0.386-0.376,0.71-1.298,1.087c-1.836,0.75-5.849,1.6-7.214,1.827C32.367,73.298,32.107,73.321,31.847,73.321z    M28.034,71.074c0.009,0,0.041,0.071,0.185,0.188c0.825,0.677,2.211,1.397,3.628,1.397l0,0c0.224,0,0.447-0.019,0.662-0.054   c1.638-0.272,5.402-1.103,7.072-1.785c0.475-0.194,0.702-0.336,0.808-0.42l-2.083-1.281c-0.713,0.13-4.27,0.786-5.533,1   c-1.412,0.232-3.688,0.625-3.688,0.625C28.431,70.818,28.085,70.991,28.034,71.074z"/></g><g><path d="M33.426,77.244h-3.108l-0.092-0.182c-0.114-0.229-0.099-0.511,0.046-0.837c0.362-0.816,1.614-1.96,2.831-2.298   c0.329-0.091,0.759-0.218,1.252-0.36c1.665-0.484,3.944-1.148,5.524-1.452c0.598-0.114,1.133-0.238,1.605-0.346   c1.193-0.273,2.059-0.451,2.705-0.275c0.873,0.238,2.934,1.077,3.021,1.111l0.103,0.041l0.056,0.096   c0.027,0.043,0.257,0.448,0.083,0.891c-0.13,0.327-0.434,0.562-0.904,0.696c-2.15,0.613-7.348,2.075-9.144,2.363   c-0.58,0.091-1.063,0.177-1.485,0.254C34.9,77.125,34.229,77.244,33.426,77.244z M30.84,76.583h2.586   c0.744,0,1.393-0.114,2.376-0.288c0.425-0.076,0.913-0.162,1.496-0.256c1.761-0.281,6.928-1.735,9.067-2.347   c0.255-0.073,0.423-0.183,0.471-0.303c0.03-0.078,0.017-0.163-0.001-0.224c-0.465-0.187-2.105-0.841-2.821-1.035   c-0.501-0.137-1.296,0.032-2.384,0.281c-0.477,0.11-1.018,0.233-1.627,0.352c-1.55,0.298-3.812,0.957-5.465,1.437   c-0.496,0.145-0.93,0.271-1.26,0.364c-0.993,0.274-2.108,1.263-2.404,1.928C30.86,76.527,30.849,76.557,30.84,76.583z"/></g></svg>