<svg xmlns="http://www.w3.org/2000/svg" xmlns:xlink="http://www.w3.org/1999/xlink" version="1.1" x="0px" y="0px" viewBox="0 0 100 125" enable-background="new 0 0 100 100" xml:space="preserve"><g><path d="M49.63,59.603c0-0.001,0-0.002,0-0.003v0.005c-0.001,0.303-0.098,0.565-0.261,0.787c0.14-0.053,0.279-0.105,0.419-0.158   c0.001,0,0.002,0.001,0.003,0.001c-0.101-0.186-0.16-0.396-0.161-0.631v-0.005C49.63,59.601,49.63,59.602,49.63,59.603z"/><path d="M75.398,50.607c4.038-1.518,6.659-2.504,6.882-2.587c2.369-0.891,4.146,2.972,8.872,1.196   c2.851-1.072,4.293-4.252,3.221-7.102c-0.616-1.638-1.928-2.809-3.473-3.308c0.834-1.393,1.049-3.138,0.434-4.776   c-1.072-2.851-4.252-4.293-7.102-3.221c-4.726,1.777-3.518,5.854-5.887,6.745c-0.148,0.056-1.345,0.506-3.309,1.244   C76.056,42.49,76.177,46.453,75.398,50.607z"/><path d="M91.153,59.309c-4.726-1.777-6.504,2.086-8.872,1.196c-0.26-0.098-3.763-1.415-8.969-3.372   c-1.156,2.418-2.708,4.667-4.649,6.718c-0.712,0.753-1.289,1.748-1.683,2.848c6.506,2.446,11.068,4.161,11.365,4.273   c2.369,0.891,1.161,4.968,5.887,6.745c2.851,1.072,6.031-0.37,7.102-3.221c0.616-1.638,0.4-3.383-0.434-4.776   c1.545-0.498,2.857-1.67,3.473-3.308C95.445,63.56,94.003,60.381,91.153,59.309z"/><path d="M30.598,63.851c-1.914-2.023-3.45-4.237-4.6-6.618c-5.059,1.902-8.446,3.175-8.701,3.271   c-2.369,0.891-4.146-2.972-8.873-1.196c-2.851,1.072-4.293,4.252-3.221,7.102c0.616,1.638,1.928,2.809,3.473,3.308   c-0.834,1.393-1.049,3.138-0.434,4.776c1.072,2.851,4.252,4.293,7.102,3.221c4.726-1.777,3.518-5.854,5.887-6.745   c0.293-0.11,4.719-1.774,11.065-4.16C31.897,65.657,31.308,64.601,30.598,63.851z"/><path d="M8.424,49.216c4.726,1.777,6.504-2.086,8.873-1.196c0.217,0.081,2.697,1.014,6.54,2.459   c-0.76-4.148-0.619-8.103,0.417-11.789c-1.789-0.673-2.882-1.084-3.022-1.136c-2.369-0.891-1.161-4.968-5.887-6.745   c-2.851-1.072-6.031,0.37-7.102,3.221c-0.616,1.638-0.4,3.383,0.434,4.776c-1.545,0.498-2.857,1.67-3.473,3.308   C4.132,44.964,5.574,48.144,8.424,49.216z"/><g><path d="M72.784,51.702c2.223-9.2-0.234-17.088-7.053-23.482c-4.584-4.298-10.359-6.331-16.097-6.331c-0.001,0-0.002,0-0.003,0h0    h0c-0.001,0-0.002,0-0.003,0c-5.739,0-11.513,2.032-16.097,6.331c-6.819,6.394-9.276,14.282-7.053,23.482    c0.977,4.044,2.969,7.541,5.814,10.548c1.931,2.041,3.058,5.508,2.89,8.372c-0.005,0.081-0.003,0.167,0.006,0.256    c0,0.005,0.002,0.009,0.003,0.014c-0.002,0.044-0.007,0.087-0.007,0.132c0,1.596,1.294,2.889,2.889,2.889    c1.596,0,2.889-1.294,2.889-2.889c0-0.059-0.005-0.117-0.009-0.176c0.006,0,0.012,0.001,0.018,0.001    c-0.003,0.058-0.009,0.116-0.009,0.175c0,1.596,1.294,2.889,2.889,2.889c1.589,0,2.877-1.283,2.888-2.869c0.001,0,0.001,0,0.002,0    c0.011,1.586,1.299,2.869,2.888,2.869c1.589,0,2.877-1.283,2.888-2.869c0.001,0,0.001,0,0.002,0    c0.011,1.586,1.299,2.869,2.888,2.869c1.596,0,2.889-1.294,2.889-2.889c0-0.059-0.005-0.116-0.009-0.174    c0.006,0,0.012-0.001,0.018-0.001c-0.004,0.058-0.009,0.116-0.009,0.175c0,1.596,1.294,2.889,2.889,2.889    c1.567,0,2.839-1.248,2.885-2.804c0.005-0.001,0.013-0.001,0.013-0.004c-0.005-0.084-0.009-0.654-0.011-0.744    c-0.09-2.985,1.027-6.129,2.901-8.11C69.815,59.243,71.807,55.746,72.784,51.702z M42.864,54.333    c-1.035,1.77-2.536,2.91-4.626,2.91c-0.1,0-0.201-0.003-0.303-0.008c-2.334-0.12-3.786-1.546-4.808-3.503    c-0.202-0.387-0.325-0.816-0.459-1.159c-0.357-1.252-0.497-2.467-0.386-3.645s0.471-2.32,1.113-3.425    c0.202-0.348,0.42-0.673,0.655-0.973c0.079-0.1,0.159-0.197,0.242-0.291c0.165-0.188,0.339-0.364,0.521-0.526    c0.637-0.568,1.38-0.971,2.25-1.155c0.347-0.073,0.714-0.112,1.103-0.112c0.029,0,0.057,0,0.086,0.001    c0.137,0.002,0.271,0.009,0.404,0.02c0.924,0.078,1.728,0.379,2.416,0.851c0.196,0.135,0.384,0.284,0.561,0.446    c0.178,0.162,0.346,0.337,0.506,0.523c0.159,0.187,0.31,0.385,0.451,0.594c0.141,0.209,0.274,0.428,0.397,0.657    C44.557,48.454,44.552,51.446,42.864,54.333z M52.019,61.243c-1.245,0-2.385-0.578-2.389-1.637v-0.005l0,0    c0,0.001,0,0.001,0,0.002c0-0.001,0-0.001,0-0.002l0,0v0.005c-0.004,1.059-1.145,1.637-2.389,1.637    c-1.497,0-3.145-0.837-3.145-2.679c0-2.371,5.53-4.018,5.534-4.019c0.004,0.001,5.534,1.648,5.534,4.019    C55.164,60.406,53.516,61.243,52.019,61.243z M66.134,53.733c-1.023,1.957-2.474,3.383-4.808,3.503    c-0.102,0.005-0.204,0.008-0.303,0.008c-2.09,0-3.591-1.14-4.626-2.91c-1.688-2.887-1.693-5.88-0.12-8.795    c0.123-0.229,0.256-0.448,0.397-0.657c0.141-0.209,0.292-0.407,0.451-0.594c0.159-0.186,0.328-0.361,0.506-0.523    c0.178-0.162,0.365-0.311,0.561-0.446c0.688-0.472,1.491-0.773,2.416-0.851c0.132-0.011,0.267-0.018,0.404-0.02    c0.029,0,0.057-0.001,0.086-0.001c0.389,0,0.756,0.038,1.103,0.112c0.869,0.184,1.612,0.587,2.25,1.155    c0.182,0.162,0.356,0.338,0.521,0.526c0.083,0.094,0.163,0.191,0.242,0.291c0.236,0.3,0.454,0.625,0.655,0.973    c0.642,1.106,1.002,2.247,1.113,3.425c0.11,1.178-0.029,2.393-0.386,3.645C66.459,52.917,66.336,53.346,66.134,53.733z"/><rect x="49.63" y="59.601" width="0" height="0"/><polygon points="49.63,59.601 49.63,59.601 49.63,59.601   "/></g></g></svg>