<svg xmlns="http://www.w3.org/2000/svg" xmlns:xlink="http://www.w3.org/1999/xlink" version="1.1" x="0px" y="0px" viewBox="0 0 100 125" enable-background="new 0 0 100 100" xml:space="preserve"><g><path d="M90.356,57.416c-1.027-0.385-2.039-0.581-3.006-0.581c-1.871,0-3.241,0.697-4.343,1.257   c-0.595,0.302-1.156,0.588-1.509,0.588c-0.074,0-0.14-0.013-0.21-0.039c-0.175-0.067-1.797-0.676-4.413-1.66l-3.204-1.205   c0.63-1.395,1.135-2.841,1.498-4.342c0.035-0.143,0.058-0.283,0.09-0.425l6.025-2.265c0.074-0.028,0.14-0.04,0.214-0.04   c0.353,0,0.915,0.286,1.509,0.588c1.101,0.56,2.472,1.257,4.342,1.257c0.968,0,1.979-0.196,3.007-0.582   c3.702-1.391,5.581-5.536,4.189-9.237c-0.572-1.521-1.62-2.775-2.975-3.598c0.477-1.513,0.44-3.147-0.133-4.668   c-1.045-2.782-3.744-4.65-6.714-4.65c-0.862,0-1.711,0.155-2.523,0.46c-3.462,1.301-4.438,3.737-5.084,5.349   c-0.392,0.979-0.6,1.42-0.936,1.547l-1.756,0.66c-1.397-3.572-3.697-6.875-6.909-9.886c-4.738-4.442-10.956-6.888-17.517-6.888   c-6.553,0-12.771,2.446-17.507,6.888c-3.211,3.011-5.512,6.314-6.909,9.886l-1.757-0.661c-0.337-0.126-0.544-0.568-0.936-1.547   c-0.646-1.612-1.622-4.048-5.084-5.349c-0.812-0.306-1.661-0.46-2.523-0.46c-2.971,0-5.669,1.868-6.715,4.65   c-0.572,1.521-0.609,3.155-0.132,4.668c-1.355,0.823-2.404,2.077-2.975,3.598c-1.392,3.702,0.487,7.846,4.189,9.237   c1.028,0.386,2.039,0.582,3.007,0.582c1.87,0,3.241-0.696,4.342-1.257c0.595-0.302,1.156-0.588,1.509-0.588   c0.074,0,0.14,0.012,0.217,0.041l6.022,2.264c0.032,0.142,0.056,0.282,0.09,0.425c0.363,1.501,0.868,2.948,1.498,4.342   l-3.636,1.367c-2.361,0.888-3.815,1.434-3.976,1.495c-0.074,0.028-0.14,0.041-0.214,0.041c-0.353,0-0.915-0.286-1.51-0.588   c-1.101-0.56-2.472-1.257-4.343-1.257c-0.967,0-1.979,0.196-3.006,0.581c-3.702,1.393-5.581,5.537-4.189,9.239   c0.572,1.521,1.621,2.775,2.975,3.598c-0.477,1.513-0.44,3.146,0.132,4.668c1.045,2.781,3.744,4.649,6.714,4.649   c0.862,0,1.711-0.155,2.523-0.46c3.462-1.301,4.438-3.738,5.084-5.349c0.392-0.979,0.599-1.421,0.937-1.548l9.787-3.679   c0.081,0.613,0.117,1.222,0.083,1.804c-0.007,0.128-0.006,0.262,0.002,0.39c-0.001,0.041-0.003,0.085-0.003,0.104   c0,2.474,2.013,4.488,4.488,4.488c1.13,0,2.164-0.42,2.954-1.112c0.79,0.692,1.824,1.112,2.954,1.112   c1.128,0,2.163-0.421,2.954-1.116c0.791,0.695,1.825,1.116,2.954,1.116c1.128,0,2.163-0.421,2.954-1.116   c0.791,0.695,1.825,1.116,2.954,1.116c1.13,0,2.164-0.419,2.954-1.112c0.79,0.693,1.824,1.112,2.954,1.112   c2.366,0,4.287-1.794,4.471-4.127c0.021-0.116,0.03-0.236,0.024-0.356c-0.003-0.075-0.004-0.274-0.006-0.439l-0.004-0.29   c-0.016-0.522,0.022-1.05,0.086-1.575l9.794,3.682c0.336,0.126,0.543,0.568,0.936,1.547c0.646,1.612,1.622,4.048,5.084,5.349   c0.813,0.306,1.662,0.46,2.524,0.46c2.97,0,5.668-1.868,6.714-4.649c0.573-1.522,0.61-3.155,0.133-4.668   c1.355-0.823,2.404-2.077,2.975-3.598C95.937,62.953,94.058,58.809,90.356,57.416z M77.26,38.042   c1.637-0.615,2.203-2.03,2.704-3.277c0.576-1.436,1.119-2.793,3.316-3.619c0.466-0.175,0.952-0.264,1.443-0.264   c1.7,0,3.245,1.069,3.843,2.662c0.443,1.177,0.325,2.473-0.324,3.556c-0.24,0.401-0.284,0.89-0.119,1.328   c0.164,0.438,0.519,0.776,0.965,0.92c1.201,0.387,2.143,1.285,2.586,2.462c0.796,2.118-0.28,4.49-2.398,5.286   c-0.691,0.26-1.321,0.386-1.927,0.386c-1.135,0-2.018-0.448-2.952-0.924c-0.891-0.452-1.812-0.921-2.9-0.921   c-0.441,0-0.876,0.079-1.291,0.236l-4.27,1.605c0.3-3.027,0.137-5.959-0.485-8.756L77.26,38.042z M24.069,47.478l-4.268-1.605   c-0.417-0.157-0.853-0.236-1.294-0.236c-1.088,0-2.009,0.468-2.9,0.921c-0.934,0.475-1.816,0.923-2.952,0.923   c-0.606,0-1.237-0.126-1.927-0.385c-2.118-0.797-3.194-3.168-2.398-5.287c0.443-1.177,1.386-2.075,2.586-2.462   c0.445-0.144,0.8-0.482,0.965-0.92c0.165-0.437,0.121-0.926-0.119-1.328c-0.649-1.083-0.766-2.379-0.324-3.556   c0.599-1.592,2.143-2.662,3.844-2.662c0.492,0,0.977,0.089,1.443,0.264c2.197,0.826,2.741,2.183,3.316,3.619   c0.5,1.248,1.067,2.662,2.703,3.277l1.809,0.681C23.931,41.52,23.769,44.452,24.069,47.478z M22.745,69.342   c-1.637,0.615-2.204,2.03-2.704,3.278c-0.576,1.436-1.119,2.792-3.317,3.618c-0.466,0.176-0.952,0.265-1.443,0.265   c-1.7,0-3.245-1.069-3.843-2.662c-0.442-1.177-0.325-2.473,0.324-3.556c0.24-0.401,0.284-0.89,0.119-1.328   c-0.164-0.437-0.52-0.776-0.965-0.92c-1.201-0.387-2.143-1.284-2.586-2.462c-0.796-2.118,0.28-4.49,2.398-5.286   c0.691-0.26,1.321-0.385,1.926-0.385c1.135,0,2.018,0.448,2.952,0.924c0.891,0.453,1.812,0.922,2.9,0.922c0,0,0,0,0.001,0   c0.441,0,0.876-0.08,1.298-0.239c0.165-0.063,1.616-0.608,3.972-1.494l3.952-1.486c1.183,2.027,2.587,3.599,4.042,5.141   c0.397,0.558,0.742,1.202,1.031,1.89L22.745,69.342z M65.777,61.825c-0.735,0.827-1.109,1.645-1.482,2.685   c-0.728,1.773-1.12,3.745-1.062,5.684l0.003,0.237c0.001,0.104,0.002,0.219,0.004,0.319c-0.004,0.041-0.007,0.083-0.009,0.125   c-0.022,0.773-0.645,1.378-1.416,1.378c-0.783,0-1.42-0.637-1.414-1.498c0.028-0.423-0.12-0.84-0.41-1.149   c-0.29-0.311-0.695-0.486-1.12-0.486c-0.042,0-0.094,0.002-0.136,0.006v0.001c-0.379,0.036-0.733,0.241-0.996,0.52   c-0.29,0.307-0.437,0.765-0.412,1.186c0,0.783-0.637,1.42-1.42,1.42c-0.758,0-1.384-0.602-1.42-1.354c0-0.011,0-0.022,0-0.032   h-0.001c0-0.009,0-0.017,0-0.026c-0.007-0.842-0.692-1.521-1.534-1.521c0,0,0,0-0.001,0c-0.842,0.001-1.527,0.68-1.533,1.523   c-0.005,0.778-0.642,1.41-1.419,1.41c-0.758,0-1.384-0.602-1.42-1.354c0-0.011,0-0.022,0-0.032h-0.001c0-0.009,0-0.017,0-0.026   c-0.007-0.842-0.692-1.521-1.534-1.521c0,0,0,0-0.001,0c-0.842,0.001-1.527,0.68-1.533,1.523c-0.005,0.778-0.642,1.41-1.419,1.41   c-0.783,0-1.42-0.637-1.414-1.508c0.046-0.784-0.506-1.476-1.281-1.604c-0.041-0.007-0.091-0.013-0.133-0.017v0.001   c-0.417-0.026-0.839,0.146-1.157,0.431c-0.347,0.312-0.53,0.81-0.503,1.276c0,0.783-0.637,1.42-1.42,1.42s-1.42-0.637-1.421-1.381   c0-0.008,0.006-0.098,0.006-0.106c0.003-0.065,0.001-0.131-0.004-0.196c-0.001-0.019-0.003-0.039-0.006-0.059h0   c0.108-1.842-0.236-3.803-0.907-5.593c-0.003-0.011-0.001-0.022-0.005-0.032c-0.432-1.247-0.8-2.15-1.641-3.087   c-0.258-0.353-0.53-0.687-0.819-0.993c-2.789-2.948-4.662-6.343-5.568-10.091c-2.115-8.754,0.162-16.335,6.77-22.531   c4.167-3.907,9.639-6.058,15.417-6.058c5.771,0,11.244,2.151,15.411,6.058c6.608,6.196,8.886,13.777,6.77,22.531   c-0.906,3.749-2.779,7.144-5.567,10.091C66.32,61.121,66.042,61.465,65.777,61.825z M91.674,65.574   c-0.442,1.178-1.385,2.075-2.586,2.462c-0.445,0.144-0.8,0.482-0.965,0.92c-0.165,0.438-0.121,0.927,0.119,1.328   c0.649,1.082,0.766,2.379,0.324,3.556c-0.599,1.593-2.143,2.662-3.843,2.662c-0.492,0-0.978-0.089-1.444-0.265   c-2.197-0.826-2.741-2.182-3.316-3.619c-0.5-1.247-1.067-2.662-2.703-3.276l-10.08-3.79c0.285-0.672,0.628-1.301,1.029-1.858   c1.463-1.55,2.876-3.128,4.065-5.165l3.52,1.324c2.61,0.981,4.229,1.59,4.409,1.658c0.417,0.157,0.853,0.237,1.294,0.237   c1.088,0,2.009-0.468,2.9-0.922c0.935-0.475,1.817-0.924,2.953-0.924c0.606,0,1.236,0.126,1.926,0.385   C91.395,61.085,92.471,63.456,91.674,65.574z"/><path d="M66.605,44.737c-0.206-0.355-0.429-0.689-0.67-0.995c-0.08-0.102-0.163-0.201-0.247-0.298   c-0.169-0.192-0.346-0.372-0.532-0.538c-0.652-0.581-1.411-0.993-2.3-1.181c-0.355-0.075-0.73-0.114-1.128-0.114   c-0.029,0-0.058,0-0.088,0.001c-0.14,0.002-0.278,0.009-0.413,0.02c-0.945,0.08-1.767,0.387-2.47,0.87   c-0.201,0.138-0.392,0.29-0.574,0.456c-0.182,0.166-0.354,0.344-0.517,0.535c-0.163,0.191-0.317,0.393-0.461,0.607   c-0.145,0.214-0.28,0.438-0.406,0.672c-1.608,2.981-1.603,6.041,0.123,8.993c1.058,1.81,2.593,2.976,4.73,2.976   c0.102,0,0.205-0.003,0.31-0.008c2.387-0.122,3.871-1.581,4.917-3.582c0.207-0.396,0.333-0.835,0.469-1.185   c0.366-1.28,0.508-2.522,0.395-3.727C67.629,47.035,67.261,45.867,66.605,44.737z"/><path d="M43.207,44.772c-0.126-0.234-0.261-0.458-0.406-0.672c-0.144-0.213-0.298-0.416-0.461-0.607   c-0.163-0.191-0.335-0.369-0.517-0.535c-0.182-0.166-0.373-0.318-0.574-0.456c-0.703-0.483-1.525-0.79-2.47-0.87   c-0.135-0.011-0.273-0.018-0.413-0.02c-0.029,0-0.059-0.001-0.088-0.001c-0.397,0-0.773,0.039-1.128,0.114   c-0.889,0.188-1.649,0.6-2.3,1.181c-0.186,0.166-0.364,0.346-0.532,0.538c-0.085,0.096-0.167,0.195-0.247,0.298   c-0.241,0.306-0.464,0.64-0.67,0.995c-0.656,1.131-1.025,2.298-1.138,3.503c-0.113,1.205,0.03,2.447,0.395,3.727   c0.136,0.35,0.262,0.789,0.469,1.185c1.046,2.001,2.53,3.459,4.917,3.582c0.105,0.005,0.208,0.008,0.31,0.008   c2.137,0,3.672-1.166,4.73-2.976C44.809,50.812,44.815,47.753,43.207,44.772z"/><path d="M50.002,53.982c-0.005,0.001-5.659,1.685-5.659,4.109c0,1.884,1.685,2.739,3.216,2.739c0.923,0,1.783-0.315,2.192-0.899   c-0.006,0.009-0.009,0.02-0.015,0.029c0.143-0.054,0.285-0.107,0.429-0.161c0.001,0,0.002,0.001,0.003,0.001   c-0.022-0.04-0.033-0.085-0.051-0.127c0.312,0.749,1.279,1.157,2.328,1.157c1.531,0,3.216-0.856,3.216-2.739   C55.661,55.667,50.007,53.983,50.002,53.982z M49.894,59.66c0.012-0.03,0.03-0.058,0.04-0.089   C49.924,59.602,49.906,59.629,49.894,59.66z M50.002,59.156c0,0.126,0.02,0.244,0.05,0.356   C50.022,59.4,50.003,59.282,50.002,59.156z"/></g></svg>