<svg xmlns="http://www.w3.org/2000/svg" xmlns:xlink="http://www.w3.org/1999/xlink" version="1.1" x="0px" y="0px" viewBox="0 0 512 640" enable-background="new 0 0 512 512" xml:space="preserve"><g><path d="M309.336,137.82V64h10.672V0H192v64h10.664v73.82c-56.133,21.469-85.328,75.828-85.328,139.523v135.547v56.453v32   c0,5.875,4.773,10.656,10.664,10.656h256.008c5.875,0,10.656-4.781,10.656-10.656v-32v-56.453V277.344   C394.664,213.648,365.477,159.289,309.336,137.82z M213.336,21.336h85.328v21.328h-85.328V21.336z M210.289,157.742L224,152.5   v-14.68V64h64.008v73.82v14.68l13.703,5.242c22.703,8.68,40.516,23.773,52.969,44.852c9.047,15.328,14.922,33.508,17.359,53.406   H139.953c2.438-19.898,8.313-38.078,17.367-53.406C169.773,181.516,187.594,166.422,210.289,157.742z M373.336,384H138.664V277.344   h234.672V384z M373.336,469.344v21.313H138.664v-21.313v-56.453v-7.547h234.672v7.547V469.344z"/><path d="M152.461,344.453c-1.93,1.922-3.125,4.609-3.125,7.547c0,5.891,4.773,10.656,10.664,10.656   c2.945,0,5.617-1.188,7.547-3.125l13.789-13.781l13.781,13.781c1.938,1.938,4.602,3.125,7.547,3.125   c5.891,0,10.672-4.766,10.672-10.656c0-2.938-1.195-5.625-3.133-7.547l-13.781-13.797l13.781-13.781   c1.938-1.938,3.133-4.594,3.133-7.531c0-5.906-4.781-10.688-10.672-10.688c-2.945,0-5.609,1.203-7.547,3.141l-13.781,13.781   l-13.789-13.781c-1.93-1.938-4.602-3.141-7.547-3.141c-5.891,0-10.664,4.781-10.664,10.688c0,2.938,1.195,5.594,3.125,7.531   l13.789,13.781L152.461,344.453z"/><path d="M227.125,344.453c-1.93,1.922-3.125,4.609-3.125,7.547c0,5.891,4.773,10.656,10.664,10.656   c2.953,0,5.617-1.188,7.547-3.125L256,345.75l13.789,13.781c1.938,1.938,4.594,3.125,7.547,3.125   c5.891,0,10.672-4.766,10.672-10.656c0-2.938-1.203-5.625-3.125-7.547l-13.797-13.797l13.797-13.781   c1.922-1.938,3.125-4.594,3.125-7.531c0-5.906-4.781-10.688-10.672-10.688c-2.953,0-5.609,1.203-7.547,3.141L256,315.578   l-13.789-13.781c-1.93-1.938-4.594-3.141-7.547-3.141c-5.891,0-10.664,4.781-10.664,10.688c0,2.938,1.195,5.594,3.125,7.531   l13.789,13.781L227.125,344.453z"/><path d="M301.789,344.453c-1.938,1.922-3.125,4.609-3.125,7.547c0,5.891,4.781,10.656,10.672,10.656   c2.953,0,5.609-1.188,7.547-3.125l13.781-13.781l13.781,13.781c1.938,1.938,4.609,3.125,7.563,3.125   c5.875,0,10.656-4.766,10.656-10.656c0-2.938-1.188-5.625-3.125-7.547l-13.781-13.797l13.781-13.781   c1.938-1.938,3.125-4.594,3.125-7.531c0-5.906-4.781-10.688-10.656-10.688c-2.953,0-5.625,1.203-7.563,3.141l-13.781,13.781   l-13.781-13.781c-1.938-1.938-4.594-3.141-7.547-3.141c-5.891,0-10.672,4.781-10.672,10.688c0,2.938,1.188,5.594,3.125,7.531   l13.781,13.781L301.789,344.453z"/></g></svg>