<svg xmlns="http://www.w3.org/2000/svg" xmlns:xlink="http://www.w3.org/1999/xlink" version="1.1" x="0px" y="0px" viewBox="0 0 512 640" enable-background="new 0 0 512 512" xml:space="preserve"><g><path d="M384,53.313L256,74.672L128,53.313L0,74.672v384.016l128-21.359l128,21.359l128-21.344l128,21.344V74.672L384,53.313z    M490.656,433.5l-96-16.031V296.063c-4.891-1.281-10.203-2.625-15.891-3.938c-1.828-0.438-3.641-0.844-5.438-1.25v126.594   l-106.672,17.813V277.438c-3.781-0.078-7.359-0.125-10.656-0.125c-3.594,0-7.125,0.063-10.672,0.125v157.844l-106.672-17.813   V290.391c-7.656,1.609-14.813,3.266-21.328,4.859v122.219l-96,16.031V92.742l96-16.016v152.688   c6.719-1.5,13.844-2.992,21.328-4.414V76.727l106.672,17.797v118.898c3.547-0.063,7.078-0.109,10.672-0.109   c3.547,0,7.109,0.055,10.656,0.125V94.523l106.672-17.797v148.609c6.766,1.359,13.516,2.813,20.281,4.406   c0.344,0.086,0.688,0.156,1.047,0.25V76.727l96,16.016V433.5z"/><path d="M60.391,267.297l7.203,20.078c0.141-0.063,15.359-5.484,39.953-11.734l-5.266-20.672   C76.625,261.5,61.047,267.063,60.391,267.297z"/><path d="M215.063,236.227l1.609,21.273c13.344-1,26.594-1.508,39.328-1.508c11.156,0,22.656,0.391,34.156,1.156l1.438-21.281   c-11.984-0.813-23.969-1.219-35.594-1.219C242.719,234.648,228.953,235.188,215.063,236.227z"/><path d="M120.828,250.523l4.672,20.813c24.453-5.5,48.938-9.586,72.828-12.148l-2.281-21.219   C171.375,240.617,146.047,244.852,120.828,250.523z"/><path d="M308.5,258.695c24.047,2.438,48.5,6.477,72.719,12.031l4.766-20.789c-25.078-5.75-50.422-9.945-75.328-12.469   L308.5,258.695z"/><path d="M408.453,263.531l13.781,13.781l-13.781,13.797c-1.938,1.922-3.125,4.594-3.125,7.547c0,5.891,4.781,10.656,10.672,10.656   c2.938,0,5.609-1.188,7.547-3.125l13.781-13.781l13.781,13.781c1.938,1.938,4.609,3.125,7.547,3.125   c5.891,0,10.672-4.766,10.672-10.656c0-2.953-1.203-5.625-3.125-7.547l-13.797-13.797l13.797-13.781   c1.922-1.93,3.125-4.594,3.125-7.539c0-5.891-4.781-10.68-10.672-10.68c-2.938,0-5.609,1.195-7.547,3.133l-13.781,13.781   l-13.781-13.781c-1.938-1.938-4.609-3.133-7.547-3.133c-5.891,0-10.672,4.789-10.672,10.68   C405.328,258.938,406.516,261.602,408.453,263.531z"/></g></svg>