<svg xmlns="http://www.w3.org/2000/svg" xmlns:xlink="http://www.w3.org/1999/xlink" version="1.1" x="0px" y="0px" viewBox="0 0 32 40" enable-background="new 0 0 32 32" xml:space="preserve"><g display="none"><g display="inline"><g><path fill="#000000" d="M17,16v1l-0.5,12h-1L15,17v-1H17 M17,15h-2c-0.552,0-1,0.448-1,1v1l0.501,12.042     C14.523,29.577,14.964,30,15.5,30h1c0.536,0,0.977-0.423,0.999-0.958l0.5-12L18,16C18,15.448,17.552,15,17,15L17,15z"/></g><g><path fill="#000000" d="M16,16.5c-2.481,0-4.5-2.019-4.5-4.5V5.5h9V12C20.5,14.481,18.481,16.5,16,16.5z"/><path fill="#000000" d="M20,6v6c0,2.206-1.794,4-4,4s-4-1.794-4-4V6H20 M21,5H11v7c0,2.761,2.239,5,5,5s5-2.239,5-5V5L21,5z"/></g><g><path fill="#000000" d="M22,3v2H10V3H22 M22,2H10C9.448,2,9,2.448,9,3v2c0,0.552,0.448,1,1,1h12c0.552,0,1-0.448,1-1V3     C23,2.448,22.552,2,22,2L22,2z"/></g><g><path fill="#000000" d="M14,29.5c-0.276,0-0.5-0.224-0.5-0.5c0-0.855,1.075-1.5,2.5-1.5s2.5,0.645,2.5,1.5     c0,0.276-0.224,0.5-0.5,0.5H14z"/><path fill="#000000" d="M16,28c1.105,0,2,0.448,2,1h-4C14,28.448,14.895,28,16,28 M16,27c-1.738,0-3,0.841-3,2     c0,0.552,0.448,1,1,1h4c0.552,0,1-0.448,1-1C19,27.841,17.738,27,16,27L16,27z"/></g></g></g><g><path d="M22,2H10C9.448,2,9,2.448,9,3v2c0,0.552,0.448,1,1,1h1v6c0,2.049,1.236,3.806,3,4.578V17l0.428,10.278   C13.555,27.616,13,28.236,13,29c0,0.552,0.448,1,1,1h4c0.552,0,1-0.448,1-1c0-0.764-0.555-1.384-1.427-1.722l0.427-10.237l0-0.464   c1.765-0.772,3-2.529,3-4.578V6h1c0.552,0,1-0.448,1-1V3C23,2.448,22.552,2,22,2z M18,29h-4c0-0.552,0.895-1,2-1S18,28.448,18,29z    M15,17v-0.101C15.323,16.965,15.657,17,16,17s0.677-0.035,1-0.101V17l-0.418,10.036C16.395,27.014,16.201,27,16,27   s-0.395,0.014-0.582,0.036L15,17z M20,12c0,2.206-1.794,4-4,4s-4-1.794-4-4V6h8V12z M22,5h-1H11h-1V3h12V5z"/></g></svg>