<svg xmlns="http://www.w3.org/2000/svg" viewBox="0 0 64 80" x="0px" y="0px"><g><polygon points="14.515 35.857 19 33.166 23.485 35.857 24.515 34.143 20.944 32 24.515 29.857 23.485 28.143 19 30.834 14.515 28.143 13.485 29.857 17.056 32 13.485 34.143 14.515 35.857"/><polygon points="44.555 21.832 47 20.202 49.445 21.832 50.555 20.168 48.803 19 50.555 17.832 49.445 16.168 47 17.798 44.555 16.168 43.445 17.832 45.197 19 43.445 20.168 44.555 21.832"/><polygon points="43.6 37.8 47 35.25 50.4 37.8 51.6 36.2 48.667 34 51.6 31.8 50.4 30.2 47 32.75 43.6 30.2 42.4 31.8 45.333 34 42.4 36.2 43.6 37.8"/><path d="M62,51V43H47V41h8a1,1,0,0,0,.832-.445A13.611,13.611,0,0,0,58,34a13.611,13.611,0,0,0-2.168-6.555A1,1,0,0,0,55,27H47V25h6a1,1,0,0,0,.781-.375A10.488,10.488,0,0,0,56,19a10.488,10.488,0,0,0-2.219-5.625A1,1,0,0,0,53,13H47V3a1,1,0,0,0-1.316-.949l-9,3a1,1,0,0,0,0,1.9L45,9.721V13H38a1,1,0,0,0-.781,1.625A8.371,8.371,0,0,1,39,19a8.569,8.569,0,0,1-1.782,4.376A1,1,0,0,0,38,25h7v2H37a1,1,0,0,0-.832,1.555A11.647,11.647,0,0,1,38,34a11.725,11.725,0,0,1-1.833,5.446A1,1,0,0,0,37,41h8v2.382L39.764,46H20V40h8a1,1,0,0,0,.832-.445,14.248,14.248,0,0,0,0-15.11A1,1,0,0,0,28,24H20V22h3a1,1,0,0,0,.949-.684l2-6A1,1,0,0,0,25,14H20V3a1,1,0,0,0-1.243-.97l-16,4a1,1,0,0,0,0,1.94L18,11.781V14H13a1,1,0,0,0-.949,1.316l2,6A1,1,0,0,0,15,22h3v2H8a1,1,0,0,0-.832,1.555A12.827,12.827,0,0,1,9,32a12.962,12.962,0,0,1-1.833,6.447A1,1,0,0,0,8,40H18v3H2v8H7v5.468L13.638,62H39.327l.263-.193h0L42.056,60H57a1,1,0,0,0,1-1V54a1,1,0,0,0-1-1H51.6l2.727-2ZM40.162,6,45,4.387V7.613Zm-.33,9H52.5A7.99,7.99,0,0,1,54,19a7.92,7.92,0,0,1-1.51,4H39.832A8.721,8.721,0,0,0,41,19,8.721,8.721,0,0,0,39.832,15ZM38.7,29H54.438A11.025,11.025,0,0,1,56,34a11.08,11.08,0,0,1-1.563,5H38.7A12,12,0,0,0,40,34,12,12,0,0,0,38.7,29ZM7.123,7,18,4.281V9.719Zm7.264,9h9.226l-1.334,4H15.721ZM9.662,26H27.43A12.942,12.942,0,0,1,29,32a13.036,13.036,0,0,1-1.572,6H9.662A14.767,14.767,0,0,0,11,32,14.767,14.767,0,0,0,9.662,26Zm4.7,34L9,55.532V55h4.142a3.981,3.981,0,0,0,7.716,0h2.284a3.981,3.981,0,0,0,7.716,0h2.284a3.981,3.981,0,0,0,7.716,0H45.49l-4.354,3.193,0,0L38.673,60ZM15,54a2,2,0,1,1,2,2A2,2,0,0,1,15,54Zm10,0a2,2,0,1,1,2,2A2,2,0,0,1,25,54Zm10,0a2,2,0,1,1,2,2A2,2,0,0,1,35,54Zm21,4H44.785l4.092-3H56Zm-7.782-5h-7.36a3.981,3.981,0,0,0-7.716,0H30.858a3.981,3.981,0,0,0-7.716,0H20.858a3.981,3.981,0,0,0-7.716,0H9V51h3V49H4V45H6v2H8V45h2v2h2V45h6v3H40.236l6-3H48v2h2V45h2v2h2V45h2v2h2V45h2v4H53.673Z"/></g></svg>