<svg xmlns="http://www.w3.org/2000/svg" xmlns:xlink="http://www.w3.org/1999/xlink" version="1.1" x="0px" y="0px" viewBox="0 0 100 125" style="enable-background:new 0 0 100 100;" xml:space="preserve"><g><path d="M88.4,50.7L76.5,6.1c-0.1-0.5-0.5-0.9-1-1c-0.5-0.2-1-0.1-1.4,0.2c-0.1,0.1-7.8,5.9-16.6,8.2c-4.2,1.1-8.7-0.1-13.5-1.5   c-4.9-1.4-10-2.8-15-1.5c-9.5,2.6-16.9,11.2-17.2,11.5c-0.3,0.4-0.4,0.9-0.3,1.4l18.9,70.4c0.2,0.7,0.8,1.1,1.4,1.1   c0.1,0,0.3,0,0.4-0.1c0.8-0.2,1.3-1,1.1-1.8L14.7,23.5c1.8-1.9,7.9-8,15.2-10c4.2-1.1,8.7,0.1,13.5,1.5c4.9,1.4,10,2.8,15,1.5   c6.8-1.8,12.9-5.5,15.8-7.5l11.1,41.5c-2.2,1.5-8.7,5.7-15.8,7.6c-4.2,1.1-8.7-0.1-13.5-1.5c-4.9-1.4-10-2.8-15-1.5   c-3.5,0.9-7.1,2.8-10.8,5.6c-0.7,0.5-0.8,1.4-0.3,2.1c0.5,0.7,1.4,0.8,2.1,0.3c3.3-2.5,6.6-4.2,9.7-5.1c4.2-1.1,8.7,0.1,13.5,1.5   c4.9,1.4,10.1,2.8,15,1.5c9.4-2.5,17.3-8.5,17.6-8.7C88.4,51.9,88.6,51.2,88.4,50.7z"/><path d="M57.1,22.3c-0.7-0.4-1.6-0.2-2,0.5l-1.9,3.3c-1.7-0.6-3.6-0.8-5.5-0.3c-1.9,0.5-3.4,1.6-4.6,3L39.7,27   c-0.7-0.4-1.6-0.2-2,0.5c-0.4,0.7-0.2,1.6,0.5,2l3.3,1.9c-0.6,1.7-0.8,3.6-0.3,5.5c0.5,1.8,1.6,3.4,3,4.6l-1.9,3.4   c-0.4,0.7-0.2,1.6,0.5,2c0.4,0.2,0.8,0.2,1.1,0.2c0.4-0.1,0.7-0.3,0.9-0.7l1.9-3.3c0.3,0.1,0.5,0.2,0.8,0.3l0.3,1.2   c0.2,0.8,1,1.3,1.8,1.1c0.3-0.1,0.5-0.2,0.7-0.4c0.4,0.3,0.9,0.5,1.4,0.3c0.4-0.1,0.7-0.3,0.9-0.6c0.3,0.2,0.7,0.2,1.1,0.1   c0.5-0.1,0.9-0.5,1-1c0.2,0.1,0.5,0.1,0.8,0c0,0,0.1,0,0.1-0.1c0,0,0.1,0,0.1,0c0.8-0.2,1.3-1,1.1-1.8l-0.4-1.3   c0.1-0.1,0.2-0.3,0.3-0.4l3.3,1.9c0.4,0.2,0.8,0.2,1.1,0.2c0.4-0.1,0.7-0.3,0.9-0.7c0.4-0.7,0.2-1.6-0.5-2l-3.3-1.9   c0.6-1.7,0.8-3.6,0.3-5.5c-0.5-1.9-1.6-3.4-3-4.6l1.9-3.3C58.1,23.6,57.8,22.7,57.1,22.3z M55.8,33.1c0.6,2.2-0.1,4.6-1.9,6.1   c-0.3,0.3-0.5,0.7-0.5,1.1c0,0.2,0,0.3,0.1,0.5l0.3,1.3c0,0,0,0.1,0,0.1c-0.2-0.1-0.5-0.1-0.8,0c-0.4,0.1-0.7,0.3-0.9,0.6   c-0.3-0.2-0.7-0.2-1.1-0.1c-0.2,0-0.3,0.1-0.5,0.2l-0.3-1.2c-0.1-0.5-0.5-0.8-0.9-1c-0.1-0.1-0.3-0.1-0.4-0.1   c-2.3-0.4-4.2-2.1-4.9-4.4c-0.9-3.2,1-6.5,4.2-7.3S54.9,29.9,55.8,33.1z"/><path d="M56,45c-1.5,1.7-4,2.3-6.1,1.6c-0.8-0.3-1.6,0.1-1.9,0.9c-0.3,0.8,0.1,1.6,0.9,1.9c1.7,0.6,3.5,0.7,5.2,0.2   c1.7-0.4,3.1-1.4,4.2-2.6c0.5-0.6,0.5-1.6-0.1-2.1S56.5,44.4,56,45z"/><path d="M52.3,33.5c-1.1,0.3-1.7,1.4-1.4,2.4c0,0.1,0.1,0.3,0.2,0.4c-0.2,0-0.4,0-0.6,0c-0.2,0-0.4,0.1-0.5,0.2   c0-0.1,0-0.3-0.1-0.4c-0.3-1.1-1.4-1.7-2.4-1.4c-1.1,0.3-1.7,1.4-1.4,2.4c0.3,1.1,1.4,1.7,2.4,1.4c0.4-0.1,0.7-0.3,0.9-0.5   c0,0,0,0.1,0,0.1l0.4,1.4c0.2,0.8,1,1.3,1.8,1.1c0.8-0.2,1.3-1,1.1-1.8l-0.4-1.4c0,0,0-0.1,0-0.1c0.3,0.1,0.7,0.1,1,0   c1.1-0.3,1.7-1.4,1.4-2.4S53.4,33.2,52.3,33.5z"/></g></svg>