<svg xmlns="http://www.w3.org/2000/svg" xmlns:xlink="http://www.w3.org/1999/xlink" version="1.1" x="0px" y="0px" viewBox="0 0 32 40" enable-background="new 0 0 32 32" xml:space="preserve"><g display="none"><g display="inline"><g><path fill="#000000" d="M19,18.005c0,1.105-1.119,2-2.5,2s-2.5-0.895-2.5-2H19 M20,17.005h-1h-5h-1v1c0,1.654,1.57,3,3.5,3     s3.5-1.346,3.5-3V17.005L20,17.005z"/></g><g><path fill="#000000" d="M16,13.5c-0.276,0-0.5-0.224-0.5-0.5v-2c0-0.276,0.224-0.5,0.5-0.5h14c0.276,0,0.5,0.224,0.5,0.5v2     c0,0.276-0.224,0.5-0.5,0.5H16z"/><path fill="#000000" d="M30,11v2H16v-2H30 M30,10H16c-0.552,0-1,0.448-1,1v2c0,0.552,0.448,1,1,1h14c0.552,0,1-0.448,1-1v-2     C31,10.448,30.552,10,30,10L30,10z"/></g><path fill="#000000" d="M21,10c2.209,0,4,1.791,4,4s-1.791,4-4,4l-7,0.005C11.5,18,10.5,19,10.5,20.5    c0,0.468,0.251,0.994,0.5,1.495C11.5,23,9,25,6.5,25S2,22.995,2,21.995c0-7.995,7-12,12-12C17,9.995,21,10,21,10z"/><g><path fill="#000000" d="M6.5,24.5c-2.093,0-3.642-1.52-3.945-2.274l3.945-2.63l4.062,2.708c-0.007,0.074-0.043,0.183-0.13,0.323     C9.959,23.393,8.285,24.5,6.5,24.5z"/><path fill="#000000" d="M6.5,20.197l3.432,2.288C9.497,23.038,8.107,24,6.5,24c-1.603,0-2.815-0.991-3.287-1.612L6.5,20.197      M6.5,18.995l-4.5,3C2,22.995,4,25,6.5,25s5-2,4.5-3.005L6.5,18.995L6.5,18.995z"/></g><path fill="#000000" stroke="#FF0000" stroke-linejoin="round" stroke-miterlimit="10" d="M21,8"/><g><path fill="#000000" d="M15,8.5C15,8.775,14.775,9,14.5,9l0,0C14.225,9,14,8.775,14,8.5v-1C14,7.225,14.225,7,14.5,7l0,0     C14.775,7,15,7.225,15,7.5V8.5z"/></g><path fill="#000000" d="M13,17c-1.657,0-3-1.343-3-3s1.343-3,3-3h8c1.657,0,3,1.343,3,3s-1.343,3-3,3H13z"/><g><circle fill="#000000" cx="14.5" cy="10.5" r="2"/><path fill="#000000" d="M14.5,9c0.828,0,1.5,0.672,1.5,1.5S15.328,12,14.5,12S13,11.328,13,10.5S13.672,9,14.5,9 M14.5,8     C13.122,8,12,9.121,12,10.5s1.122,2.5,2.5,2.5s2.5-1.121,2.5-2.5S15.878,8,14.5,8L14.5,8z"/></g><g><path fill="#000000" d="M17,17.5c0-0.275-0.225-0.5-0.5-0.5l0,0c-0.275,0-0.5,0.225-0.5,0.5v1c0,0.275,0.225,0.5,0.5,0.5l0,0     c0.275,0,0.5-0.225,0.5-0.5V17.5z"/></g><g><path fill="#000000" d="M29,10.5c0,0.275-0.225,0.5-0.5,0.5h-1c-0.275,0-0.5-0.225-0.5-0.5v-1C27,9.225,27.225,9,27.5,9h1     C28.775,9,29,9.225,29,9.5V10.5z"/></g></g></g><g><path d="M30,10h-1V9.5C29,9.225,28.775,9,28.5,9h-1C27.225,9,27,9.225,27,9.5V10h-6c0,0-1.897-0.003-4.056-0.004   C16.743,9.021,15.976,8.25,15,8.051V7.5C15,7.225,14.775,7,14.5,7S14,7.225,14,7.5v0.551c-1.045,0.213-1.847,1.083-1.974,2.156   C7.341,11.089,2,15.008,2,21.995C2,22.995,4,25,6.5,25s5-2,4.5-3.005c-0.249-0.5-0.5-1.027-0.5-1.495   c0-1.281,0.738-2.191,2.508-2.428c0.042,1.623,1.589,2.933,3.492,2.933c1.93,0,3.5-1.346,3.5-3v-0.004L21,18c2.209,0,4-1.791,4-4h5   c0.552,0,1-0.448,1-1v-2C31,10.448,30.552,10,30,10z M14.5,9c0.828,0,1.5,0.672,1.5,1.5S15.328,12,14.5,12S13,11.328,13,10.5   S13.672,9,14.5,9z M6.5,24c-1.603,0-2.815-0.991-3.287-1.612L6.5,20.197l3.432,2.288C9.497,23.038,8.107,24,6.5,24z M16.5,20.005   c-1.381,0-2.5-0.895-2.5-2h2V18.5c0,0.275,0.225,0.5,0.5,0.5s0.5-0.225,0.5-0.5v-0.495h2C19,19.11,17.881,20.005,16.5,20.005z    M21,17h-8c-1.657,0-3-1.343-3-3c0-1.341,0.884-2.463,2.098-2.845C12.388,12.215,13.35,13,14.5,13c1.207,0,2.217-0.86,2.449-2H21   c1.304,0,2.403,0.837,2.816,2c0.055,0.154,0.099,0.312,0.131,0.475C23.977,13.646,24,13.82,24,14C24,15.657,22.657,17,21,17z    M30,13h-5.141c-0.205-0.79-0.642-1.479-1.238-2h3.88h1H30V13z"/></g></svg>