<svg xmlns="http://www.w3.org/2000/svg" xmlns:xlink="http://www.w3.org/1999/xlink" version="1.1" x="0px" y="0px" viewBox="0 0 100 125" enable-background="new 0 0 100 100" xml:space="preserve"><path d="M0.382,76.187c0.002,0.032,0.005,0.062,0.005,0.094c0-0.032,0.003-0.064,0.005-0.095  C0.387,76.187,0.384,76.187,0.382,76.187z"/><path d="M-8.979,76.187c0.002,0.032,0.005,0.062,0.005,0.095c0-0.032,0.003-0.064,0.005-0.094  C-8.972,76.187-8.975,76.187-8.979,76.187z"/><g><path d="M75.996,83.026l-3.044-28.561c-0.003-0.152-0.012-0.309-0.029-0.484c-0.006-0.18-0.025-0.355-0.059-0.534   c-0.442-2.375-2.541-4.801-4.765-7.372c-2.506-2.897-5.347-6.18-5.347-9.049c0-0.269-0.006-0.516-0.015-0.753v-2.009   c2.486-0.477,4.371-2.669,4.371-5.292c0-2.97-2.417-5.387-5.387-5.387h-4.632c0.05-0.279,0.086-0.563,0.086-0.856   c0-2.69-2.181-4.87-4.87-4.87c-2.69,0-4.87,2.181-4.87,4.87c0,0.293,0.037,0.577,0.086,0.856h-7.553   c-2.97,0-5.387,2.417-5.387,5.387c0,2.623,1.885,4.815,4.371,5.292v2.76c0,2.87-2.84,6.152-5.345,9.048   c-1.741,2.012-3.384,3.913-4.236,5.764c-0.408,0.843-0.621,1.725-0.635,2.625l-3.044,28.562c-0.005,0.054-0.009,0.107-0.009,0.161   c0,4.027,5.299,10.842,25.161,10.842c19.861,0,25.161-6.815,25.161-10.842C76.005,83.134,76.002,83.081,75.996,83.026z    M50.844,90.981c-17.854,0-22.022-5.646-22.111-7.726l3.042-28.54c0.005-0.053,0.009-0.107,0.009-0.161   c0-0.469,0.113-0.938,0.334-1.393c0.005-0.012,0.011-0.023,0.016-0.034c0.668-1.46,2.178-3.207,3.777-5.055   C38.765,44.772,42,41.033,42,37.028v-3.612c0-0.11,0.009-0.233,0.028-0.386c0.055-0.435-0.08-0.871-0.37-1.199   c-0.289-0.328-0.706-0.517-1.144-0.517h-0.549c-1.289,0-2.338-1.048-2.338-2.339c0-1.289,1.048-2.338,2.338-2.338h0.919h1.524   h16.866h1.729h0.715c1.289,0,2.338,1.048,2.338,2.338c0,1.289-1.048,2.339-2.338,2.339h-0.548c-0.437,0-0.854,0.188-1.143,0.517   c-0.289,0.328-0.424,0.765-0.37,1.199c0.019,0.154,0.029,0.277,0.029,0.386v2.89c0,0.021,0,0.041,0.001,0.062   c0.008,0.207,0.014,0.425,0.014,0.66c0,4.005,3.236,7.745,6.09,11.044c1.86,2.15,3.783,4.372,4.073,5.934   c0.006,0.032,0.009,0.064,0.01,0.098c0.001,0.045,0.004,0.09,0.008,0.135c0.013,0.126,0.02,0.226,0.02,0.315   c0,0.054,0.003,0.108,0.009,0.161l3.041,28.54C72.865,85.335,68.697,90.981,50.844,90.981z"/><path d="M59.481,55.557c-2.474-2.32-5.592-3.417-8.689-3.417H50.79h-0.001c-3.097,0-6.215,1.097-8.689,3.417   c-3.68,3.451-5.007,7.708-3.807,12.675c0.527,2.183,1.603,4.07,3.138,5.694c1.042,1.102,1.65,2.973,1.56,4.519   c-0.002,0.044-0.001,0.09,0.003,0.139c0,0.002,0.001,0.005,0.001,0.007c-0.001,0.024-0.004,0.047-0.004,0.071   c0,0.861,0.698,1.56,1.56,1.56c0.861,0,1.56-0.698,1.56-1.56c0-0.032-0.003-0.064-0.005-0.095c0.004,0,0.006,0,0.009,0   c-0.002,0.031-0.005,0.063-0.005,0.095c0,0.861,0.698,1.56,1.56,1.56c0.858,0,1.553-0.692,1.559-1.548h0.001   c0.006,0.856,0.701,1.548,1.559,1.548c0.858,0,1.553-0.692,1.559-1.548h0.001c0.006,0.856,0.701,1.548,1.559,1.548   c0.861,0,1.56-0.698,1.56-1.56c0-0.032-0.002-0.063-0.005-0.095c0.004,0,0.006,0,0.009,0c-0.002,0.032-0.005,0.063-0.005,0.095   c0,0.861,0.698,1.56,1.56,1.56c0.846,0,1.533-0.674,1.558-1.514c0.002-0.001,0.007-0.001,0.007-0.002   c-0.002-0.045-0.005-0.353-0.006-0.401c-0.049-1.611,0.554-3.308,1.566-4.378c1.531-1.624,2.607-3.511,3.134-5.694   C64.487,63.267,63.161,59.009,59.481,55.557z M47.138,69.652c-0.558,0.955-1.369,1.571-2.497,1.571   c-0.055,0-0.109-0.001-0.163-0.005c-1.26-0.065-2.043-0.835-2.595-1.89c-0.109-0.21-0.175-0.441-0.247-0.625   c-0.193-0.676-0.268-1.331-0.208-1.967s0.253-1.252,0.601-1.849c0.109-0.187,0.226-0.364,0.354-0.525   c0.043-0.055,0.086-0.107,0.13-0.158c0.089-0.102,0.182-0.197,0.281-0.284c0.344-0.307,0.745-0.523,1.214-0.623   c0.187-0.039,0.386-0.06,0.596-0.06c0.015,0,0.031,0,0.046,0c0.073,0.001,0.147,0.005,0.218,0.011   c0.499,0.043,0.932,0.204,1.304,0.46c0.105,0.072,0.207,0.153,0.303,0.24c0.096,0.088,0.187,0.181,0.274,0.282   c0.086,0.101,0.167,0.207,0.244,0.321c0.076,0.113,0.148,0.231,0.214,0.354C48.052,66.479,48.05,68.094,47.138,69.652z    M52.079,73.382c-0.554,0-1.064-0.216-1.229-0.61c-0.012-0.028-0.026-0.056-0.034-0.085c-0.015-0.059-0.026-0.122-0.026-0.188   c0,0.078-0.014,0.15-0.036,0.219c-0.005,0.017-0.014,0.031-0.021,0.047c-0.02,0.05-0.044,0.099-0.076,0.143   c-0.216,0.308-0.67,0.475-1.157,0.475c-0.808,0-1.697-0.451-1.697-1.446c0-1.279,2.985-2.169,2.987-2.169   c0.002,0.001,2.987,0.89,2.987,2.169C53.778,72.93,52.888,73.382,52.079,73.382z M59.948,68.704   c-0.073,0.184-0.14,0.416-0.249,0.624c-0.552,1.057-1.336,1.826-2.595,1.89c-0.056,0.002-0.11,0.005-0.164,0.005   c-1.129,0-1.939-0.616-2.497-1.571c-0.911-1.559-0.913-3.173-0.065-4.747c0.066-0.123,0.137-0.242,0.214-0.354   c0.076-0.112,0.158-0.219,0.243-0.321c0.086-0.101,0.178-0.195,0.274-0.282c0.096-0.088,0.197-0.168,0.303-0.24   c0.371-0.255,0.805-0.417,1.304-0.46c0.071-0.006,0.143-0.01,0.218-0.011c0.015,0,0.031,0,0.046,0c0.21,0,0.407,0.02,0.596,0.06   c0.469,0.1,0.871,0.316,1.214,0.623c0.098,0.088,0.192,0.182,0.281,0.284c0.045,0.051,0.088,0.103,0.13,0.158   c0.127,0.162,0.245,0.338,0.354,0.525c0.347,0.597,0.541,1.213,0.601,1.849C60.215,67.372,60.141,68.027,59.948,68.704z"/><circle cx="58.796" cy="15.288" r="3.561"/><circle cx="52.943" cy="10.08" r="2.177"/></g></svg>