<svg xmlns="http://www.w3.org/2000/svg" xmlns:xlink="http://www.w3.org/1999/xlink" version="1.1" x="0px" y="0px" viewBox="0 0 100 125" enable-background="new 0 0 100 100" xml:space="preserve"><g><path d="M77.9,82.321l-3.376-31.681c-0.003-0.169-0.013-0.343-0.032-0.537c-0.007-0.2-0.028-0.394-0.065-0.592   c-0.49-2.634-2.819-5.326-5.286-8.177c-2.78-3.213-5.931-6.855-5.931-10.037c0-0.298-0.007-0.572-0.017-0.835v-2.228   c2.758-0.529,4.849-2.96,4.849-5.87c0-3.295-2.681-5.976-5.976-5.976h-0.793h-0.227v-5.44c0-3.208-2.61-5.818-5.818-5.818H44.773   c-3.208,0-5.818,2.61-5.818,5.818v5.44h-1.019c-3.295,0-5.976,2.681-5.976,5.976c0,2.91,2.091,5.341,4.849,5.87v3.062   c0,3.183-3.15,6.824-5.929,10.037c-1.931,2.232-3.754,4.34-4.699,6.394c-0.453,0.935-0.689,1.914-0.704,2.912L22.1,82.321   c-0.006,0.06-0.01,0.119-0.01,0.179c0,4.467,5.878,12.027,27.91,12.027c22.031,0,27.91-7.56,27.91-12.027   C77.91,82.44,77.907,82.381,77.9,82.321z M42.337,10.95c0-1.343,1.093-2.435,2.435-2.435h10.455c1.343,0,2.435,1.093,2.435,2.435   v5.44H42.337V10.95z M50,91.145c-19.804,0-24.428-6.263-24.526-8.57l3.374-31.658c0.006-0.059,0.01-0.119,0.01-0.179   c0-0.52,0.125-1.04,0.371-1.545c0.006-0.013,0.012-0.025,0.018-0.038c0.741-1.62,2.416-3.557,4.19-5.607   c3.165-3.66,6.753-7.808,6.753-12.25v-4.007c0-0.122,0.01-0.258,0.031-0.428c0.061-0.482-0.089-0.966-0.41-1.33   c-0.321-0.364-0.783-0.573-1.269-0.573h-0.609c-1.43,0-2.593-1.163-2.593-2.594c0-1.43,1.163-2.593,2.593-2.593h1.019h1.691h18.709   h1.918h0.793c1.43,0,2.593,1.163,2.593,2.593c0,1.43-1.163,2.594-2.593,2.594h-0.608c-0.485,0-0.947,0.209-1.268,0.573   c-0.321,0.364-0.47,0.849-0.41,1.33c0.021,0.171,0.032,0.307,0.032,0.428v3.206c0,0.023,0,0.046,0.001,0.069   c0.009,0.23,0.016,0.471,0.016,0.732c0,4.443,3.589,8.591,6.755,12.25c2.063,2.385,4.196,4.85,4.518,6.582   c0.007,0.036,0.01,0.071,0.011,0.109c0.001,0.05,0.004,0.1,0.009,0.15c0.015,0.14,0.022,0.251,0.022,0.349   c0,0.06,0.003,0.12,0.01,0.179l3.373,31.658C74.427,84.882,69.804,91.145,50,91.145z"/><path d="M68.748,59.49c0.38-0.635,0.478-1.43,0.198-2.177c-0.488-1.299-1.937-1.956-3.237-1.468   c-2.154,0.81-1.603,2.668-2.683,3.074c-0.067,0.025-0.613,0.23-1.508,0.567c0.465,1.683,0.52,3.489,0.165,5.382   c1.84-0.692,3.034-1.141,3.136-1.179c1.08-0.406,1.889,1.355,4.043,0.545c1.299-0.488,1.956-1.938,1.468-3.237   C70.05,60.251,69.452,59.717,68.748,59.49z"/><path d="M68.863,68.833c-2.154-0.81-2.964,0.951-4.043,0.545c-0.118-0.044-1.715-0.645-4.087-1.537   c-0.527,1.102-1.234,2.127-2.119,3.061c-0.325,0.343-0.587,0.797-0.767,1.298c2.965,1.115,5.044,1.896,5.179,1.947   c1.079,0.406,0.529,2.264,2.683,3.074c1.299,0.488,2.748-0.169,3.237-1.468c0.281-0.746,0.182-1.542-0.198-2.177   c0.704-0.227,1.302-0.761,1.583-1.507C70.819,70.771,70.162,69.322,68.863,68.833z"/><path d="M39.172,67.887c-2.305,0.867-3.849,1.447-3.965,1.491c-1.08,0.406-1.89-1.355-4.043-0.545   c-1.299,0.488-1.956,1.938-1.468,3.237c0.281,0.746,0.878,1.28,1.583,1.507c-0.38,0.635-0.478,1.43-0.198,2.177   c0.488,1.299,1.937,1.956,3.237,1.468c2.154-0.81,1.603-2.668,2.683-3.074c0.134-0.05,2.151-0.809,5.042-1.896   c-0.182-0.526-0.451-1.007-0.774-1.349C40.396,69.981,39.696,68.972,39.172,67.887z"/><path d="M31.163,64.234c2.154,0.81,2.964-0.951,4.043-0.545c0.099,0.037,1.229,0.462,2.98,1.12c-0.347-1.89-0.282-3.693,0.19-5.372   c-0.815-0.307-1.313-0.494-1.377-0.518c-1.08-0.406-0.529-2.264-2.683-3.074c-1.299-0.488-2.748,0.169-3.237,1.468   c-0.281,0.746-0.182,1.542,0.198,2.177c-0.704,0.227-1.302,0.761-1.583,1.507C29.207,62.296,29.864,63.745,31.163,64.234z"/><path d="M60.492,65.367c1.013-4.192-0.107-7.787-3.214-10.701c-2.089-1.959-4.721-2.885-7.336-2.885c0,0-0.001,0-0.001,0h0h0   c0,0-0.001,0-0.001,0c-2.615,0-5.247,0.926-7.336,2.885c-3.107,2.914-4.227,6.508-3.214,10.701   c0.445,1.843,1.353,3.436,2.649,4.807c0.88,0.93,1.393,2.51,1.317,3.815c-0.002,0.037-0.001,0.076,0.003,0.117   c0,0.002,0.001,0.004,0.001,0.006c-0.001,0.02-0.003,0.04-0.003,0.06c0,0.727,0.589,1.317,1.317,1.317   c0.727,0,1.317-0.589,1.317-1.317c0-0.027-0.003-0.054-0.004-0.08c0.003,0,0.005,0,0.008,0c-0.002,0.026-0.004,0.053-0.004,0.08   c0,0.727,0.589,1.317,1.317,1.317c0.724,0,1.311-0.584,1.316-1.307c0,0,0.001,0,0.001,0c0.005,0.723,0.592,1.307,1.316,1.307   s1.311-0.584,1.316-1.307c0,0,0.001,0,0.001,0c0.005,0.723,0.592,1.307,1.316,1.307c0.727,0,1.317-0.589,1.317-1.317   c0-0.027-0.002-0.053-0.004-0.08c0.003,0,0.005,0,0.008,0c-0.002,0.027-0.004,0.053-0.004,0.08c0,0.727,0.589,1.317,1.317,1.317   c0.714,0,1.294-0.569,1.315-1.278c0.002-0.001,0.006-0.001,0.006-0.002c-0.002-0.038-0.004-0.298-0.005-0.339   c-0.041-1.36,0.468-2.793,1.322-3.696C59.139,68.803,60.047,67.21,60.492,65.367z M46.857,66.566   c-0.471,0.806-1.156,1.326-2.108,1.326c-0.046,0-0.092-0.001-0.138-0.004c-1.064-0.055-1.725-0.705-2.191-1.596   c-0.092-0.177-0.148-0.372-0.209-0.528c-0.163-0.571-0.226-1.124-0.176-1.661c0.05-0.537,0.214-1.057,0.507-1.561   c0.092-0.158,0.191-0.307,0.299-0.443c0.036-0.046,0.073-0.09,0.11-0.133c0.075-0.086,0.154-0.166,0.237-0.24   c0.29-0.259,0.629-0.442,1.025-0.526c0.158-0.033,0.326-0.051,0.503-0.051c0.013,0,0.026,0,0.039,0   c0.062,0.001,0.124,0.004,0.184,0.009c0.421,0.036,0.787,0.172,1.101,0.388c0.089,0.061,0.175,0.129,0.256,0.203   s0.158,0.153,0.231,0.238c0.073,0.085,0.141,0.175,0.206,0.271c0.064,0.095,0.125,0.195,0.181,0.299   C47.629,63.887,47.627,65.25,46.857,66.566z M51.029,69.715c-0.468,0-0.898-0.182-1.038-0.515c-0.01-0.024-0.022-0.047-0.029-0.072   c-0.013-0.05-0.022-0.103-0.022-0.159v-0.002v0c0,0,0,0.001,0,0.001c0,0,0-0.001,0-0.001v0v0.002c0,0.066-0.012,0.127-0.03,0.185   c-0.004,0.014-0.012,0.026-0.018,0.04c-0.017,0.042-0.037,0.084-0.064,0.121c-0.182,0.26-0.566,0.401-0.977,0.401   c-0.682,0-1.433-0.381-1.433-1.221c0-1.08,2.52-1.831,2.522-1.831c0.002,0.001,2.522,0.751,2.522,1.831   C52.463,69.333,51.712,69.715,51.029,69.715z M57.462,66.292c-0.466,0.892-1.128,1.542-2.191,1.596   c-0.047,0.002-0.093,0.004-0.138,0.004c-0.953,0-1.637-0.52-2.108-1.326c-0.769-1.316-0.771-2.679-0.055-4.008   c0.056-0.104,0.116-0.204,0.181-0.299c0.064-0.095,0.133-0.185,0.205-0.271c0.073-0.085,0.15-0.165,0.231-0.238   c0.081-0.074,0.166-0.142,0.256-0.203c0.313-0.215,0.68-0.352,1.101-0.388c0.06-0.005,0.121-0.008,0.184-0.009   c0.013,0,0.026,0,0.039,0c0.177,0,0.344,0.017,0.503,0.051c0.396,0.084,0.735,0.267,1.025,0.526   c0.083,0.074,0.162,0.154,0.237,0.24c0.038,0.043,0.074,0.087,0.11,0.133c0.107,0.137,0.207,0.285,0.299,0.443   c0.293,0.504,0.457,1.024,0.507,1.561c0.05,0.537-0.013,1.09-0.176,1.661C57.61,65.92,57.554,66.116,57.462,66.292z"/></g></svg>