<svg xmlns="http://www.w3.org/2000/svg" xmlns:xlink="http://www.w3.org/1999/xlink" version="1.1" x="0px" y="0px" viewBox="0 0 100 125" enable-background="new 0 0 100 100" xml:space="preserve"><path d="M57.498,78.762c0.002,0.032,0.005,0.062,0.005,0.094c0-0.032,0.003-0.064,0.005-0.095  C57.504,78.762,57.5,78.762,57.498,78.762z"/><path d="M48.137,78.762c0.002,0.032,0.005,0.062,0.005,0.095c0-0.032,0.003-0.064,0.005-0.094  C48.144,78.762,48.141,78.762,48.137,78.762z"/><g><path d="M60.528,64.451c-0.042-0.055-0.087-0.108-0.132-0.158c-0.091-0.102-0.185-0.198-0.284-0.286   c-0.347-0.309-0.753-0.529-1.226-0.629c-0.189-0.04-0.39-0.061-0.602-0.061c-0.016,0-0.031,0-0.047,0   c-0.074,0.001-0.148,0.005-0.22,0.01c-0.504,0.042-0.942,0.206-1.317,0.464c-0.107,0.073-0.21,0.155-0.306,0.243   c-0.097,0.088-0.189,0.183-0.276,0.285c-0.087,0.102-0.168,0.21-0.246,0.323c-0.077,0.113-0.149,0.234-0.217,0.358   c-0.857,1.589-0.855,3.221,0.065,4.795c0.564,0.965,1.382,1.587,2.522,1.587c0.054,0,0.11-0.001,0.165-0.005   c1.272-0.065,2.064-0.843,2.622-1.91c0.11-0.211,0.178-0.445,0.25-0.631c0.196-0.681,0.273-1.343,0.212-1.986   c-0.061-0.643-0.257-1.265-0.606-1.868C60.775,64.793,60.656,64.615,60.528,64.451z"/><path d="M52.033,69.912c-0.002,0.001-3.017,0.898-3.017,2.191c0,1.004,0.898,1.46,1.714,1.46c0.492,0,0.951-0.167,1.169-0.479   c0.031-0.045,0.055-0.094,0.077-0.145c0.007-0.016,0.016-0.031,0.022-0.047c0.022-0.069,0.036-0.142,0.037-0.221   c0,0.068,0.01,0.129,0.026,0.19c0.008,0.03,0.022,0.057,0.034,0.086c0.166,0.399,0.682,0.617,1.241,0.617   c0.816,0,1.714-0.456,1.714-1.46C55.05,70.81,52.035,69.913,52.033,69.912z"/><path d="M48.409,65.001c-0.068-0.125-0.14-0.244-0.217-0.358c-0.077-0.113-0.159-0.222-0.246-0.323   c-0.087-0.102-0.179-0.197-0.276-0.285c-0.097-0.088-0.199-0.17-0.306-0.243c-0.375-0.258-0.814-0.422-1.317-0.464   c-0.072-0.006-0.146-0.009-0.22-0.01c-0.016,0-0.031,0-0.047,0c-0.212,0-0.413,0.021-0.602,0.061   c-0.474,0.1-0.879,0.32-1.226,0.629c-0.1,0.088-0.194,0.185-0.284,0.286c-0.045,0.052-0.089,0.104-0.132,0.158   c-0.128,0.164-0.248,0.342-0.358,0.531c-0.349,0.603-0.547,1.225-0.606,1.868c-0.061,0.643,0.016,1.304,0.211,1.987   c0.072,0.187,0.14,0.421,0.25,0.631c0.558,1.067,1.349,1.845,2.622,1.91c0.056,0.003,0.111,0.005,0.165,0.005   c1.139,0,1.958-0.622,2.522-1.587C49.264,68.222,49.266,66.591,48.409,65.001z"/><path d="M74.573,53.591c0-0.174-0.012-0.347-0.03-0.518c-0.002-0.122-0.013-0.249-0.039-0.385   c-0.921-4.955-11.072-11.609-11.072-18.239c0-0.282-0.008-0.54-0.017-0.788v-3.156c0-0.214-0.018-0.424-0.044-0.63h0.599   c2.33,0,4.219-1.889,4.219-4.219c0-2.33-1.889-4.219-4.219-4.219h-0.928v0.001h-4.438c-0.065-2.705-2.267-4.88-4.987-4.88   c-2.72,0-4.923,2.176-4.988,4.88h-5.749h-2.301H40.21c-2.33,0-4.219,1.889-4.219,4.219c0,2.33,1.889,4.219,4.219,4.219h0.599   c-0.026,0.206-0.044,0.416-0.044,0.63v3.946c0,6.045-8.438,12.111-10.624,16.891c-0.345,0.706-0.535,1.464-0.535,2.252   l-3.333,31.274c0,3.841,6.227,10.177,25.816,10.177s25.816-6.336,25.816-10.177L74.573,53.591z M64.653,68.361   c-0.533,2.205-1.619,4.112-3.17,5.75c-1.022,1.081-1.631,2.795-1.581,4.422c0.005,0.05,0.007,0.361,0.009,0.407   c0,0.001-0.005,0.001-0.007,0.002c-0.025,0.848-0.719,1.529-1.573,1.529c-0.87,0-1.576-0.705-1.576-1.576   c0,0.87-0.705,1.576-1.576,1.576c-0.866,0-1.569-0.699-1.575-1.564h-0.001c-0.006,0.865-0.708,1.564-1.575,1.564   s-1.569-0.699-1.575-1.564h-0.001c-0.006,0.865-0.708,1.564-1.575,1.564c-0.87,0-1.576-0.705-1.576-1.576   c0,0.87-0.705,1.576-1.576,1.576c-0.87,0-1.576-0.705-1.576-1.576c0-0.024,0.002-0.048,0.003-0.072   c0-0.002-0.001-0.005-0.001-0.008c-0.005-0.048-0.006-0.095-0.003-0.14c0.092-1.562-0.523-3.452-1.576-4.564   c-1.55-1.64-2.637-3.547-3.17-5.75c-1.212-5.016,0.127-9.317,3.846-12.803c2.499-2.344,5.647-3.452,8.777-3.452h0.001h0.001   c3.129,0,6.278,1.108,8.777,3.452C64.525,59.044,65.865,63.345,64.653,68.361z"/><circle cx="60.279" cy="13.916" r="3.655"/><circle cx="54.271" cy="8.57" r="2.235"/></g></svg>