<svg xmlns="http://www.w3.org/2000/svg" data-name="Layer 1" viewBox="0 0 100 125" x="0px" y="0px"><title>shark</title><path d="M91.32,90a58.81,58.81,0,0,0-9-6.67,6.2,6.2,0,0,1-3.49-4.46c-.35-2.06-1.41-5.87-1.1-6.38.64-1,2.3-.69,3.5-1.06C79.77,70,78,69,77,67.34c-4.84-8.21-14.83-17.4-22.14-22.81-6.5-4.81-7.6-9.52-9-12.53-.45-.94,11.38-12.5,16-13.95,1.05-.33,4.83-2.2,4.8-2.93-.07-2.54-3.34-2.35-5.36-2.58a36.94,36.94,0,0,0-18.4,2.62,32.09,32.09,0,0,0-5.87,3.33.56.56,0,0,1-.21.07,5.86,5.86,0,0,0,4.17-.75,34.9,34.9,0,0,1,5-2.43A26.21,26.21,0,0,1,51.36,14a17.93,17.93,0,0,1,5.57,0c-1.85-.17-3.71.6-5.51,1a25.77,25.77,0,0,0-5.27,1.59,38.4,38.4,0,0,0-4.92,2.48,5.09,5.09,0,0,1-2.76.86c-1,0-2-1-2.68-1.57h0a14.39,14.39,0,0,1-3.31-3c-4.17-4.88-9.51-8.15-15.3-10.76-2.48-1.12-4.91-2-7.72-1.7-2.32.25-6.66,4.19-6.9,7.47C2.2,14.88,4.24,18.49,6.66,22a70.38,70.38,0,0,0,5.51,6.81c2.08,2.43,5.74,3.65,6.08,7.24.2,2.09-4,8.76-4.81,11.05-1,2.89-5.18,18.08.23,17.46.51-.06,1.64-3.08,3.16-5.1,2.85-3.79,4.15-4.71,7.68-7.77,2.12-1.83,3.38-2.51,5.41-4.52,3.49,5.1,7.15,7.73,16.08,11.23,11.13,4.35,17,3.47,22.41,8.15,2.16,1.85,2.73,5.74,2.33,9,.88-.38,1.58-1.38,2.4-1,1.2.48,2.21,5.09,2.36,7.09.37,5-1.18,11.22-1.13,12.65.77-.72,2.28-4.62,4.36-4.89,3.27-.42,8.45,3.3,11.63,4.56,2.27.9,4.17,2.35,7.13,3.26A48.44,48.44,0,0,0,91.32,90Z"/></svg>