<svg xmlns="http://www.w3.org/2000/svg" xmlns:xlink="http://www.w3.org/1999/xlink" version="1.1" x="0px" y="0px" viewBox="0 0 32 40" enable-background="new 0 0 32 32" xml:space="preserve"><g display="none"><g display="inline"><g><path fill="#000000" d="M16,3c0.275,0,0.491,0.225,0.481,0.5L16.019,15.5c-0.005,0.137-0.012,0.206-0.019,0.206     s-0.014-0.069-0.019-0.206L15.519,3.5C15.509,3.225,15.725,3,16,3 M16,2c-0.401,0-0.791,0.165-1.068,0.453     c-0.277,0.288-0.427,0.683-0.412,1.085l0.462,12.001c0.042,1.083,0.79,1.168,1.018,1.168c0.228,0,0.977-0.084,1.018-1.168     L17.48,3.538c0.015-0.401-0.135-0.797-0.412-1.085C16.791,2.165,16.402,2,16,2L16,2z"/></g><g><path fill="#000000" d="M16,16.294c0.007,0,0.014,0.069,0.019,0.206L16.481,28.5C16.491,28.775,16.275,29,16,29     s-0.491-0.225-0.481-0.5L15.981,16.5C15.986,16.362,15.993,16.294,16,16.294 M16,15.294c-0.228,0-0.977,0.084-1.018,1.168     L14.52,28.462c-0.015,0.401,0.135,0.797,0.412,1.085C15.209,29.835,15.599,30,16,30c0.402,0,0.791-0.165,1.068-0.453     c0.277-0.288,0.427-0.683,0.412-1.085l-0.462-12.001C16.977,15.378,16.228,15.294,16,15.294L16,15.294z"/></g><g><path fill="#000000" d="M24.852,6.666c0.123,0,0.245,0.047,0.34,0.142c0.194,0.194,0.188,0.506-0.013,0.693l-8.812,8.159     c-0.096,0.089-0.149,0.133-0.158,0.133c-0.01,0,0.033-0.054,0.131-0.16l8.159-8.812C24.595,6.718,24.723,6.666,24.852,6.666      M24.852,5.666L24.852,5.666c-0.411,0-0.807,0.174-1.087,0.476l-8.159,8.812c-0.174,0.188-0.582,0.628-0.315,1.239     c0.159,0.364,0.52,0.6,0.918,0.6c0.407,0,0.646-0.221,0.838-0.399l8.812-8.159c0.295-0.273,0.468-0.659,0.476-1.058     c0.008-0.4-0.151-0.792-0.435-1.076C25.619,5.82,25.247,5.666,24.852,5.666L24.852,5.666z"/></g><g><path fill="#000000" d="M15.791,16.207c0.01,0-0.033,0.054-0.131,0.16l-8.159,8.812c-0.096,0.103-0.224,0.155-0.353,0.155     c-0.123,0-0.245-0.047-0.34-0.142c-0.194-0.194-0.188-0.506,0.013-0.693l8.812-8.159C15.729,16.251,15.782,16.207,15.791,16.207      M15.791,15.207c0,0-0.001,0-0.001,0c-0.406,0-0.645,0.221-0.836,0.399l-8.812,8.159c-0.295,0.273-0.468,0.659-0.476,1.058     c-0.008,0.4,0.151,0.792,0.435,1.076c0.28,0.28,0.652,0.435,1.047,0.435c0.411,0,0.807-0.173,1.087-0.476l8.159-8.812     c0.174-0.188,0.582-0.628,0.315-1.239C16.55,15.443,16.189,15.207,15.791,15.207L15.791,15.207z"/></g><g><path fill="#000000" d="M28.52,15.519c0.266,0,0.48,0.213,0.48,0.481c0,0.269-0.214,0.481-0.48,0.481c-0.006,0-0.013,0-0.019,0     L16.5,16.019c-0.275-0.011-0.275-0.028,0-0.038L28.5,15.519C28.507,15.519,28.513,15.519,28.52,15.519 M28.52,14.519     c-0.013,0-0.045,0.001-0.058,0.001l-12,0.462c-1.083,0.042-1.168,0.79-1.168,1.018s0.084,0.977,1.168,1.018l12.001,0.462     c0.013,0,0.045,0.001,0.058,0.001c0.816,0,1.48-0.664,1.48-1.481S29.336,14.519,28.52,14.519L28.52,14.519z"/></g><g><path fill="#000000" d="M3.48,15.519c0.006,0,0.013,0,0.019,0L15.5,15.981c0.275,0.011,0.275,0.028,0,0.038L3.5,16.481     c-0.006,0-0.013,0-0.019,0C3.214,16.481,3,16.269,3,16C3,15.731,3.214,15.519,3.48,15.519 M3.48,14.519L3.48,14.519     C2.664,14.519,2,15.183,2,16c0,0.817,0.664,1.481,1.48,1.481c0.013,0,0.045-0.001,0.058-0.001l12.001-0.462     c1.083-0.042,1.168-0.79,1.168-1.018s-0.084-0.977-1.168-1.018L3.538,14.52C3.525,14.519,3.493,14.519,3.48,14.519L3.48,14.519z"/></g><g><path fill="#000000" d="M16.209,16.207c0.009,0,0.062,0.044,0.158,0.133l8.812,8.159c0.202,0.187,0.208,0.499,0.013,0.693     c-0.095,0.095-0.218,0.142-0.34,0.142c-0.129,0-0.257-0.052-0.353-0.155l-8.159-8.812C16.242,16.261,16.198,16.207,16.209,16.207      M16.209,15.207c-0.397,0-0.759,0.236-0.918,0.6c-0.267,0.611,0.141,1.051,0.315,1.239l8.159,8.812     c0.28,0.302,0.676,0.476,1.087,0.476c0.395,0,0.767-0.154,1.047-0.435c0.284-0.284,0.442-0.676,0.435-1.076     c-0.008-0.4-0.181-0.786-0.476-1.058l-8.812-8.159C16.854,15.428,16.616,15.207,16.209,15.207L16.209,15.207z"/></g><g><path fill="#000000" d="M7.148,6.666c0.129,0,0.257,0.052,0.353,0.155l8.159,8.812c0.098,0.106,0.141,0.16,0.131,0.16     c-0.009,0-0.062-0.044-0.158-0.133L6.821,7.501C6.619,7.314,6.613,7.002,6.808,6.808C6.902,6.713,7.025,6.666,7.148,6.666      M7.148,5.666L7.148,5.666c-0.395,0-0.767,0.154-1.047,0.435C5.817,6.384,5.658,6.776,5.666,7.176     c0.008,0.4,0.181,0.786,0.476,1.058l8.812,8.159c0.192,0.178,0.431,0.399,0.838,0.399c0.397,0,0.759-0.236,0.918-0.6     c0.267-0.61-0.141-1.051-0.315-1.239L8.235,6.142C7.955,5.839,7.558,5.666,7.148,5.666L7.148,5.666z"/></g><g><path fill="#000000" d="M16,25.5c-5.238,0-9.5-4.262-9.5-9.5s4.262-9.5,9.5-9.5s9.5,4.262,9.5,9.5S21.238,25.5,16,25.5z M16,9     c-3.86,0-7,3.14-7,7s3.14,7,7,7s7-3.14,7-7S19.86,9,16,9z"/><path fill="#000000" d="M16,7c4.963,0,9,4.037,9,9s-4.037,9-9,9s-9-4.037-9-9S11.037,7,16,7 M16,23.5c4.136,0,7.5-3.364,7.5-7.5     S20.136,8.5,16,8.5S8.5,11.864,8.5,16S11.864,23.5,16,23.5 M16,6C10.477,6,6,10.477,6,16s4.477,10,10,10s10-4.477,10-10     S21.523,6,16,6L16,6z M16,22.5c-3.59,0-6.5-2.91-6.5-6.5s2.91-6.5,6.5-6.5s6.5,2.91,6.5,6.5S19.59,22.5,16,22.5L16,22.5z"/></g><g><path fill="#000000" d="M16,19.5c-1.93,0-3.5-1.57-3.5-3.5s1.57-3.5,3.5-3.5s3.5,1.57,3.5,3.5S17.93,19.5,16,19.5z"/><path fill="#000000" d="M16,13c1.654,0,3,1.346,3,3s-1.346,3-3,3s-3-1.346-3-3S14.346,13,16,13 M16,12c-2.209,0-4,1.791-4,4     s1.791,4,4,4s4-1.791,4-4S18.209,12,16,12L16,12z"/></g><g><circle fill="#000000" cx="16" cy="16" r="1.5"/><path fill="#000000" d="M16,15c0.551,0,1,0.449,1,1s-0.449,1-1,1c-0.551,0-1-0.449-1-1S15.449,15,16,15 M16,14     c-1.105,0-2,0.895-2,2s0.895,2,2,2s2-0.895,2-2S17.105,14,16,14L16,14z"/></g></g></g><g><g><path d="M28.52,14.519c-0.013,0-0.045,0.001-0.058,0.001l-2.568,0.099c-0.239-1.727-0.917-3.31-1.921-4.638l1.886-1.746    c0.295-0.273,0.468-0.659,0.476-1.058c0.008-0.4-0.151-0.792-0.435-1.076c-0.28-0.28-0.652-0.435-1.047-0.435h0    c-0.411,0-0.807,0.174-1.087,0.476l-1.747,1.886c-1.328-1.004-2.91-1.682-4.638-1.921l0.099-2.568    c0.015-0.401-0.135-0.797-0.412-1.085S16.401,2,16,2s-0.791,0.165-1.068,0.453s-0.427,0.683-0.412,1.085l0.099,2.568    c-1.727,0.239-3.31,0.917-4.638,1.921L8.235,6.142c-0.28-0.302-0.676-0.476-1.087-0.476h0c-0.395,0-0.767,0.154-1.047,0.435    C5.817,6.384,5.658,6.776,5.666,7.176c0.008,0.4,0.181,0.786,0.476,1.058l1.886,1.746c-1.004,1.328-1.682,2.91-1.921,4.638    L3.538,14.52c-0.013,0-0.045-0.001-0.058-0.001h0C2.664,14.519,2,15.183,2,16c0,0.817,0.664,1.481,1.48,1.481    c0.013,0,0.045-0.001,0.058-0.001l2.568-0.099c0.239,1.727,0.917,3.31,1.921,4.638l-1.886,1.747    c-0.295,0.273-0.468,0.659-0.476,1.058s0.151,0.792,0.435,1.076c0.28,0.28,0.652,0.435,1.047,0.435    c0.411,0,0.807-0.173,1.087-0.476l1.747-1.886c1.328,1.004,2.91,1.682,4.638,1.921l-0.099,2.568    c-0.015,0.401,0.135,0.797,0.412,1.085C15.209,29.835,15.599,30,16,30s0.791-0.165,1.068-0.453    c0.277-0.288,0.427-0.684,0.412-1.085l-0.099-2.568c1.727-0.239,3.31-0.917,4.638-1.921l1.747,1.886    c0.28,0.302,0.676,0.476,1.087,0.476c0.395,0,0.767-0.154,1.047-0.435c0.284-0.284,0.442-0.676,0.435-1.076    s-0.181-0.786-0.476-1.058l-1.886-1.746c1.004-1.328,1.682-2.91,1.921-4.638l2.568,0.099c0.013,0,0.045,0.001,0.058,0.001    c0.816,0,1.48-0.664,1.48-1.481S29.336,14.519,28.52,14.519z M6.019,16.384L3.5,16.481c-0.006,0-0.013,0-0.019,0    C3.214,16.481,3,16.269,3,16s0.214-0.481,0.48-0.481c0.006,0,0.013,0,0.019,0l2.52,0.097C6.015,15.745,6,15.87,6,16    S6.015,16.255,6.019,16.384z M24.499,6.821c0.096-0.103,0.224-0.155,0.353-0.155c0.123,0,0.245,0.047,0.34,0.142    c0.194,0.194,0.188,0.506-0.013,0.693L23.33,9.213c-0.174-0.188-0.355-0.369-0.543-0.543L24.499,6.821z M16,3    c0.275,0,0.491,0.225,0.481,0.5l-0.097,2.52C16.255,6.015,16.13,6,16,6s-0.255,0.015-0.384,0.019L15.519,3.5    C15.509,3.225,15.725,3,16,3z M6.821,7.501C6.619,7.314,6.613,7.002,6.808,6.808c0.095-0.095,0.218-0.142,0.34-0.142    c0.129,0,0.257,0.052,0.353,0.155L9.213,8.67C9.025,8.845,8.845,9.025,8.67,9.213L6.821,7.501z M7.501,25.179    c-0.096,0.103-0.224,0.155-0.353,0.155c-0.123,0-0.245-0.047-0.34-0.142c-0.194-0.194-0.188-0.506,0.013-0.693l1.849-1.713    c0.174,0.188,0.355,0.369,0.543,0.543L7.501,25.179z M16,29c-0.275,0-0.491-0.225-0.481-0.5l0.097-2.52    C15.745,25.985,15.87,26,16,26s0.255-0.015,0.384-0.019l0.097,2.52C16.491,28.775,16.275,29,16,29z M25.179,24.499    c0.202,0.187,0.208,0.499,0.013,0.693c-0.095,0.095-0.218,0.142-0.34,0.142c-0.129,0-0.257-0.052-0.353-0.155l-1.713-1.849    c0.188-0.174,0.369-0.355,0.543-0.543L25.179,24.499z M16,25c-4.963,0-9-4.037-9-9c0-4.963,4.037-9,9-9s9,4.037,9,9    C25,20.963,20.963,25,16,25z M28.52,16.481c-0.006,0-0.013,0-0.019,0l-2.52-0.097C25.985,16.255,26,16.13,26,16    s-0.015-0.255-0.019-0.384l2.52-0.097c0.006,0,0.013,0,0.019,0c0.266,0,0.48,0.213,0.48,0.481    C29,16.268,28.786,16.481,28.52,16.481z"/><path d="M16,8.5c-4.135,0-7.5,3.365-7.5,7.5s3.365,7.5,7.5,7.5s7.5-3.365,7.5-7.5S20.135,8.5,16,8.5z M20.764,11.589l-1.838,1.702    c-0.07-0.075-0.141-0.147-0.217-0.217l1.702-1.838C20.534,11.349,20.651,11.466,20.764,11.589z M16,19c-1.654,0-3-1.346-3-3    c0-1.654,1.346-3,3-3s3,1.346,3,3C19,17.654,17.654,19,16,19z M19.63,10.608l-1.745,1.885c-0.234-0.126-0.479-0.227-0.738-0.305    l0.099-2.565C18.115,9.791,18.922,10.13,19.63,10.608z M16,9.5c0.084,0,0.166,0.009,0.25,0.013l-0.096,2.503    C16.101,12.013,16.052,12,16,12s-0.101,0.013-0.153,0.015L15.75,9.513C15.834,9.509,15.916,9.5,16,9.5z M14.754,9.622l0.099,2.565    c-0.259,0.078-0.504,0.179-0.738,0.305l-1.745-1.885C13.078,10.13,13.885,9.791,14.754,9.622z M11.589,11.236l1.702,1.838    c-0.075,0.07-0.147,0.141-0.217,0.217l-1.838-1.702C11.349,11.466,11.466,11.349,11.589,11.236z M10.608,12.37l1.885,1.745    c-0.126,0.234-0.227,0.479-0.305,0.738l-2.565-0.099C9.791,13.885,10.13,13.078,10.608,12.37z M9.5,16    c0-0.084,0.009-0.166,0.013-0.25l2.503,0.096C12.013,15.899,12,15.948,12,16s0.013,0.101,0.015,0.153L9.513,16.25    C9.509,16.166,9.5,16.084,9.5,16z M10.608,19.63c-0.477-0.708-0.817-1.515-0.985-2.384l2.565-0.099    c0.078,0.259,0.179,0.504,0.305,0.738L10.608,19.63z M11.236,20.411l1.838-1.702c0.07,0.075,0.141,0.147,0.217,0.217l-1.702,1.838    C11.466,20.651,11.349,20.534,11.236,20.411z M12.37,21.392l1.745-1.885c0.234,0.126,0.479,0.227,0.738,0.305l-0.099,2.565    C13.885,22.209,13.078,21.87,12.37,21.392z M16,22.5c-0.084,0-0.166-0.009-0.25-0.013l0.096-2.503C15.899,19.987,15.948,20,16,20    s0.101-0.013,0.153-0.015l0.096,2.503C16.166,22.491,16.084,22.5,16,22.5z M17.246,22.378l-0.099-2.565    c0.259-0.078,0.504-0.179,0.738-0.305l1.745,1.885C18.922,21.87,18.115,22.209,17.246,22.378z M20.411,20.764l-1.702-1.838    c0.075-0.07,0.147-0.141,0.217-0.217l1.838,1.702C20.651,20.534,20.534,20.651,20.411,20.764z M21.392,19.63l-1.885-1.745    c0.126-0.234,0.227-0.479,0.305-0.738l2.565,0.099C22.209,18.115,21.87,18.922,21.392,19.63z M22.5,16    c0,0.084-0.009,0.166-0.013,0.25l-2.503-0.096C19.987,16.101,20,16.052,20,16s-0.013-0.101-0.015-0.153l2.503-0.096    C22.491,15.834,22.5,15.916,22.5,16z M22.378,14.754l-2.565,0.099c-0.078-0.259-0.179-0.504-0.305-0.738l1.885-1.745    C21.87,13.078,22.209,13.885,22.378,14.754z"/><path d="M16,14c-1.105,0-2,0.895-2,2s0.895,2,2,2s2-0.895,2-2S17.105,14,16,14z M16,17c-0.551,0-1-0.449-1-1s0.449-1,1-1    s1,0.449,1,1S16.551,17,16,17z"/></g></g></svg>