<svg xmlns="http://www.w3.org/2000/svg" xmlns:xlink="http://www.w3.org/1999/xlink" version="1.1" x="0px" y="0px" viewBox="0 0 32 40" enable-background="new 0 0 32 32" xml:space="preserve"><g display="none"><g display="inline"><g><path fill="#000000" d="M6.5,3C7.328,3,8,3.672,8,4.5c0,0.565-0.317,1.052-0.779,1.307l18.971,18.971     C26.448,24.317,26.935,24,27.5,24c0.828,0,1.5,0.672,1.5,1.5S28.328,27,27.5,27c-0.237,0-0.459-0.06-0.658-0.158     C26.94,27.041,27,27.263,27,27.5c0,0.828-0.672,1.5-1.5,1.5S24,28.328,24,27.5c0-0.565,0.317-1.052,0.778-1.307L5.807,7.221     C5.552,7.683,5.065,8,4.5,8C3.672,8,3,7.328,3,6.5S3.672,5,4.5,5c0.237,0,0.459,0.06,0.658,0.158C5.06,4.959,5,4.737,5,4.5     C5,3.672,5.672,3,6.5,3 M6.5,2C5.278,2,4.258,2.882,4.042,4.042C2.882,4.258,2,5.278,2,6.5C2,7.878,3.122,9,4.5,9     c0.467,0,0.916-0.132,1.302-0.37L23.37,26.198C23.132,26.584,23,27.033,23,27.5c0,1.378,1.122,2.5,2.5,2.5     c1.222,0,2.242-0.882,2.458-2.042C29.118,27.742,30,26.722,30,25.5c0-1.378-1.122-2.5-2.5-2.5c-0.467,0-0.916,0.132-1.302,0.37     L8.63,5.802C8.868,5.416,9,4.967,9,4.5C9,3.122,7.878,2,6.5,2L6.5,2z"/></g><g><path fill="#000000" d="M25.5,3C26.328,3,27,3.672,27,4.5c0,0.237-0.06,0.459-0.158,0.658C27.041,5.06,27.263,5,27.5,5     C28.328,5,29,5.672,29,6.5S28.328,8,27.5,8c-0.565,0-1.052-0.317-1.307-0.779L7.221,26.193C7.683,26.448,8,26.935,8,27.5     C8,28.328,7.328,29,6.5,29S5,28.328,5,27.5c0-0.237,0.06-0.459,0.158-0.658C4.959,26.94,4.737,27,4.5,27     C3.672,27,3,26.328,3,25.5S3.672,24,4.5,24c0.565,0,1.052,0.317,1.307,0.779L24.778,5.807C24.317,5.552,24,5.065,24,4.5     C24,3.672,24.672,3,25.5,3 M25.5,2C24.122,2,23,3.122,23,4.5c0,0.467,0.132,0.916,0.37,1.302L5.802,23.37     C5.416,23.132,4.967,23,4.5,23C3.122,23,2,24.122,2,25.5c0,1.222,0.882,2.242,2.042,2.458C4.258,29.118,5.278,30,6.5,30     C7.878,30,9,28.878,9,27.5c0-0.467-0.132-0.916-0.37-1.302L26.198,8.63C26.584,8.868,27.033,9,27.5,9C28.878,9,30,7.878,30,6.5     c0-1.222-0.882-2.242-2.042-2.458C27.742,2.882,26.722,2,25.5,2L25.5,2z"/></g><g><path fill="#000000" d="M13,23.5c-0.257,0-0.447-1.097-0.539-1.624C12.268,20.763,12.049,19.5,11,19.5h-1     c-0.413,0-0.5-0.042-0.5-1.25c0-0.562-0.241-0.933-0.453-1.26C8.778,16.576,8.5,16.148,8.5,15.125c0-3.9,3.084-6.625,7.5-6.625     s7.5,2.725,7.5,6.625c0,1.023-0.278,1.451-0.547,1.865c-0.212,0.327-0.453,0.697-0.453,1.26c0,1.208-0.087,1.25-0.5,1.25h-1     c-1.049,0-1.268,1.263-1.461,2.376C19.447,22.403,19.257,23.5,19,23.5H13z"/><path fill="#000000" d="M16,9c4.122,0,7,2.519,7,6.125c0,0.875-0.216,1.208-0.466,1.592C22.296,17.084,22,17.539,22,18.25     c0,0.245,0,0.561-0.025,0.75H21c-1.47,0-1.749,1.613-1.954,2.791c-0.063,0.363-0.162,0.932-0.272,1.209H16h-2.774     c-0.11-0.277-0.209-0.846-0.272-1.209C12.749,20.613,12.47,19,11,19h-0.975C10,18.811,10,18.495,10,18.25     c0-0.711-0.296-1.166-0.534-1.533C9.216,16.333,9,16,9,15.125C9,11.519,11.878,9,16,9 M16,8c-4.418,0-8,2.707-8,7.125     c0,2,1,2.125,1,3.125S9,20,10,20c0.526,0,0,0,1,0c1.272,0,0.661,4,2,4c0.688,0,2,0,3,0s2.312,0,3,0c1.339,0,0.728-4,2-4     c1,0,0.474,0,1,0c1,0,1-0.75,1-1.75s1-1.125,1-3.125C24,10.707,20.418,8,16,8L16,8z"/></g><g><path fill="#000000" d="M13,15c0.551,0,1,0.449,1,1s-0.449,1-1,1s-1-0.449-1-1S12.449,15,13,15 M13,14c-1.105,0-2,0.895-2,2     s0.895,2,2,2s2-0.895,2-2S14.105,14,13,14L13,14z"/></g><g><path fill="#000000" d="M19,15c0.551,0,1,0.449,1,1s-0.449,1-1,1s-1-0.449-1-1S18.449,15,19,15 M19,14c-1.105,0-2,0.895-2,2     s0.895,2,2,2s2-0.895,2-2S20.105,14,19,14L19,14z"/></g><line fill="#000000" stroke="#FF0000" stroke-linecap="round" stroke-miterlimit="10" x1="14.5" y1="23" x2="14.5" y2="22"/><line fill="#000000" stroke="#FF0000" stroke-linecap="round" stroke-miterlimit="10" x1="17.5" y1="23" x2="17.5" y2="22"/><path fill="#000000" d="M16,19.175c-0.375,0-0.5-0.175-0.5-0.175s0.125-1,0.5-1c0.375,0,0.5,1,0.5,1S16.375,19.175,16,19.175z     M16,17c-1,0-1.5,2-1.5,2.5S16,20,16,20s1.5,0,1.5-0.5S17,17,16,17L16,17z"/></g></g><g><g><path d="M13,15c0.551,0,1,0.449,1,1s-0.449,1-1,1s-1-0.449-1-1S12.449,15,13,15 M13,14c-1.105,0-2,0.895-2,2s0.895,2,2,2    s2-0.895,2-2S14.105,14,13,14L13,14z"/><path d="M19,15c0.551,0,1,0.449,1,1s-0.449,1-1,1s-1-0.449-1-1S18.449,15,19,15 M19,14c-1.105,0-2,0.895-2,2s0.895,2,2,2    s2-0.895,2-2S20.105,14,19,14L19,14z"/><path d="M16,19.175c-0.375,0-0.5-0.175-0.5-0.175s0.125-1,0.5-1c0.375,0,0.5,1,0.5,1S16.375,19.175,16,19.175z M16,17    c-1,0-1.5,2-1.5,2.5S16,20,16,20s1.5,0,1.5-0.5S17,17,16,17L16,17z"/><path d="M27.5,23c-0.467,0-0.916,0.132-1.302,0.37l-3.558-3.558C22.993,19.531,23,18.956,23,18.25c0-1,1-1.125,1-3.125    c0-1.301-0.317-2.449-0.869-3.428l3.067-3.067C26.584,8.868,27.033,9,27.5,9C28.878,9,30,7.878,30,6.5    c0-1.222-0.882-2.242-2.042-2.458C27.742,2.882,26.722,2,25.5,2C24.122,2,23,3.122,23,4.5c0,0.467,0.132,0.916,0.37,1.302    L20.212,8.96C18.987,8.339,17.547,8,16,8s-2.987,0.339-4.212,0.96L8.63,5.802C8.868,5.416,9,4.967,9,4.5C9,3.122,7.878,2,6.5,2    C5.278,2,4.258,2.882,4.042,4.042C2.882,4.258,2,5.278,2,6.5C2,7.878,3.122,9,4.5,9c0.467,0,0.916-0.132,1.302-0.37l3.067,3.067    C8.317,12.676,8,13.824,8,15.125c0,2,1,2.125,1,3.125c0,0.706,0.007,1.281,0.36,1.562L5.802,23.37C5.416,23.132,4.967,23,4.5,23    C3.122,23,2,24.122,2,25.5c0,1.222,0.882,2.242,2.042,2.458C4.258,29.118,5.278,30,6.5,30C7.878,30,9,28.878,9,27.5    c0-0.467-0.132-0.916-0.37-1.302l3.481-3.481C12.267,23.428,12.494,24,13,24c0.688,0,2,0,3,0s2.312,0,3,0    c0.506,0,0.733-0.572,0.889-1.283l3.481,3.481C23.132,26.584,23,27.033,23,27.5c0,1.378,1.122,2.5,2.5,2.5    c1.222,0,2.242-0.882,2.458-2.042C29.118,27.742,30,26.722,30,25.5C30,24.122,28.878,23,27.5,23z M24.779,5.807    C24.317,5.552,24,5.065,24,4.5C24,3.672,24.672,3,25.5,3S27,3.672,27,4.5c0,0.237-0.06,0.459-0.158,0.658    C27.041,5.06,27.263,5,27.5,5C28.328,5,29,5.672,29,6.5S28.328,8,27.5,8c-0.565,0-1.052-0.317-1.307-0.779l-3.627,3.627    c-0.414-0.522-0.905-0.981-1.461-1.367L24.779,5.807z M5.807,7.221C5.552,7.683,5.065,8,4.5,8C3.672,8,3,7.328,3,6.5    S3.672,5,4.5,5c0.237,0,0.459,0.06,0.658,0.158C5.06,4.959,5,4.737,5,4.5C5,3.672,5.672,3,6.5,3S8,3.672,8,4.5    c0,0.565-0.317,1.052-0.779,1.307l3.675,3.675c-0.557,0.386-1.047,0.845-1.461,1.367L5.807,7.221z M7.221,26.193    C7.683,26.448,8,26.935,8,27.5C8,28.328,7.328,29,6.5,29S5,28.328,5,27.5c0-0.237,0.06-0.459,0.158-0.658    C4.959,26.94,4.737,27,4.5,27C3.672,27,3,26.328,3,25.5S3.672,24,4.5,24c0.565,0,1.052,0.317,1.307,0.779L10.586,20    c0.098,0,0.222,0,0.414,0c0.534,0,0.736,0.707,0.889,1.525L7.221,26.193z M19.046,21.791c-0.063,0.363-0.162,0.932-0.272,1.209H18    v-1c0-0.276-0.224-0.5-0.5-0.5S17,21.724,17,22v1h-1h-1v-1c0-0.276-0.224-0.5-0.5-0.5S14,21.724,14,22v1h-0.774    c-0.11-0.277-0.209-0.846-0.272-1.209C12.749,20.613,12.47,19,11,19h-0.975C10,18.811,10,18.495,10,18.25    c0-0.711-0.296-1.166-0.534-1.533C9.216,16.333,9,16,9,15.125C9,11.519,11.878,9,16,9s7,2.519,7,6.125    c0,0.875-0.216,1.208-0.466,1.592C22.296,17.084,22,17.539,22,18.25c0,0.245,0,0.561-0.025,0.75H21    C19.53,19,19.251,20.613,19.046,21.791z M27.5,27c-0.237,0-0.459-0.06-0.658-0.158C26.94,27.041,27,27.263,27,27.5    c0,0.828-0.672,1.5-1.5,1.5S24,28.328,24,27.5c0-0.565,0.317-1.052,0.779-1.307l-4.668-4.668C20.264,20.707,20.466,20,21,20    c0.192,0,0.316,0,0.414,0l4.779,4.779C26.448,24.317,26.935,24,27.5,24c0.828,0,1.5,0.672,1.5,1.5S28.328,27,27.5,27z"/></g></g></svg>