<svg xmlns="http://www.w3.org/2000/svg" data-name="Layer 1" viewBox="0 0 100 125" x="0px" y="0px"><title>skull</title><path d="M56.26,96.27c0,.82-.67,1-1.49,1,0,0-1.49-.23-1.49-1,0,0,.39-3.91,1.18-3.71.15,0,.41.23.56.26C55.82,93,56.26,96.27,56.26,96.27Zm5.8-5.21c-.25.11-.59.6-.85.69-.77.27-.5,2.59-.5,2.59.1,1,2.29.48,2.29.09C63,93.48,62.81,90.74,62.06,91.06Zm15.7-69.64a20.62,20.62,0,0,0,.61,4.7c.85,4.16-1.1,7.73-.34,12.19,1.56,9.09,8.45,25.06,6.41,30.56-2.49,6.68-13.19,8-15.87,10-3.7,2.75-2.6,9.19-3,9.39s-.35-1.73-1.43-1.31c-.71.28-.77,2.46-2,2.73s-2.41,2.62-2.72,2.19a13.38,13.38,0,0,1,.51,2.22c0,.8-.09,1.4-.88,1.45-.28,0-.83.08-1.1.09-.81,0-.91-.74-.91-1.54a13.92,13.92,0,0,1,.43-2.24c-.19.13-.41-.23-1.14-.13s-1.12-.46-1.75-.48a1.6,1.6,0,0,0-1.23.85,5.51,5.51,0,0,1-4.1.87c-.63-.12-.73.19-1-.24a17.33,17.33,0,0,1,.75,2.95c0,1-.29,1.64-1.24,1.64H46.73c-1,0-1.14-.67-1.14-1.64a16.56,16.56,0,0,1,.07-2.4c-.13.38-.71-.32-1.12-.31-.56,0-1.5-1.09-2.08-1.12a3.44,3.44,0,0,1-2.18-.5c-.43-.23-.84,0-1.6-1.08-.21-.28-2.07-.59-2.31-.83-.82-.8-.81-1.7-1.25-2-1.45-.84-1.1.32-1.55.13-.23-.1.49-6.68-3.19-8.67C27.46,77.32,20.22,77.84,18,73.53s-4-5.34-3-7.94c.71-1.81,4-5.9,4-10,0-2.59.37-15.85-.26-15.47-.87.51-.22,16.57-2.17,17.63-1.56-3.39-3.84-5.87-4.35-10.42s-1.76-15,.27-19c1.76-3.51,8.4-20.84,29.93-25.19a50.56,50.56,0,0,1,15.25,0C79.16,7.43,85.93,24.69,87.56,28.27c2,4.44.78,14.48.27,19s-1.4,8.42-2.49,7.94c-.8-.35-2.29-7.64-5.15-16.53-1.54-4.77.62-9.09-.69-13.26C79.1,24.25,78,21.29,77.76,21.42ZM45.56,55c-.07-1.17.31-2.68-1.4-4.47a10.68,10.68,0,0,0-5.31-3.2c-3.83-.64-13.15.55-13.15,8.31s.64,8.4,5.41,9.15a13.53,13.53,0,0,0,11.72-3.29C46.39,58.62,45.66,56.8,45.56,55Zm5,10.15c-.37,0-.81.11-1.51,1.23-2.24,3.79-3.91,6-3.46,7.6.67,1.86,1.36,2.22,2.08,2.07.38-.08.42-.26,1.38-.69,2.29-1,3.34.4,4.42.69.71.19,1.39-.21,2.07-2.07C56,72.46,52.48,65.2,50.55,65.2Zm23.75-9.52c0-7.76-9.31-9-13.15-8.31a10.68,10.68,0,0,0-5.31,3.2c-1.71,1.79-1.34,3.3-1.4,4.47-.1,1.75-.83,3.57,2.73,6.49A13.53,13.53,0,0,0,68.9,64.83C73.67,64.08,74.31,63.44,74.31,55.68ZM43.26,93.51c-.18-.05-.59-.45-.94-.52-.81-.14-.94,3-.94,3,0,.76.06,1.5.85,1.54.28,0,.91-.22,1.2-.18.79.1.85-.59.85-1.35C44.27,96,44.27,93.8,43.26,93.51Zm-5.15-2.13c-.19,0-.77-.24-1.08-.26-.72-.05-.65,2.84-.65,2.84,0,.8.12,1,.83,1.19.22,0,.61.29.82.34.7.16,1-.73,1-1.53C39,94,38.83,91.47,38.11,91.39Zm26.33-2.86c-.12.05-.27.31-.39.36-.51.2-.89,2.44-.89,2.44,0,.58.17,1,.71,1l.69,0c.55,0,.77-.44.77-1C65.33,91.32,64.94,88.3,64.44,88.52Zm-29.61.4-.59-.07c-.58,0-.65,2.62-.65,2.62,0,.58.25,1,.83,1l.82-.18c.58,0,.64-.3.64-.87C35.88,91.47,35.4,88.92,34.83,88.92Z"/></svg>