<svg xmlns="http://www.w3.org/2000/svg" xmlns:xlink="http://www.w3.org/1999/xlink" version="1.1" x="0px" y="0px" viewBox="0 0 100 125" enable-background="new 0 0 100 100" xml:space="preserve"><path d="M88.318,37c-0.26,0-0.502,0-0.739,0H56.421C55.874,37,55,37.716,55,38.257V40H33.681C33.135,40,32,40.652,32,41.192V43H14  l0.092-0.83C14.092,41.63,13.548,41,13,41H7.977C7.43,41,7,41.63,7,42.17v15.658C7,58.369,7.43,59,7.977,59H13  c0.548,0,1.092-0.631,1.092-1.172L14,57h18v1.809C32,59.35,33.135,60,33.681,60H55v1.743C55,62.284,55.874,63,56.421,63H87.58  c0.237,0,0.479,0,0.738,0c3.216,0,4.681-6.804,4.681-13C92.999,43.805,91.534,37,88.318,37z M12,57H9V43h3v1.128v11.744V57z M14,55  V45h18v10H14z M34,58v-2.128V44.128V42h21v16H34z M57,58.809V41.192V39h28.608c-1.339,3-1.974,6.943-1.974,11  c0,4.059,0.635,8,1.974,11H57V58.809z M88.474,60.98C88.348,60.92,88.207,61,88.057,61h-0.04c-0.9-1-2.405-4.587-2.405-11  c0-6.411,1.505-10,2.405-11h0.04c0.15,0,0.291,0.079,0.417,0.019c0.873,0.418,2.549,4.216,2.549,10.981  C91.022,56.765,89.347,60.564,88.474,60.98z"/></svg>