<svg xmlns="http://www.w3.org/2000/svg" xmlns:xlink="http://www.w3.org/1999/xlink" version="1.1" x="0px" y="0px" viewBox="0 0 100 125" enable-background="new 0 0 100 100" xml:space="preserve"><g><path d="M41.382,44.488c0.112,0,0.23-0.004,0.353-0.014c1.875-0.144,3.484-0.869,4.503-1.451c1.182-0.675,1.729-1.415,1.44-3.585   c-0.301-2.257-2.873-3.109-4.449-3.117c-1.471,0-2.796,0.538-3.636,1.477c-0.721,0.806-1.035,1.84-0.907,2.991   C38.947,43.131,39.471,44.488,41.382,44.488z M40.12,38.269c0.706-0.789,1.839-1.241,3.132-1.241   c1.107,0.005,3.475,0.624,3.726,2.503c0.26,1.955-0.238,2.391-1.09,2.877c-0.957,0.546-2.463,1.226-4.208,1.36   c-1.324,0.104-1.976-0.226-2.291-3.059C39.284,39.765,39.537,38.921,40.12,38.269z"/><path d="M56.246,44.607c0.216,0.046,0.435,0.07,0.649,0.07c1.379,0,2.657-0.927,3.799-2.756c0.83-1.33,0.601-3.315-0.491-4.25   c-1.177-1.008-2.385-1.277-3-1.347c-0.395-0.044-1.173-0.057-1.509,0.003c-1.158,0.21-2.115,0.785-2.625,1.576   c-0.399,0.618-0.511,1.34-0.323,2.089C53.432,42.74,54.577,44.25,56.246,44.607z M53.663,38.286   c0.405-0.628,1.191-1.088,2.158-1.264c0.138-0.025,0.342-0.033,0.554-0.033c0.276,0,0.564,0.016,0.748,0.037   c0.535,0.061,1.586,0.295,2.619,1.181c0.816,0.699,0.987,2.321,0.353,3.338c-1.005,1.608-2.081,2.424-3.199,2.424   c-0.165,0-0.334-0.019-0.501-0.054c-1.379-0.295-2.349-1.635-2.963-4.096C53.291,39.258,53.369,38.742,53.663,38.286z"/><path d="M48.776,48.804l0.245,0.004c0.068,0,0.116-0.005,0.328-0.042l0.481-0.077c0.059,0,0.079,0,0.192,0.238   c0.116,0.242,0.308,0.646,0.84,0.646c0.11,0,0.227-0.018,0.355-0.054c1.059-0.302,1.468-1.713,1.094-3.775   c-0.307-1.693-1.936-2.598-2.005-2.636l-0.232-0.127l-0.187,0.188c-0.251,0.252-2.451,2.507-2.351,4.065   C47.607,48.334,47.978,48.804,48.776,48.804z M50.192,43.872c0.405,0.282,1.237,0.972,1.424,1.998   c0.223,1.229,0.201,2.743-0.592,2.968c-0.063,0.018-0.119,0.028-0.162,0.028c-0.064,0-0.086,0-0.202-0.244   c-0.114-0.24-0.306-0.641-0.83-0.641c-0.056,0-0.117,0.005-0.183,0.016l-0.42,0.072c-0.134,0.023-0.165,0.028-0.25,0.03l-0.2-0.003   c-0.266,0-0.476,0-0.534-0.907C48.181,46.235,49.486,44.627,50.192,43.872z"/><path d="M32.925,43.105c-0.165,1.804,1.85,3.716,3.761,4.304c0.732,0.226,1.552,0.279,2.346,0.331   c1.22,0.079,2.372,0.154,2.974,0.831c0.974,1.096,1.6,3.216,1.457,4.934l-0.015,0.175c-0.133,1.584-0.248,2.952,1.274,3.292   c0.26,0.055,0.497,0.015,0.695-0.12c0.468-0.319,0.583-1.054,0.695-1.763c0.038-0.24,0.091-0.578,0.152-0.755   c0.176,0.194,0.277,0.703,0.361,1.123c0.16,0.803,0.358,1.803,1.266,1.803c0.939,0,0.99-1.199,1.027-2.076   c0.011-0.262,0.027-0.63,0.071-0.827c0.145,0.172,0.241,0.624,0.313,0.969c0.159,0.751,0.356,1.685,1.215,1.792   c0.229,0.028,0.439-0.029,0.61-0.165c0.443-0.353,0.525-1.152,0.605-1.926c0.015-0.146,0.033-0.321,0.055-0.487   c0.003,0.043,0.006,0.084,0.008,0.122c0.043,0.678,0.097,1.521,0.64,1.995c0.28,0.245,0.651,0.357,1.102,0.322   c1.68-0.121,1.639-1.788,1.617-2.684c-0.004-0.16-0.009-0.367,0.002-0.479c0.565-0.293,1.371-1.323,1.782-2.557l0.146-0.456   c0.451-1.436,0.878-2.535,1.907-2.535c1.572,0,3.32-0.423,4.795-1.161c1.781-0.892,2.58-2.063,2.442-3.58   c-0.061-0.663-0.546-1.186-1.389-1.539c0.163-0.481,0.728-2.209,0.965-3.714c0.214-1.367,0.866-5.525-0.294-9.155   c-1.131-3.534-2.996-7.344-8.252-8.803c-5.216-1.449-10.018-1.268-15.107,0.57c-4.713,1.702-6.793,5.731-7.793,7.667   c-0.099,0.192-0.187,0.362-0.265,0.504c-0.817,1.499-0.535,5.723-0.367,8.247l0.043,0.656c0.117,1.875,0.324,3.107,0.396,3.502   C33.421,41.857,32.987,42.42,32.925,43.105z M35.31,41.773c0.504-0.136,0.866-0.64,0.92-1.287l0.209-2.519   c0.135-1.621,1.513-5.492,1.526-5.53c0.066-0.184-0.03-0.386-0.214-0.452c-0.185-0.064-0.386,0.03-0.452,0.214   c-0.058,0.163-1.423,3.998-1.565,5.71l-0.209,2.518c-0.033,0.393-0.224,0.616-0.398,0.662c-0.104,0.028-0.197,0.062-0.294,0.093   c-0.085-0.501-0.258-1.65-0.359-3.266l-0.043-0.659c-0.152-2.287-0.437-6.543,0.282-7.861c0.08-0.147,0.17-0.322,0.272-0.519   c0.958-1.856,2.953-5.719,7.405-7.327c4.944-1.785,9.607-1.961,14.678-0.553c4.932,1.37,6.694,4.983,7.768,8.337   c1.109,3.469,0.477,7.504,0.269,8.829c-0.227,1.439-0.784,3.147-0.937,3.6c-0.288-0.076-0.595-0.143-0.938-0.189   c-0.049-0.006-0.083-0.022-0.101-0.046c-0.031-0.042-0.039-0.131-0.021-0.235c0.168-0.948,0.449-2.737,0.449-4.059   c0-1.851-0.685-4.475-0.714-4.585c-0.05-0.188-0.237-0.305-0.432-0.252c-0.189,0.049-0.302,0.243-0.252,0.432   c0.007,0.026,0.69,2.646,0.69,4.406c0,1.315-0.307,3.19-0.439,3.937c-0.066,0.384,0.043,0.633,0.147,0.775   c0.133,0.182,0.333,0.296,0.577,0.329c0.538,0.072,2.302,0.382,2.386,1.314c0.11,1.21-0.542,2.126-2.054,2.883   c-1.38,0.69-3.012,1.086-4.479,1.086c-1.631,0-2.181,1.751-2.582,3.03l-0.143,0.444c-0.414,1.245-1.212,2.081-1.462,2.163   c-0.382,0.128-0.371,0.562-0.357,1.113c0.03,1.253-0.11,1.9-0.961,1.962c-0.256,0.014-0.449-0.031-0.585-0.149   c-0.321-0.281-0.364-0.961-0.399-1.507c-0.038-0.607-0.081-1.296-0.676-1.296c-0.629,0-0.71,0.793-0.797,1.633   c-0.052,0.508-0.132,1.277-0.424,1.462c-0.333-0.042-0.463-0.539-0.611-1.237c-0.142-0.671-0.289-1.365-0.868-1.558   c-0.188-0.062-0.373-0.04-0.523,0.062c-0.34,0.234-0.363,0.78-0.392,1.472c-0.021,0.488-0.059,1.398-0.32,1.398   c-0.303,0-0.428-0.512-0.572-1.233c-0.138-0.693-0.28-1.411-0.815-1.679c-0.252-0.127-0.45-0.063-0.545-0.013   c-0.362,0.187-0.443,0.7-0.545,1.351c-0.071,0.455-0.179,1.142-0.395,1.288c-0.017,0.012-0.051,0.034-0.143,0.015   c-0.848-0.189-0.871-0.776-0.723-2.543l0.015-0.175c0.137-1.647-0.38-4.052-1.634-5.462c-0.794-0.894-2.147-0.982-3.456-1.067   c-0.752-0.049-1.531-0.1-2.184-0.3c-1.794-0.552-3.381-2.284-3.265-3.563C33.707,42.325,34.715,41.932,35.31,41.773z"/><path d="M41.92,52.945c-0.11-1.436-0.285-3.663-1.95-3.413c-0.483,0.071-1.004,0.602-1.004,1.333c0,0.186-0.016,0.635-0.036,1.232   c-0.042,1.205-0.104,3.024-0.104,4.528l-0.001,0.421c-0.008,2.033-0.014,3.502,1.962,5.056c1.015,0.797,1.882,1.598,2.578,2.24   c0.677,0.626,1.166,1.077,1.533,1.297c0.748,0.449,2.553,0.601,6.067,0.753c0.215,0.009,0.424,0.014,0.63,0.014   c3.102,0,5.232-1.035,6.474-1.903c1.434-1.006,3.101-3.069,3.101-4.225c0-0.323,0.05-1.189,0.106-2.192   c0.12-2.098,0.269-4.708,0.173-5.574c-0.027-0.245-0.043-0.506-0.06-0.767c-0.072-1.166-0.173-2.514-1.325-2.354   c-1.371,0.195-1.654,2.229-1.708,2.848c-0.064,0.746-0.066,1.76-0.067,2.654c-0.001,0.905-0.002,1.76-0.067,2.084   c-0.103,0.514-0.545,1.171-0.756,1.15l-0.104-0.174c-0.365-0.617-0.778-1.316-1.474-1.316c-0.133,0-0.268,0.027-0.402,0.081   c-0.535,0.215-0.626,0.938-0.705,1.577c-0.023,0.188-0.057,0.449-0.099,0.604c-0.064-0.088-0.094-0.25-0.129-0.51   c-0.059-0.439-0.14-1.04-0.79-1.258c-0.082-0.027-0.165-0.041-0.246-0.041c-0.597,0-0.875,0.658-1.144,1.295   c-0.159,0.378-0.399,0.947-0.634,0.983c-0.109-0.047-0.225-0.546-0.28-0.786c-0.13-0.567-0.278-1.211-0.83-1.321l-0.127-0.013   c-0.594,0-0.699,0.697-0.792,1.312c-0.035,0.233-0.142,0.942-0.275,0.942c-0.157,0-0.273-0.421-0.367-0.76   c-0.152-0.551-0.341-1.237-0.98-1.343l-0.132-0.012c-0.707,0-0.857,0.842-0.979,1.519c-0.038,0.212-0.097,0.542-0.136,0.685   c-0.122-0.158-0.293-0.523-0.403-0.758c-0.306-0.652-0.622-1.327-1.15-1.432l-0.141-0.015c-0.617,0-0.753,0.7-0.862,1.263   c-0.029,0.147-0.072,0.367-0.118,0.503c-0.084-0.156-0.172-0.487-0.229-0.701c-0.123-0.461-0.261-0.982-0.551-1.345   c-0.182-0.229-0.391-0.344-0.621-0.344c-0.34,0-0.586,0.257-0.769,0.464c-0.066-0.444-0.055-1.322-0.045-2.001   C41.963,54.451,41.974,53.648,41.92,52.945z M42.495,57.735c0.07-0.08,0.217-0.247,0.257-0.266c0,0,0.03,0.013,0.084,0.08   c0.197,0.246,0.315,0.691,0.42,1.085c0.169,0.636,0.344,1.293,1.01,1.293c0.002,0,0.004,0,0.006,0   c0.495-0.051,0.608-0.63,0.708-1.142c0.042-0.22,0.122-0.628,0.17-0.689c0.177,0.035,0.495,0.713,0.647,1.039   c0.308,0.655,0.573,1.223,1.057,1.223l0.136-0.018c0.47-0.117,0.573-0.695,0.683-1.309c0.05-0.281,0.155-0.867,0.298-0.934   c0.193,0.032,0.316,0.477,0.415,0.834c0.157,0.569,0.353,1.278,1.048,1.278c0.742,0,0.876-0.893,0.975-1.544   c0.029-0.197,0.075-0.502,0.132-0.658c0.093,0.144,0.182,0.531,0.229,0.733c0.137,0.596,0.307,1.336,0.976,1.336l0.137-0.012   c0.592-0.1,0.871-0.763,1.142-1.404c0.1-0.235,0.362-0.858,0.513-0.858l0.001,0.001c0.212,0.07,0.256,0.252,0.313,0.68   c0.053,0.392,0.125,0.929,0.65,1.139c0.083,0.033,0.165,0.05,0.244,0.05c0.575,0,0.66-0.685,0.735-1.289   c0.036-0.284,0.118-0.949,0.267-1.009c0.388-0.154,0.696,0.417,1.005,0.938l0.106,0.18c0.197,0.328,0.466,0.377,0.607,0.377   c0.71,0,1.328-1.158,1.447-1.754c0.079-0.393,0.08-1.24,0.081-2.222c0.002-0.88,0.003-1.879,0.065-2.595   c0.067-0.771,0.375-2.105,1.164-2.213c0.352,0,0.411,0.944,0.458,1.703c0.017,0.271,0.034,0.545,0.062,0.801   c0.09,0.807-0.063,3.493-0.176,5.455c-0.06,1.056-0.107,1.89-0.107,2.233c0,0.817-1.439,2.691-2.8,3.645   c-1.234,0.864-3.428,1.9-6.666,1.763c-2.741-0.118-5.063-0.249-5.735-0.652c-0.305-0.183-0.795-0.636-1.417-1.21   c-0.706-0.651-1.583-1.462-2.621-2.277c-1.706-1.34-1.701-2.527-1.692-4.496l0.001-0.424c0-1.491,0.062-3.305,0.104-4.504   c0.021-0.609,0.037-1.067,0.037-1.257c0-0.397,0.291-0.617,0.401-0.634c0.044-0.006,0.086-0.01,0.126-0.01   c0.704,0,0.904,1.335,1.015,2.778c0.051,0.671,0.041,1.457,0.031,2.218c-0.023,1.729-0.015,2.572,0.419,2.835l0.14,0.067h0.099   C42.159,58.12,42.33,57.925,42.495,57.735z"/><path d="M80.138,73.205c0-0.336,0.141-0.667,0.29-1.018c0.334-0.786,0.75-1.766-0.724-2.785c-0.359-0.249-0.812-0.375-1.347-0.375   c-1.325,0-2.988,0.753-4.597,1.48c-1.032,0.468-2.009,0.909-2.77,1.088c-1.623,0.382-3.27,0.725-5.563,0.725   c-0.938,0-1.93-0.056-3.03-0.169c-1.089-0.112-3.598-0.165-7.896-0.165c-3.142,0-6.804,0.028-10.334,0.055   c-3.284,0.025-6.455,0.05-8.987,0.05c-2.602,0-4.227-0.026-4.968-0.081c-1.716-0.127-2.646-0.707-3.466-1.218   c-0.725-0.452-1.411-0.88-2.442-0.88c-0.339,0-0.693,0.046-1.084,0.139c-1.16,0.276-1.947,0.842-2.339,1.683   c-0.563,1.208-0.112,2.576,0.167,3.218c-0.589,0.586-2.269,2.476-1.887,4.638c0.453,2.568,1.733,3.664,4.282,3.664   c1.775,0,5.101-1.07,7.773-1.93c0.994-0.32,1.852-0.596,2.434-0.751c2.185-0.582,9.83-1.593,14.002-2.098   c0.666-0.081,1.44-0.12,2.367-0.12c2.669,0,6.042,0.334,9.303,0.657c2.778,0.274,5.401,0.534,7.527,0.589   c4.222,0.108,8.689,1.564,11.09,2.347c0.692,0.226,1.192,0.389,1.487,0.455c1.311,0.287,1.622-0.396,2.037-1.322   c0.092-0.206,0.196-0.437,0.323-0.691c0.674-1.346,0.478-2.836-0.584-4.43C80.363,74.702,80.138,74.364,80.138,73.205z    M81.153,80.072c-0.132,0.265-0.24,0.505-0.336,0.719c-0.365,0.813-0.469,0.973-0.835,0.974c-0.11,0-0.245-0.019-0.402-0.054   c-0.262-0.058-0.773-0.225-1.422-0.436c-2.435-0.794-6.967-2.271-11.292-2.382c-2.1-0.054-4.711-0.312-7.475-0.586   c-3.279-0.325-6.669-0.66-9.374-0.66c-0.956,0-1.758,0.04-2.452,0.124c-4.191,0.508-11.876,1.525-14.099,2.117   c-0.6,0.16-1.466,0.438-2.468,0.761c-2.487,0.801-5.894,1.896-7.557,1.896c-2.218,0-3.189-0.835-3.585-3.08   c-0.381-2.161,1.831-4.148,1.853-4.169l0.204-0.18l-0.122-0.243c-0.194-0.388-0.786-1.737-0.27-2.842   c0.296-0.635,0.923-1.069,1.862-1.294c0.336-0.079,0.637-0.118,0.92-0.118c0.83,0,1.376,0.341,2.068,0.771   c0.845,0.527,1.898,1.184,3.788,1.323c0.769,0.057,2.364,0.083,5.02,0.083c2.534,0,5.707-0.024,8.993-0.049   c3.528-0.027,7.188-0.056,10.329-0.056c4.215,0,6.774,0.053,7.824,0.161c1.125,0.116,2.14,0.173,3.103,0.173   c2.37,0,4.061-0.352,5.726-0.742c0.828-0.195,1.834-0.65,2.899-1.133c1.54-0.697,3.132-1.418,4.305-1.418   c0.393,0,0.702,0.082,0.944,0.25c0.999,0.691,0.802,1.156,0.475,1.927c-0.162,0.381-0.346,0.813-0.346,1.294   c0,1.374,0.322,1.856,1.184,3.146C81.537,77.737,81.713,78.954,81.153,80.072z"/><path d="M95.174,47.577c-0.476-1.471-1.485-2.492-2.918-2.95c-0.479-0.153-0.937-0.231-1.357-0.231   c-1.536,0-2.365,0.995-3.031,1.794c-0.425,0.51-0.792,0.95-1.199,0.95c-0.457,0-0.839-0.429-1.322-0.971   c-0.816-0.916-1.936-2.17-4.283-2.261l-0.185-0.003c-1.192,0-2.187,0.472-2.874,1.364c-1.22,1.582-1.275,4.202-0.8,6.002   c0.035,0.095,0.886,2.332,2.459,4.049c1.369,1.493,5.622,5.177,6.944,5.177l0.11-0.007c1.206-0.173,5.506-4.313,7.401-6.885   C95.368,51.908,95.792,49.486,95.174,47.577z M93.549,53.185c-2.08,2.823-6.168,6.495-6.931,6.604l-0.011,0.354v-0.354   c-0.833,0-4.699-3.067-6.423-4.948c-1.474-1.608-2.306-3.784-2.308-3.784c-0.422-1.604-0.387-3.964,0.687-5.356   c0.558-0.722,1.336-1.089,2.314-1.089l0.157,0.003c2.048,0.079,3.01,1.158,3.782,2.024c0.554,0.621,1.077,1.208,1.851,1.208   c0.739,0,1.227-0.585,1.743-1.204c0.631-0.757,1.283-1.54,2.487-1.54c0.348,0,0.731,0.066,1.143,0.198   c1.524,0.488,2.179,1.626,2.46,2.495C95.053,49.498,94.67,51.664,93.549,53.185z"/><path d="M14.298,47.182c0.168,0,0.334-0.014,0.496-0.043c1.723-0.313,4.238-2.307,4.083-4.172   c-0.079-0.949-0.714-4.226-5.311-3.693c-1.748,0.202-3.074,1.117-3.64,2.512c-0.466,1.149-0.339,2.46,0.316,3.262   C10.965,45.934,12.702,47.182,14.298,47.182z M10.582,42.051c0.273-0.674,1.035-1.84,3.065-2.075   c0.307-0.035,0.596-0.052,0.866-0.052c3.07,0,3.581,2.169,3.659,3.102c0.122,1.459-2.098,3.162-3.504,3.417   c-1.367,0.25-3.175-0.981-3.878-1.843C10.301,44.002,10.215,42.954,10.582,42.051z"/><path d="M24.497,49.487c0.027-0.35-0.094-0.68-0.349-0.956c-1.041-1.124-4.379-1.292-6.277-1.292c-0.591,0-1.143,0.016-1.614,0.041   c-1.197,0.061-2.961,0.011-4.665-0.038c-1.097-0.031-2.169-0.062-3.053-0.062c-0.926,0-1.526,0.034-1.887,0.106   c-0.215,0.043-0.443,0.079-0.675,0.116c-1.258,0.2-2.982,0.474-2.955,2.203c0.028,1.801,0.676,2.876,1.731,2.876   c0.433,0,0.814-0.038,1.159-0.073c0.75-0.074,1.28-0.082,1.707,0.273c0.3,0.25,1.426,2.485,2.331,4.282   c2.625,5.214,3.321,6.34,3.919,6.34l0.076-0.007c0.14-0.023,0.261-0.105,0.341-0.232c0.416-0.655-0.209-3.269-1.59-8.179   c-0.194-0.689-0.352-1.249-0.434-1.578c-0.051-0.202-0.101-0.388-0.147-0.56c-0.141-0.518-0.262-0.965-0.157-1.113   c0.067-0.095,0.315-0.221,1.111-0.277c1.175-0.081,3.284,0.09,5.097,0.238c1.215,0.099,2.264,0.185,2.886,0.185   C22.275,51.781,24.32,51.781,24.497,49.487z M13.02,50.653c-0.778,0.056-1.354,0.174-1.637,0.573   c-0.299,0.42-0.152,0.961,0.051,1.708c0.045,0.167,0.094,0.349,0.144,0.546c0.083,0.333,0.243,0.9,0.439,1.598   c0.485,1.724,1.696,6.029,1.708,7.315c-0.671-0.84-2.134-3.745-3.143-5.747c-1.339-2.659-2.116-4.18-2.509-4.507   c-0.52-0.434-1.038-0.489-1.431-0.489c-0.248,0-0.511,0.026-0.8,0.056c-0.324,0.032-0.681,0.069-1.087,0.069   c-0.942,0-1.019-1.816-1.024-2.181c-0.017-1.041,0.88-1.259,2.358-1.493c0.242-0.039,0.479-0.076,0.703-0.121   c0.31-0.062,0.882-0.092,1.748-0.092c0.878,0,1.943,0.031,3.033,0.062c1.727,0.051,3.512,0.102,4.723,0.037   c0.46-0.024,1-0.04,1.577-0.04c2.988,0,5.14,0.398,5.758,1.065c0.123,0.132,0.174,0.266,0.163,0.42   c-0.108,1.396-0.969,1.642-2.739,1.642c-0.593,0-1.679-0.089-2.828-0.183C16.38,50.74,14.235,50.564,13.02,50.653z"/><path d="M16.343,52.33c-0.358,0.035-0.722,0.022-1.061,0.013c-0.702-0.021-1.37-0.068-1.775,0.381   c-0.212,0.234-0.295,0.558-0.252,0.986c0.168,1.673,0.598,4.905,1.144,6.409c0.071,0.194,0.258,0.71,0.7,0.711   c0.557,0,0.841-0.774,1.358-2.18c0.175-0.477,0.363-0.987,0.567-1.464c0.573-1.338,0.705-2.051,0.811-2.623   c0.05-0.27,0.093-0.508,0.183-0.776c0.091-0.273,0.062-0.537-0.085-0.764C17.568,52.466,16.602,52.348,16.343,52.33z    M17.346,53.563c-0.103,0.309-0.153,0.582-0.207,0.872c-0.1,0.537-0.223,1.206-0.766,2.472c-0.209,0.488-0.401,1.012-0.581,1.499   c-0.208,0.566-0.481,1.308-0.672,1.611c-0.017-0.036-0.036-0.083-0.057-0.141c-0.522-1.438-0.94-4.597-1.105-6.237   c-0.015-0.148-0.014-0.346,0.073-0.441c0.128-0.142,0.505-0.158,0.777-0.158c0.144,0,0.295,0.005,0.452,0.01   c0.369,0.01,0.827,0.022,1.084-0.017c0.323,0.032,0.862,0.174,0.994,0.376C17.357,53.438,17.375,53.477,17.346,53.563z"/><path d="M56.732,56.748c0.122,0,0.238-0.036,0.346-0.108c0.419-0.28,0.397-1.312-0.066-3.068l-0.095-0.36l-0.354,0.113   c-0.417,0.133-1.166,0.624-1.015,1.528C55.58,55.047,55.888,56.748,56.732,56.748z M56.438,54.198   c0.18,0.79,0.278,1.531,0.26,1.784c-0.135-0.167-0.348-0.619-0.452-1.246C56.204,54.49,56.31,54.315,56.438,54.198z"/></g></svg>