<svg xmlns="http://www.w3.org/2000/svg" xmlns:xlink="http://www.w3.org/1999/xlink" version="1.1" x="0px" y="0px" viewBox="0 0 100 125" enable-background="new 0 0 100 100" xml:space="preserve"><g><g><path d="M67.557,38.152l-0.398-0.236c-0.081-0.048-8.243-4.887-14.847-7.563c-6.857-2.78-18.557-5.238-21.799-5.409    c-3.381-0.178-4.035-0.885-4.984-2.225l-0.115-0.162c-0.172-0.241-0.363-0.526-0.58-0.85c-0.916-1.368-2.299-3.435-4.618-5.61    c-1.04-0.975-2.946-2.546-4.964-4.21c-6.383-5.262-6.999-5.94-6.861-6.553l0.068-0.3L8.82,4.902    c1.858-0.465,7.052-0.124,11.459,0.715c4.779,0.91,19.01,4.158,27.357,8.213c11.319,5.498,24.886,16.153,25.022,16.26l0.372,0.293    L67.557,38.152z M9.682,5.765c0.993,1.053,3.955,3.495,6.206,5.351c2.03,1.674,3.949,3.255,5.012,4.252    c2.403,2.253,3.825,4.377,4.766,5.783c0.21,0.313,0.396,0.591,0.562,0.825l0.117,0.165c0.776,1.094,1.165,1.644,4.221,1.804    c3.297,0.174,15.176,2.666,22.121,5.481c5.834,2.365,12.853,6.388,14.584,7.396l4.395-6.237    C69.407,28.838,57.373,19.672,47.2,14.73c-8.249-4.007-22.365-7.228-27.107-8.13c-2.971-0.565-6.307-0.917-8.708-0.917    C10.714,5.683,10.138,5.711,9.682,5.765z"/></g><g><path d="M69.937,34.13c-0.11,0-0.221-0.036-0.313-0.11c-0.057-0.046-5.751-4.596-12.488-8.24    c-5.391-2.917-17.481-7.58-17.603-7.626c-0.258-0.1-0.386-0.389-0.287-0.646c0.1-0.258,0.39-0.385,0.646-0.287    c0.122,0.047,12.272,4.734,17.72,7.68c6.819,3.689,12.581,8.294,12.639,8.34c0.215,0.173,0.249,0.488,0.076,0.703    C70.228,34.066,70.083,34.13,69.937,34.13z"/></g><g><path d="M63.979,48.065c-1.594,0-3.021-0.477-3.82-1.274c-1.018-1.02-1.029-2.547-1.029-2.611    c-0.051-0.802-0.027-1.847,0.618-2.534c0.451-0.48,1.118-0.714,2.04-0.714c3.444,0,4.337-0.297,4.561-0.425    c0.878-0.679,7.864-10.631,8.103-11.559c0.106-0.423-0.118-1.246-0.336-2.041c-0.296-1.083-0.632-2.312-0.458-3.412    c0.257-1.621,1.805-3.427,3.617-3.427c0.515,0,1.007,0.146,1.462,0.434c2.103,1.328,2.771,6.509,1.533,8.533    c-0.645,1.055-3.804,5.301-6.592,9.047c-1.82,2.446-3.539,4.757-3.813,5.188c-0.671,1.054-3.012,4.51-4.976,4.742    C64.587,48.048,64.282,48.065,63.979,48.065z M77.274,21.069c-1.251,0-2.44,1.389-2.629,2.583    c-0.141,0.888,0.165,2.005,0.435,2.992c0.274,1.003,0.511,1.87,0.342,2.546c-0.297,1.19-7.671,11.667-8.577,12.185    c-0.241,0.138-0.975,0.557-5.057,0.557c-0.631,0-1.06,0.13-1.312,0.398c-0.299,0.318-0.406,0.879-0.348,1.818    c0.001,0.042,0.018,1.214,0.737,1.936c0.727,0.726,2.333,1.12,3.905,0.935c1.13-0.134,2.995-2.315,4.249-4.286    c0.294-0.462,1.865-2.574,3.855-5.248c2.637-3.544,5.919-7.956,6.54-8.971c0.947-1.549,0.37-6.166-1.213-7.166    C77.909,21.163,77.597,21.069,77.274,21.069z"/></g><g><path d="M88.756,50.759c-0.378,0-0.776-0.137-1.177-0.493c-1.112-0.988-0.626-2.513,0.128-3.519    c0.585-0.778,1.46-2.043,1.461-2.045l0.822,0.569c0,0-0.89,1.286-1.483,2.076c-0.11,0.147-1.06,1.464-0.264,2.171    c0.342,0.305,0.804,0.523,1.946-0.745c1.731-1.923,2.736-3.65,2.622-4.506c-0.125-0.939-2.321-3.159-5.596-5.653    c-2.414-1.838-3.972-2.556-4.629-2.135c-0.843,0.536-2.812,3.653-3.85,5.603c-0.431,0.806-0.522,1.763-0.224,2.326    c0.151,0.284,0.386,0.439,0.718,0.474c0.274,0.029,0.474,0.275,0.444,0.549s-0.266,0.475-0.55,0.445    c-0.659-0.069-1.19-0.424-1.495-1c-0.46-0.867-0.372-2.148,0.224-3.265c0.026-0.05,2.731-5.043,4.195-5.976    c1.396-0.888,3.701,0.606,5.771,2.183c2.137,1.628,5.755,4.613,5.982,6.317c0.203,1.525-1.449,3.729-2.872,5.308    C90.591,49.821,89.746,50.758,88.756,50.759z"/></g><g><path d="M85.248,49.743c-0.54,0-1.055-0.162-1.461-0.469c-0.454-0.342-0.734-0.836-0.789-1.393    c-0.106-1.063,2.437-4.513,3.535-5.946c0.166-0.22,0.481-0.26,0.7-0.093c0.22,0.168,0.261,0.482,0.093,0.701    c-1.602,2.091-3.331,4.691-3.333,5.247c0.034,0.345,0.234,0.564,0.396,0.686c0.308,0.231,0.736,0.318,1.176,0.238    c0.637-0.116,1.616-1.217,2.084-1.884c0.158-0.228,0.47-0.281,0.696-0.123c0.226,0.158,0.281,0.47,0.123,0.696    c-0.148,0.211-1.479,2.067-2.724,2.294C85.578,49.728,85.412,49.743,85.248,49.743z"/></g><g><path d="M81.364,48.552c-0.494,0-1.004-0.147-1.502-0.513c-0.465-0.342-0.739-0.785-0.815-1.315    c-0.194-1.34,0.955-2.859,1.795-3.968c0.233-0.308,0.436-0.573,0.557-0.774c0.904-1.507,2.181-2.79,2.234-2.843    c0.195-0.195,0.512-0.195,0.707,0s0.195,0.512,0,0.707c-0.013,0.012-1.245,1.252-2.084,2.651    c-0.135,0.224-0.357,0.521-0.617,0.864c-0.691,0.914-1.736,2.294-1.603,3.221c0.038,0.263,0.172,0.47,0.42,0.653    c1.461,1.075,3.124-0.969,3.14-0.99c0.173-0.215,0.488-0.25,0.703-0.078c0.216,0.173,0.25,0.487,0.078,0.703    C83.812,47.574,82.642,48.552,81.364,48.552z"/></g><g><path d="M44.368,92.889c-1.858,0-3.152-0.682-4.9-1.603c-0.965-0.508-1.232-0.735-1.392-0.871    c-0.106-0.091-0.135-0.114-0.827-0.299c-0.47-0.126-1.153-0.261-1.971-0.423c-1.723-0.343-4.083-0.811-6.3-1.549    c-3.745-1.249-7.745-3.064-10.699-4.855c-2.269-1.375-2.84-1.902-3.344-2.368c-0.206-0.19-0.397-0.367-0.714-0.599    c-0.095-0.068-0.196-0.139-0.301-0.21c-0.666-0.456-1.495-1.023-1.569-2.017c-0.063-0.847,0.469-1.782,1.628-2.861    c1.524-1.419,2.823-2.177,3.969-2.846c1.011-0.59,1.885-1.1,2.681-1.939c1.617-1.708,2.006-3.006,1.542-5.143    c-0.157-0.723-0.417-1.556-0.691-2.438c-0.576-1.851-1.172-3.764-0.875-4.952c0.236-0.943,0.392-1.567,0.905-1.842    c0.425-0.228,0.931-0.125,1.612,0.119c0.745,0.266,1.506,1.039,2.387,1.935c0.903,0.918,1.926,1.958,2.941,2.393    c1.992,0.854,4.005,2.314,7.69,5.58c1.942,1.721,3.306,3.503,4.302,4.804c0.527,0.688,1.125,1.47,1.344,1.558    c0.123-0.058,0.77-0.665,1.339-1.201c1.318-1.239,3.31-3.111,6.266-4.826l2.116-1.224c4.396-2.538,8.94-5.163,10.687-6.492    c2.006-1.527,4.528-4.143,4.554-4.169c0.418-0.614,0.668-2.191,0.889-3.583c0.165-1.04,0.32-2.021,0.565-2.795    c0.617-1.956,3.834-6.859,5.083-8.493c0.19-0.248,0.422-0.562,0.681-0.914c2.822-3.828,4.35-5.522,5.399-4.785    c0.716,0.5,1.767,1.703,0.765,4.132c-0.337,0.819-0.967,1.642-1.521,2.367c-0.502,0.655-1.126,1.47-1.093,1.809l0.04,0.372    c0.251,2.311,0.482,5.042,0.16,6.414c1.006-0.239,2.701-0.471,4.12,0.167l0.251,0.113c1.755,0.791,1.929,0.859,2.973,0.86    c0.874,0,1.655,0.009,2.086,0.569c0.276,0.36,0.325,0.854,0.15,1.512c-0.464,1.736-3.576,4.927-4.736,6.01    c-1.414,1.321-3.412,1.814-4.478,1.991c-0.541,0.271-4.305,4.381-5.969,6.488c-0.311,0.394-0.963,1.273-1.833,2.447    c-3.339,4.505-9.556,12.89-12.454,15.476c-3.398,3.03-7.329,5.51-8.809,6.443l-0.283,0.179c-0.162,0.104-0.315,0.206-0.465,0.308    c-0.878,0.593-1.708,1.152-3.507,1.241C44.628,92.885,44.497,92.889,44.368,92.889z M22.049,56.945    c-0.042,0-0.059,0.007-0.065,0.011c-0.123,0.065-0.294,0.75-0.408,1.202c-0.229,0.916,0.35,2.773,0.86,4.413    c0.281,0.903,0.547,1.758,0.714,2.522c0.534,2.461,0.048,4.099-1.794,6.043c-0.894,0.943-1.87,1.513-2.902,2.115    c-1.101,0.643-2.349,1.371-3.792,2.715c-0.896,0.834-1.351,1.545-1.312,2.054c0.039,0.515,0.597,0.896,1.137,1.267    c0.112,0.077,0.222,0.152,0.324,0.227c0.357,0.26,0.573,0.458,0.805,0.673c0.469,0.434,1,0.925,3.184,2.247    c3.408,2.066,7.657,3.814,10.497,4.762c2.157,0.719,4.481,1.18,6.178,1.517c0.827,0.164,1.541,0.307,2.034,0.438    c0.799,0.214,0.947,0.274,1.217,0.504c0.128,0.109,0.343,0.292,1.144,0.714c1.858,0.979,3.042,1.604,4.845,1.513    c1.521-0.076,2.173-0.516,2.998-1.072c0.157-0.105,0.317-0.214,0.487-0.322l0.287-0.181c1.46-0.922,5.34-3.369,8.676-6.344    c2.822-2.518,9.235-11.168,12.317-15.325c0.878-1.185,1.537-2.073,1.851-2.471c0.425-0.537,5.58-6.688,6.59-6.855    c0.954-0.158,2.737-0.594,3.96-1.735c1.645-1.536,4.112-4.269,4.451-5.537c0.124-0.465,0.049-0.611,0.023-0.645    c-0.139-0.179-0.8-0.193-1.295-0.179c-1.277,0-1.64-0.163-3.382-0.949l-0.25-0.113c-1.75-0.788-4.209,0.103-4.232,0.111    c-0.03,0.011-0.062,0.02-0.092,0.024c-1.01,1.429-2.967,3.392-3.065,3.49c-0.195,0.195-0.512,0.195-0.707,0s-0.195-0.512,0-0.707    c0.773-0.774,2.881-2.997,3.334-3.978c0.315-0.682,0.281-2.811-0.102-6.327l-0.04-0.38c-0.074-0.731,0.56-1.559,1.293-2.516    c0.543-0.709,1.104-1.442,1.392-2.14c0.561-1.361,0.422-2.348-0.413-2.932c-0.674,0.02-3.106,3.318-4.022,4.56    c-0.263,0.357-0.498,0.675-0.69,0.927c-1.364,1.784-4.382,6.467-4.925,8.187c-0.222,0.703-0.372,1.649-0.53,2.65    c-0.261,1.643-0.507,3.194-1.105,4.059c-0.156,0.171-2.651,2.758-4.72,4.332c-1.797,1.368-6.37,4.01-10.792,6.563L49.894,67.3    c-2.856,1.657-4.797,3.481-6.082,4.689c-1.082,1.016-1.625,1.52-2.177,1.458c-0.557-0.069-1.034-0.692-1.985-1.935    c-0.971-1.27-2.302-3.007-4.171-4.664c-3.597-3.187-5.539-4.602-7.421-5.408c-1.196-0.513-2.292-1.628-3.26-2.611    c-0.761-0.774-1.48-1.505-2.01-1.694C22.342,56.977,22.139,56.945,22.049,56.945z"/></g><g><path d="M90.766,53.479c-0.452,0-0.859-0.116-1.166-0.379c-0.852-0.73-0.66-2.447-0.613-2.784    c0.039-0.273,0.296-0.455,0.563-0.426c0.273,0.038,0.465,0.29,0.427,0.563c-0.081,0.597-0.051,1.608,0.273,1.887    c0.382,0.327,1.807,0.066,2.917-0.951c1.073-0.983,1.043-1.736,0.667-2.563c-0.317-0.698-1.706-0.501-1.72-0.499    c-0.268,0.045-0.529-0.139-0.575-0.411c-0.045-0.272,0.139-0.53,0.411-0.575c0.087-0.014,2.152-0.341,2.794,1.071    c0.632,1.391,0.346,2.572-0.901,3.715C92.979,52.917,91.762,53.479,90.766,53.479z"/></g></g></svg>