<svg xmlns="http://www.w3.org/2000/svg" xmlns:xlink="http://www.w3.org/1999/xlink" version="1.1" x="0px" y="0px" viewBox="0 0 32 40" enable-background="new 0 0 32 32" xml:space="preserve"><g display="none"><g display="inline"><g><path fill="#000000" stroke="#FF0000" stroke-linecap="round" stroke-miterlimit="10" d="M9.5,8.5h-3c-1.657,0-3-0.895-3-2     s1.343-2,3-2s3,0.895,3,2L9.5,8.5z"/><path fill="#000000" stroke="#FF0000" stroke-linecap="round" stroke-miterlimit="10" d="M28.5,10.5c0,1.105-1.343,2-3,2     s-3-0.895-3-2v15c0,1.105,1.343,2,3,2s3-0.895,3-2V10.5z"/><path fill="#000000" stroke="#FF0000" stroke-linecap="round" stroke-miterlimit="10" d="M28.5,10.5c0-1.105-1.343-2-3-2H20L19,10     l-1-1.5H6.5c-1.657,0-3-0.895-3-2v15c0,1.105,1.343,2,3,2H8L9,22l1,1.5h12.5v-13c0,1.105,1.343,2,3,2S28.5,11.605,28.5,10.5"/></g><line fill="#000000" stroke="#FF0000" stroke-miterlimit="10" x1="12" y1="12" x2="15" y2="15"/><line fill="#000000" stroke="#FF0000" stroke-miterlimit="10" x1="15" y1="12" x2="12" y2="15"/><path display="none" fill="#000000" stroke="#FF0000" stroke-miterlimit="10" stroke-dasharray="1,1" d="M10,13.5h2    c1.933,0,3.5,2.5,3.5,2.5s1.567,2.5,3.5,2.5h2"/><circle fill="#000000" cx="22.5" cy="10.5" r="0.5"/><g><circle fill="#000000" cx="10.5" cy="13.5" r="0.5"/><circle fill="#000000" cx="8.5" cy="14.5" r="0.5"/><circle fill="#000000" cx="7.5" cy="16.5" r="0.5"/><circle fill="#000000" cx="8.5" cy="18.5" r="0.5"/><circle fill="#000000" cx="10.5" cy="19.5" r="0.5"/><circle fill="#000000" cx="12.5" cy="19.5" r="0.5"/><circle fill="#000000" cx="14.5" cy="19.5" r="0.5"/><circle fill="#000000" cx="16.5" cy="19.5" r="0.5"/><circle fill="#000000" cx="18.5" cy="19.5" r="0.5"/><circle fill="#000000" cx="20.5" cy="19.5" r="0.5"/></g></g></g><g><g><path d="M25.5,8h-5.768L19,9.099L18.268,8H10l0-1.5C10,5.098,8.462,4,6.5,4S3,5.098,3,6.5v15C3,22.902,4.538,24,6.5,24h1.768    L9,22.901L9.732,24H22v1.5c0,1.402,1.538,2.5,3.5,2.5s3.5-1.098,3.5-2.5v-15C29,9.098,27.462,8,25.5,8z M6.5,5    C7.855,5,9,5.687,9,6.5L9,8H6.5C5.145,8,4,7.313,4,6.5S5.145,5,6.5,5z M10.268,23L9,21.099L7.732,23H6.5C5.145,23,4,22.313,4,21.5    V8.266C4.631,8.722,5.511,9,6.5,9h11.232L19,10.901L20.268,9H25.5c1.355,0,2.5,0.687,2.5,1.5S26.855,12,25.5,12S23,11.313,23,10.5    c0-0.276-0.224-0.5-0.5-0.5S22,10.224,22,10.5v10V23H10.268z M23,12.266C23.631,12.722,24.511,13,25.5,13    c0.989,0,1.869-0.28,2.5-0.736V25.5c0,0.813-1.145,1.5-2.5,1.5S23,26.313,23,25.5V12.266z"/><polygon points="15.354,12.354 14.646,11.646 13.5,12.793 12.354,11.646 11.646,12.354 12.793,13.5 11.646,14.646 12.354,15.354     13.5,14.207 14.646,15.354 15.354,14.646 14.207,13.5   "/><g><circle cx="10.5" cy="13.5" r="0.5"/><circle cx="8.5" cy="14.5" r="0.5"/><circle cx="7.5" cy="16.5" r="0.5"/><circle cx="8.5" cy="18.5" r="0.5"/><circle cx="10.5" cy="19.5" r="0.5"/><circle cx="12.5" cy="19.5" r="0.5"/><circle cx="14.5" cy="19.5" r="0.5"/><circle cx="16.5" cy="19.5" r="0.5"/><circle cx="18.5" cy="19.5" r="0.5"/><circle cx="20.5" cy="19.5" r="0.5"/></g></g></g></svg>