<svg xmlns="http://www.w3.org/2000/svg" xmlns:xlink="http://www.w3.org/1999/xlink" version="1.1" x="0px" y="0px" viewBox="0 0 512 640" enable-background="new 0 0 512 512" xml:space="preserve"><g><path d="M474.156,222.41l37.781-57.117c0,0,4.797-141.961-85.328-149.32H256.031h-0.063H85.391   c-90.109,7.359-85.328,149.32-85.328,149.32L38,221.863L0,325.246l42.672,170.719l426.656,0.063L512,325.309L474.156,222.41z    M485.313,314.527h-48.047c-1.172-14.578-20.844-26.438-46.125-28.344c2.063-3.203,3.203-6.656,3.203-10.281   c0-14.508-18.328-26.617-42.688-29.391c0.016-0.195,0.031-0.398,0.031-0.594c0-6.156-3.313-11.875-8.969-16.641l111.234,0.016   l0.188,0.477L485.313,314.527z M213.031,335.84h85.328v85.406H256h-42.969V335.84z M309.703,314.512   c-0.219-0.016-0.453-0.031-0.688-0.031h-39.531c1.313-0.891,3.063-1.891,5.375-2.891c6.594-2.813,15.063-4.344,23.813-4.344   c8.734,0,17.188,1.531,23.797,4.344c2.344,1,4.109,2.031,5.422,2.938L309.703,314.512z M298.359,254.582   c-8.75,0-17.203-1.555-23.813-4.367c-3.656-1.555-5.938-3.156-7.188-4.297c0.281-0.266,0.641-0.555,1.047-0.867   c9.328-1.281,17.688-3.945,24.359-7.578c1.844-0.141,3.719-0.219,5.594-0.219c8.75,0,17.203,1.547,23.813,4.359   c3.641,1.555,5.922,3.164,7.188,4.305c-1.266,1.141-3.547,2.742-7.188,4.297C315.563,253.027,307.109,254.582,298.359,254.582z    M285.641,275.043c0.406,0.313,0.766,0.609,1.063,0.859c-1.281,1.156-3.547,2.75-7.203,4.313   c-6.609,2.813-15.047,4.359-23.797,4.359s-17.219-1.547-23.813-4.359c-3.656-1.563-5.938-3.156-7.203-4.313   c0.297-0.25,0.641-0.547,1.047-0.859c9.344-1.281,17.688-3.945,24.375-7.578c1.844-0.141,3.703-0.219,5.594-0.219   c1.875,0,3.75,0.078,5.578,0.219C267.953,271.098,276.328,273.762,285.641,275.043z M236.844,250.215   c-6.609,2.813-15.063,4.367-23.813,4.367s-17.203-1.555-23.797-4.367c-3.656-1.555-5.938-3.156-7.219-4.297   c1.281-1.141,3.563-2.75,7.219-4.305c6.594-2.813,15.063-4.359,23.797-4.359c1.891,0,3.75,0.078,5.578,0.219   c6.688,3.633,15.047,6.297,24.375,7.578c0.406,0.313,0.766,0.602,1.063,0.867C242.766,247.059,240.484,248.66,236.844,250.215z    M213.328,307.246c8.75,0,17.219,1.531,23.813,4.344c2.313,1,4.063,2,5.375,2.891h-40.156c-0.141,0-0.281,0.016-0.438,0.016   h-17.781c1.297-0.906,3.063-1.906,5.391-2.906C196.141,308.777,204.594,307.246,213.328,307.246z M354.75,314.527   c1.313-0.906,3.078-1.938,5.422-2.938c6.609-2.813,15.063-4.344,23.813-4.344s17.203,1.531,23.813,4.344   c2.344,1,4.125,2.031,5.438,2.938H354.75z M364.828,280.215c-6.609,2.813-15.063,4.359-23.813,4.359s-17.203-1.547-23.813-4.359   c-3.641-1.563-5.922-3.156-7.188-4.313c0.281-0.25,0.641-0.547,1.063-0.859c9.313-1.281,17.672-3.945,24.359-7.578   c1.828-0.141,3.703-0.219,5.578-0.219c8.75,0,17.203,1.547,23.813,4.359c3.656,1.555,5.938,3.172,7.203,4.297   C370.766,277.059,368.484,278.652,364.828,280.215z M279.5,220.223c-6.609,2.813-15.047,4.359-23.797,4.359   s-17.219-1.547-23.813-4.359c-3.656-1.555-5.938-3.156-7.203-4.297c1.266-1.141,3.547-2.75,7.203-4.305   c6.594-2.813,15.063-4.359,23.813-4.359s17.188,1.547,23.797,4.359c3.656,1.555,5.922,3.164,7.203,4.305   C285.422,217.066,283.156,218.668,279.5,220.223z M175.953,267.465c6.688,3.633,15.047,6.297,24.375,7.578   c0.406,0.313,0.75,0.609,1.063,0.859c-1.281,1.156-3.563,2.75-7.219,4.313c-6.594,2.813-15.063,4.359-23.797,4.359   c-8.75,0-17.203-1.547-23.813-4.359c-3.641-1.563-5.922-3.156-7.203-4.313c1.281-1.125,3.563-2.742,7.203-4.297   c6.609-2.813,15.063-4.359,23.813-4.359C172.25,267.246,174.109,267.324,175.953,267.465z M151.828,311.59   c2.313,1,4.094,2,5.391,2.906H98.828c1.297-0.906,3.063-1.906,5.375-2.906c6.609-2.813,15.063-4.344,23.813-4.344   S145.219,308.777,151.828,311.59z M191.703,335.84v96.063c0,5.906,4.781,10.672,10.656,10.672h106.656   c5.906,0,10.672-4.766,10.672-10.672V335.84l114.422,0.031l-34.719,138.813l-287.344-0.047L77.391,335.809L191.703,335.84z    M50.266,56.246c9.688-11.367,21.5-17.563,36.063-18.938h169.641h0.063h169.641c14.469,1.359,26.188,7.477,35.828,18.672   c8.75,10.164,15.75,24.398,20.797,42.297c6.172,21.977,7.813,44.039,8.219,56.359l-170.828-0.023v-32   c0-5.891-4.766-10.664-10.672-10.664H202.359c-5.875,0-10.656,4.773-10.656,10.664v31.992l-170.234-0.023   c0.391-12.133,1.984-33.68,8.016-55.508C34.5,80.957,41.484,66.551,50.266,56.246z M213.031,154.605v-21.328h85.328v21.336h-39   L213.031,154.605z M32.859,175.918l446.438,0.047l-21.156,32l-151.031-0.023c-6.219-12.688-26.875-22.016-51.406-22.016   s-45.188,9.32-51.406,22L54.328,207.91L32.859,175.918z M58.016,229.238l110.688,0.016c-5.688,4.766-9,10.492-9,16.664   c0,0.195,0.031,0.398,0.031,0.594c-24.359,2.773-42.688,14.883-42.688,29.391c0,3.625,1.141,7.109,3.234,10.313   c-24.984,2.063-44.344,13.828-45.547,28.281l-48.047-0.016L58.016,229.238z M24.625,335.809h30.781l34.641,138.828l-30.719-0.016   L24.625,335.809z M452.672,474.684h-31.313l34.734-138.813h31.281L452.672,474.684z"/><path d="M266.672,410.59c0-0.875-0.125-1.703-0.313-2.5v-9.906C278.953,393.887,288,381.965,288,367.918   c0-17.672-14.328-31.984-32-31.984s-32,14.313-32,31.984c0,13.828,8.766,25.578,21.031,30.078v12.594h0.297   c0,5.875,4.781,10.656,10.672,10.656S266.672,416.465,266.672,410.59z M256,357.246c5.891,0,10.672,4.781,10.672,10.672   S261.891,378.59,256,378.59s-10.672-4.781-10.672-10.672S250.109,357.246,256,357.246z"/></g></svg>